0
SECTION
2
HEADER
9
$INSUNITS
70
4
9
$ACADVER
1
AC1014
9
$HANDSEED
5
FFFF
0
ENDSEC
0
SECTION
2
TABLES
0
TABLE
2
VPORT
5
8
100
AcDbSymbolTable
0
ENDTAB
0
TABLE
2
LTYPE
5
5
100
AcDbSymbolTable
0
LTYPE
5
14
100
AcDbSymbolTableRecord
100
AcDbLinetypeTableRecord
2
BYBLOCK
70
0
0
LTYPE
5
15
100
AcDbSymbolTableRecord
100
AcDbLinetypeTableRecord
2
BYLAYER
70
0
0
ENDTAB
0
TABLE
2
LAYER
5
2
100
AcDbSymbolTable
70
2
0
LAYER
5
50
100
AcDbSymbolTableRecord
100
AcDbLayerTableRecord
2
0
70
0
6
CONTINUOUS
0
ENDTAB
0
TABLE
2
STYLE
5
3
100
AcDbSymbolTable
70
1
0
STYLE
5
11
100
AcDbSymbolTableRecord
100
AcDbTextStyleTableRecord
2
STANDARD
70
0
0
ENDTAB
0
TABLE
2
VIEW
5
6
100
AcDbSymbolTable
70
0
0
ENDTAB
0
TABLE
2
UCS
5
7
100
AcDbSymbolTable
70
0
0
ENDTAB
0
TABLE
2
APPID
5
9
100
AcDbSymbolTable
70
2
0
APPID
5
12
100
AcDbSymbolTableRecord
100
AcDbRegAppTableRecord
2
ACAD
70
0
0
ENDTAB
0
TABLE
2
DIMSTYLE
5
A
100
AcDbSymbolTable
70
1
0
ENDTAB
0
TABLE
2
BLOCK_RECORD
5
1
100
AcDbSymbolTable
70
1
0
BLOCK_RECORD
5
1F
100
AcDbSymbolTableRecord
100
AcDbBlockTableRecord
2
*MODEL_SPACE
0
BLOCK_RECORD
5
1B
100
AcDbSymbolTableRecord
100
AcDbBlockTableRecord
2
*PAPER_SPACE
0
ENDTAB
0
ENDSEC
0
SECTION
2
BLOCKS
0
BLOCK
5
20
100
AcDbEntity
100
AcDbBlockBegin
2
*MODEL_SPACE
0
ENDBLK
5
21
100
AcDbEntity
100
AcDbBlockEnd
0
BLOCK
5
1C
100
AcDbEntity
100
AcDbBlockBegin
2
*PAPER_SPACE
0
ENDBLK
5
1D
100
AcDbEntity
100
AcDbBlockEnd
0
ENDSEC
0
SECTION
2
ENTITIES
0
CIRCLE
5
100
100
AcDbEntity
8
0
100
AcDbCircle
10
-15.011265439413322
20
-6.2742499149508131
30
0
40
1.0989005738618061
210
0
220
0
230
1
0
LWPOLYLINE
5
101
100
AcDbEntity
8
0
100
AcDbPolyline
90
4
70
1
43
0.0
10
15.870333945581647
20
3.9636222844621729
10
17.718240836114681
20
2.115717699848465
10
20.193113026116805
20
4.5905929781573693
10
18.345206135594619
20
6.4384975627547592
0
LINE
5
102
100
AcDbEntity
8
0
100
AcDbLine
10
1.3376550527746799e-16
20
-13.75461739870104
30
0
11
-13.48359446803668
21
3.8175450291438979
31
0
0
LINE
5
103
100
AcDbEntity
8
0
100
AcDbLine
10
1.3376550527746799e-16
20
-13.75461739870104
30
0
11
2.9043782505521332
21
-16.658995649253164
31
0
0
LWPOLYLINE
5
104
100
AcDbEntity
8
0
100
AcDbPolyline
90
4
70
1
43
0.0
10
-10.686727679358912
20
7.526378122300982
10
-7.4912780025924324
20
8.8499749345792278
10
-8.8306684791078833
20
12.083553936704249
10
-12.026118155242163
20
10.759957122899744
0
LWPOLYLINE
5
105
100
AcDbEntity
8
0
100
AcDbPolyline
90
4
70
1
43
0.0
10
-1.6930478312283934
20
9.9960916032361951
10
1.6930478312283936
20
9.9960915964285473
10
1.6930478382648795
20
13.496091596427473
10
-1.6930478241919049
20
13.496091603236202
0
LWPOLYLINE
5
106
100
AcDbEntity
8
0
100
AcDbPolyline
90
4
70
1
43
0.0
10
7.6216816331209536
20
8.795940582798579
10
10.556324048845829
20
7.58041247407869
10
11.895677895027244
20
10.814006648724837
10
8.9610354786757558
20
12.029534755912701
0
LINE
5
107
100
AcDbEntity
8
0
100
AcDbLine
10
1.3376550527746799e-16
20
-13.75461739870104
30
0
11
-11.07461299739748
21
5.4271749869540384
31
0
0
LINE
5
108
100
AcDbEntity
8
0
100
AcDbLine
10
1.3376550527746799e-16
20
-13.75461739870104
30
0
11
5.7326415217322388
21
7.6398920219826412
31
0
0
LINE
5
109
100
AcDbEntity
8
0
100
AcDbLine
10
10.024612997395488
20
3.608521639008333
30
0
11
11.07461299739748
21
5.4271749869540411
31
0
0
LINE
5
110
100
AcDbEntity
8
0
100
AcDbLine
10
7.6725066199550298
20
4.7684521405832205
30
0
11
9.089002840666689
21
8.1881765276740239
31
0
0
LINE
5
111
100
AcDbEntity
8
0
100
AcDbLine
10
-10.024612997396957
20
3.6085216390074821
30
0
11
-11.07461299739748
21
5.4271749869540384
31
0
0
LINE
5
112
100
AcDbEntity
8
0
100
AcDbLine
10
-14.176943658461123
20
0.42232625976006682
30
0
11
-16.794287390838985
21
3.0396699921249186
31
0
0
LINE
5
113
100
AcDbEntity
8
0
100
AcDbLine
10
-5.1891215270174644
20
5.6114477867775383
30
0
11
-5.7326415217322388
21
7.6398920219826412
31
0
0
LINE
5
114
100
AcDbEntity
8
0
100
AcDbLine
10
5.1891215270174653
20
5.6114477867775392
30
0
11
5.7326415217322388
21
7.6398920219826412
31
0
0
LINE
5
115
100
AcDbEntity
8
0
100
AcDbLine
10
-12.205195467105439
20
2.1515030145273482
30
0
11
-13.48359446803668
21
3.8175450291438979
31
0
0
CIRCLE
5
116
100
AcDbEntity
8
0
100
AcDbCircle
10
6.9778710559164832e-17
20
-1.9132340089888178
30
0
40
21.749999999999993
210
0
220
0
230
1
0
LINE
5
117
100
AcDbEntity
8
0
100
AcDbLine
10
12.205195467111093
20
2.1515030145229956
30
0
11
13.48359446803668
21
3.8175450291438997
31
0
0
LINE
5
118
100
AcDbEntity
8
0
100
AcDbLine
10
1.3376550527746799e-16
20
-13.75461739870104
30
0
11
11.07461299739748
21
5.4271749869540411
31
0
0
LINE
5
119
100
AcDbEntity
8
0
100
AcDbLine
10
1.3376550527746799e-16
20
-13.75461739870104
30
0
11
-16.794287390838985
21
3.0396699921249186
31
0
0
LINE
5
120
100
AcDbEntity
8
0
100
AcDbLine
10
1.3376550527746799e-16
20
-13.75461739870104
30
0
11
-9.0890028406595729
21
8.1881765276769727
31
0
0
LINE
5
121
100
AcDbEntity
8
0
100
AcDbLine
10
1.3376550527746799e-16
20
-13.75461739870104
30
0
11
13.48359446803668
21
3.8175450291438997
31
0
0
LINE
5
122
100
AcDbEntity
8
0
100
AcDbLine
10
1.3376550527746799e-16
20
-13.75461739870104
30
0
11
0
21
9.9960915998322406
31
0
0
CIRCLE
5
123
100
AcDbEntity
8
0
100
AcDbCircle
10
1.3376550527746799e-16
20
-13.75461739870104
30
0
40
23.750708998533277
210
0
220
0
230
1
0
LINE
5
124
100
AcDbEntity
8
0
100
AcDbLine
10
1.3376550527746799e-16
20
-13.75461739870104
30
0
11
-5.7326415217322388
21
7.6398920219826412
31
0
0
LINE
5
125
100
AcDbEntity
8
0
100
AcDbLine
10
1.3376550527746799e-16
20
-13.75461739870104
30
0
11
16.794287390838985
21
3.0396699921509169
31
0
0
CIRCLE
5
126
100
AcDbEntity
8
0
100
AcDbCircle
10
15.011265439413322
20
-6.2742499149508131
30
0
40
1.0989005738618061
210
0
220
0
230
1
0
LWPOLYLINE
5
127
100
AcDbEntity
8
0
100
AcDbPolyline
90
4
70
1
43
0.0
10
-4.5284044950067353
20
-3.1456182538873874
10
4.5284044950067317
20
-3.1456182538873896
10
4.5284044950067388
20
3.14561825388739
10
-4.5284044950067388
20
3.1456182538873909
0
LWPOLYLINE
5
128
100
AcDbEntity
8
0
100
AcDbPolyline
90
4
70
1
43
0.0
10
-17.616249493033923
20
2.2177076912892963
10
-15.972325288646692
20
3.8616322929789897
10
-18.447199321926192
20
6.3365057280551316
10
-20.091123526294883
20
4.6925811263338151
0
LINE
5
129
100
AcDbEntity
8
0
100
AcDbLine
10
1.3376550527746799e-16
20
-13.75461739870104
30
0
11
9.089002840666689
21
8.1881765276740239
31
0
0
LINE
5
130
100
AcDbEntity
8
0
100
AcDbLine
10
1.3376550527746799e-16
20
-13.75461739870104
30
0
11
-2.8910541297216463
21
8.2051188972431603
31
0
0
ARC
5
131
100
AcDbEntity
8
0
100
AcDbCircle
10
1.3376550527746799e-16
20
-13.75461739870104
30
0
40
22.149225994794946
210
0
220
-0
230
1
100
AcDbArc
50
44.999999999999964
51
135.00000000000003
0
LINE
5
132
100
AcDbEntity
8
0
100
AcDbLine
10
1.3376550527746799e-16
20
-13.75461739870104
30
0
11
2.8910541297216459
21
8.2051188972431603
31
0
0
LINE
5
133
100
AcDbEntity
8
0
100
AcDbLine
10
-2.6169491260598643
20
6.12308468836064
30
0
11
-2.8910541297216463
21
8.2051188972431603
31
0
0
LINE
5
134
100
AcDbEntity
8
0
100
AcDbLine
10
0
20
0
30
0
11
0
21
9.9960915998322371
31
0
0
LINE
5
135
100
AcDbEntity
8
0
100
AcDbLine
10
14.17694365846112
20
0.42232625976006621
30
0
11
16.794287390838985
21
3.0396699921509169
31
0
0
LINE
5
136
100
AcDbEntity
8
0
100
AcDbLine
10
-2.2306218500933743e-15
20
6.2946085960939113
30
0
11
0
21
9.9960915998322371
31
0
0
LINE
5
137
100
AcDbEntity
8
0
100
AcDbLine
10
2.6169491260598643
20
6.1230846883606329
30
0
11
2.8910541297216459
21
8.2051188972431603
31
0
0
ARC
5
138
100
AcDbEntity
8
0
100
AcDbCircle
10
1.3376550527746799e-16
20
-13.75461739870104
30
0
40
20.049225994794952
210
0
220
-0
230
1
100
AcDbArc
50
44.999999999999964
51
135.00000000000006
0
LINE
5
139
100
AcDbEntity
8
0
100
AcDbLine
10
-7.6725066199550316
20
4.7684521405832223
30
0
11
-9.0890028406595729
21
8.1881765276769727
31
0
0
LINE
5
140
100
AcDbEntity
8
0
100
AcDbLine
10
17.270112783899229
20
3.7716172585855396
30
0
11
17.019779836751518
21
3.5212839990560685
31
0
0
LINE
5
141
100
AcDbEntity
8
0
100
AcDbLine
10
17.019779836751518
20
3.5212839990560685
30
0
11
15.617623855238564
21
4.923438230882069
31
0
0
SPLINE
5
142
100
AcDbEntity
8
0
100
AcDbSpline
70
0
71
2
72
6
73
3
74
0
42
0.000000001
43
0.0000000001
44
0.0000000001
40
0
40
0
40
0
40
1
40
1
40
1
10
15.617623855238566
20
4.923438230882069
30
0
10
15.708785531469365
20
5.0203880511876875
30
0
10
15.828887579049265
20
5.0739276892549565
30
0
0
SPLINE
5
143
100
AcDbEntity
8
0
100
AcDbSpline
70
0
71
2
72
6
73
3
74
0
42
0.000000001
43
0.0000000001
44
0.0000000001
40
0
40
0
40
0
40
1
40
1
40
1
10
15.828887579049265
20
5.0739276892549565
30
0
10
16.025681168646969
20
5.1636425420849719
30
0
10
16.282525973330568
20
5.1846244308563492
30
0
0
SPLINE
5
144
100
AcDbEntity
8
0
100
AcDbSpline
70
0
71
2
72
6
73
3
74
0
42
0.000000001
43
0.0000000001
44
0.0000000001
40
0
40
0
40
0
40
1
40
1
40
1
10
16.282525973330568
20
5.1846244308563492
30
0
10
16.539370540938265
20
5.2056061352351168
30
0
10
16.944534200535951
20
5.1650901220614198
30
0
0
SPLINE
5
145
100
AcDbEntity
8
0
100
AcDbSpline
70
0
71
2
72
6
73
3
74
0
42
0.000000001
43
0.0000000001
44
0.0000000001
40
0
40
0
40
0
40
1
40
1
40
1
10
16.944534200535951
20
5.1650901220614198
30
0
10
17.573984619761223
20
5.102869069654056
30
0
10
17.86121662923129
20
5.1470031105507612
30
0
0
SPLINE
5
146
100
AcDbEntity
8
0
100
AcDbSpline
70
0
71
2
72
6
73
3
74
0
42
0.000000001
43
0.0000000001
44
0.0000000001
40
0
40
0
40
0
40
1
40
1
40
1
10
17.86121662923129
20
5.1470031105507612
30
0
10
18.148448638701353
20
5.1911371514474673
30
0
10
18.296043859817612
20
5.3387325567426602
30
0
0
SPLINE
5
147
100
AcDbEntity
8
0
100
AcDbSpline
70
0
71
2
72
6
73
3
74
0
42
0.000000001
43
0.0000000001
44
0.0000000001
40
0
40
0
40
0
40
1
40
1
40
1
10
18.296043859817612
20
5.3387325567426602
30
0
10
18.450874004435146
20
5.4935628945673365
30
0
10
18.446532954347497
20
5.7106149470056033
30
0
0
SPLINE
5
148
100
AcDbEntity
8
0
100
AcDbSpline
70
0
71
2
72
6
73
3
74
0
42
0.000000001
43
0.0000000001
44
0.0000000001
40
0
40
0
40
0
40
1
40
1
40
1
10
18.446532954347497
20
5.7106149470056033
30
0
10
18.442191588158678
20
5.9276666833423075
30
0
10
18.26420902369826
20
6.1056490257063434
30
0
0
SPLINE
5
149
100
AcDbEntity
8
0
100
AcDbSpline
70
0
71
2
72
6
73
3
74
0
42
0.000000001
43
0.0000000001
44
0.0000000001
40
0
40
0
40
0
40
1
40
1
40
1
10
18.26420902369826
20
6.1056490257063434
30
0
10
18.07609724813177
20
6.293760566536668
30
0
10
17.850363310977709
20
6.2937604783780614
30
0
0
SPLINE
5
150
100
AcDbEntity
8
0
100
AcDbSpline
70
0
71
2
72
6
73
3
74
0
42
0.000000001
43
0.0000000001
44
0.0000000001
40
0
40
0
40
0
40
1
40
1
40
1
10
17.850363310977709
20
6.2937604783780614
30
0
10
17.624629373823652
20
6.293760390219453
30
0
10
17.423494726541978
20
6.0955195071075332
30
0
0
LINE
5
151
100
AcDbEntity
8
0
100
AcDbLine
10
17.423494726541978
20
6.0955195071075332
30
0
11
17.183290433077616
21
6.3907099309655386
31
0
0
SPLINE
5
152
100
AcDbEntity
8
0
100
AcDbSpline
70
0
71
2
72
6
73
3
74
0
42
0.000000001
43
0.0000000001
44
0.0000000001
40
0
40
0
40
0
40
1
40
1
40
1
10
17.183290433077616
20
6.3907099309655377
30
0
10
17.510315089322081
20
6.6627483911763816
30
0
10
17.846745657082888
20
6.6403200766250281
30
0
0
SPLINE
5
153
100
AcDbEntity
8
0
100
AcDbSpline
70
0
71
2
72
6
73
3
74
0
42
0.000000001
43
0.0000000001
44
0.0000000001
40
0
40
0
40
0
40
1
40
1
40
1
10
17.846745657082888
20
6.6403200766250281
30
0
10
18.183176014109584
20
6.6178915513392997
30
0
10
18.485601862595296
20
6.3154660802371074
30
0
0
SPLINE
5
154
100
AcDbEntity
8
0
100
AcDbSpline
70
0
71
2
72
6
73
3
74
0
42
0.000000001
43
0.0000000001
44
0.0000000001
40
0
40
0
40
0
40
1
40
1
40
1
10
18.485601862595296
20
6.3154660802371074
30
0
10
18.790921620872478
20
6.0101467029546267
30
0
10
18.79960387761178
20
5.6628636308711444
30
0
0
SPLINE
5
155
100
AcDbEntity
8
0
100
AcDbSpline
70
0
71
2
72
6
73
3
74
0
42
0.000000001
43
0.0000000001
44
0.0000000001
40
0
40
0
40
0
40
1
40
1
40
1
10
18.79960387761178
20
5.6628636308711444
30
0
10
18.808286134351079
20
5.3155805587876621
30
0
10
18.557953187203371
20
5.0652472992581918
30
0
0
SPLINE
5
156
100
AcDbEntity
8
0
100
AcDbSpline
70
0
71
2
72
6
73
3
74
0
42
0.000000001
43
0.0000000001
44
0.0000000001
40
0
40
0
40
0
40
1
40
1
40
1
10
18.557953187203371
20
5.0652472992581918
30
0
10
18.430616152285491
20
4.9379101054408618
30
0
10
18.255527756465494
20
4.8670064583150374
30
0
0
SPLINE
5
157
100
AcDbEntity
8
0
100
AcDbSpline
70
0
71
2
72
6
73
3
74
0
42
0.000000001
43
0.0000000001
44
0.0000000001
40
0
40
0
40
0
40
1
40
1
40
1
10
18.255527756465494
20
4.8670064583150374
30
0
10
18.080439255278446
20
4.796102705822026
30
0
10
17.823594578692372
20
4.7809089227820856
30
0
0
SPLINE
5
158
100
AcDbEntity
8
0
100
AcDbSpline
70
0
71
2
72
6
73
3
74
0
42
0.000000001
43
0.0000000001
44
0.0000000001
40
0
40
0
40
0
40
1
40
1
40
1
10
17.823594578692372
20
4.7809089227820856
30
0
10
17.566749902106299
20
4.7657151397421442
30
0
10
17.048719324809511
20
4.8091250695060159
30
0
0
SPLINE
5
159
100
AcDbEntity
8
0
100
AcDbSpline
70
0
71
2
72
6
73
3
74
0
42
0.000000001
43
0.0000000001
44
0.0000000001
40
0
40
0
40
0
40
1
40
1
40
1
10
17.048719324809511
20
4.8091250695060159
30
0
10
16.617509731232854
20
4.8467472901518898
30
0
10
16.480766970358324
20
4.8431295827756031
30
0
0
SPLINE
5
160
100
AcDbEntity
8
0
100
AcDbSpline
70
0
71
2
72
6
73
3
74
0
42
0.000000001
43
0.0000000001
44
0.0000000001
40
0
40
0
40
0
40
1
40
1
40
1
10
16.480766970358324
20
4.8431295827756031
30
0
10
16.344024156800202
20
4.8395119280828434
30
0
10
16.229710172358796
20
4.8120185718546695
30
0
0
LINE
5
161
100
AcDbEntity
8
0
100
AcDbLine
10
16.229710172358796
20
4.8120185718546695
30
0
11
17.270112783899229
21
3.7716172585855396
31
0
0
LINE
5
162
100
AcDbEntity
8
0
100
AcDbLine
10
18.133980098255627
20
2.4070851279120085
30
0
11
18.64188112678643
21
2.9149867902348077
31
0
0
LINE
5
163
100
AcDbEntity
8
0
100
AcDbLine
10
18.64188112678643
20
2.9149867902348077
30
0
11
17.721580618482527
21
3.8352861501373803
31
0
0
LINE
5
164
100
AcDbEntity
8
0
100
AcDbLine
10
17.721580618482527
20
3.8352861501373803
30
0
11
17.960337519440909
21
4.0740433490321788
31
0
0
LINE
5
165
100
AcDbEntity
8
0
100
AcDbLine
10
17.960337519440909
20
4.0740433490321788
30
0
11
20.303050768767825
21
4.4806553726926808
31
0
0
LINE
5
166
100
AcDbEntity
8
0
100
AcDbLine
10
20.303050768767825
20
4.4806553726926808
30
0
11
20.515761620499294
21
4.2679447863934534
31
0
0
LINE
5
167
100
AcDbEntity
8
0
100
AcDbLine
10
20.515761620499294
20
4.2679447863934534
30
0
11
19.141100445695649
21
2.8932818961980233
31
0
0
LINE
5
168
100
AcDbEntity
8
0
100
AcDbLine
10
19.141100445695649
20
2.8932818961980233
30
0
11
19.427609210808757
21
2.606773488606227
31
0
0
LINE
5
169
100
AcDbEntity
8
0
100
AcDbLine
10
19.427609210808757
20
2.6067734886062279
30
0
11
19.188852309850375
21
2.3680162897114294
31
0
0
LINE
5
170
100
AcDbEntity
8
0
100
AcDbLine
10
19.188852309850379
20
2.368016289711429
30
0
11
18.902343544737271
21
2.6545246973032248
31
0
0
LINE
5
171
100
AcDbEntity
8
0
100
AcDbLine
10
18.902343544737267
20
2.6545246973032248
30
0
11
18.394442516206468
21
2.1466230349804261
31
0
0
LINE
5
172
100
AcDbEntity
8
0
100
AcDbLine
10
18.394442516206468
20
2.1466230349804261
30
0
11
18.133980098255627
21
2.4070851279120085
31
0
0
LINE
5
173
100
AcDbEntity
8
0
100
AcDbLine
10
18.880638027744808
20
3.1537439891296062
30
0
11
19.837112848086107
21
4.1102200030225085
31
0
0
LINE
5
174
100
AcDbEntity
8
0
100
AcDbLine
10
19.837112848086107
20
4.1102200030225085
30
0
11
18.216458914653767
21
3.8179222734216136
31
0
0
LINE
5
175
100
AcDbEntity
8
0
100
AcDbLine
10
18.216458914653767
20
3.8179222734216136
30
0
11
18.880638027744812
21
3.1537439891296062
31
0
0
LINE
5
176
100
AcDbEntity
8
0
100
AcDbLine
10
-9.2813537745747894
20
11.101692645626372
30
0
11
-9.6088097893716231
21
10.935046203653316
31
0
0
SPLINE
5
177
100
AcDbEntity
8
0
100
AcDbSpline
70
0
71
2
72
6
73
3
74
0
42
0.000000001
43
0.0000000001
44
0.0000000001
40
0
40
0
40
0
40
1
40
1
40
1
10
-9.6088097893716231
20
10.935046203653316
30
0
10
-9.7371948340936871
20
11.11665645416376
30
0
10
-9.8579713211738014
20
11.17294869663149
30
0
0
SPLINE
5
178
100
AcDbEntity
8
0
100
AcDbSpline
70
0
71
2
72
6
73
3
74
0
42
0.000000001
43
0.0000000001
44
0.0000000001
40
0
40
0
40
0
40
1
40
1
40
1
10
-9.8579713211738014
20
11.17294869663149
30
0
10
-10.056286110810852
20
11.261358512882403
30
0
10
-10.258581747381434
20
11.17756502940199
30
0
0
SPLINE
5
179
100
AcDbEntity
8
0
100
AcDbSpline
70
0
71
2
72
6
73
3
74
0
42
0.000000001
43
0.0000000001
44
0.0000000001
40
0
40
0
40
0
40
1
40
1
40
1
10
-10.258581747381434
20
11.17756502940199
30
0
10
-10.42117452645412
20
11.110216985824648
30
0
10
-10.506474749688078
20
10.968565089959871
30
0
0
SPLINE
5
180
100
AcDbEntity
8
0
100
AcDbSpline
70
0
71
2
72
6
73
3
74
0
42
0.000000001
43
0.0000000001
44
0.0000000001
40
0
40
0
40
0
40
1
40
1
40
1
10
-10.506474749688078
20
10.968565089959871
30
0
10
-10.618623659735619
20
10.784782055419797
30
0
10
-10.618072850086087
20
10.521426281627855
30
0
0
SPLINE
5
181
100
AcDbEntity
8
0
100
AcDbSpline
70
0
71
2
72
6
73
3
74
0
42
0.000000001
43
0.0000000001
44
0.0000000001
40
0
40
0
40
0
40
1
40
1
40
1
10
-10.618072850086087
20
10.521426281627855
30
0
10
-10.617522097460764
20
10.258070645504716
30
0
10
-10.449017603866796
20
9.8405693735993189
30
0
0
SPLINE
5
182
100
AcDbEntity
8
0
100
AcDbSpline
70
0
71
2
72
6
73
3
74
0
42
0.000000001
43
0.0000000001
44
0.0000000001
40
0
40
0
40
0
40
1
40
1
40
1
10
-10.449017603866796
20
9.8405693735993189
30
0
10
-10.403656258098458
20
10.078642768157957
30
0
10
-10.263528251072831
20
10.243005206382199
30
0
0
SPLINE
5
183
100
AcDbEntity
8
0
100
AcDbSpline
70
0
71
2
72
6
73
3
74
0
42
0.000000001
43
0.0000000001
44
0.0000000001
40
0
40
0
40
0
40
1
40
1
40
1
10
-10.263528251072831
20
10.243005206382199
30
0
10
-10.123400187022993
20
10.407367506937636
30
0
10
-9.9286669732770001
20
10.48802853653636
30
0
0
SPLINE
5
184
100
AcDbEntity
8
0
100
AcDbSpline
70
0
71
2
72
6
73
3
74
0
42
0.000000001
43
0.0000000001
44
0.0000000001
40
0
40
0
40
0
40
1
40
1
40
1
10
-9.9286669732770001
20
10.48802853653636
30
0
10
-9.5883565694824515
20
10.628989531454419
30
0
10
-9.2454312278442465
20
10.477547410564977
30
0
0
SPLINE
5
185
100
AcDbEntity
8
0
100
AcDbSpline
70
0
71
2
72
6
73
3
74
0
42
0.000000001
43
0.0000000001
44
0.0000000001
40
0
40
0
40
0
40
1
40
1
40
1
10
-9.2454312278442465
20
10.477547410564977
30
0
10
-8.9025056678926404
20
10.326105541392764
30
0
10
-8.7380510975996319
20
9.9290765534859418
30
0
0
SPLINE
5
186
100
AcDbEntity
8
0
100
AcDbSpline
70
0
71
2
72
6
73
3
74
0
42
0.000000001
43
0.0000000001
44
0.0000000001
40
0
40
0
40
0
40
1
40
1
40
1
10
-8.7380510975996319
20
9.9290765534859418
30
0
10
-8.6299809823630831
20
9.6681718647388131
30
0
10
-8.64967310606567
20
9.3975389373756375
30
0
0
SPLINE
5
187
100
AcDbEntity
8
0
100
AcDbSpline
70
0
71
2
72
6
73
3
74
0
42
0.000000001
43
0.0000000001
44
0.0000000001
40
0
40
0
40
0
40
1
40
1
40
1
10
-8.64967310606567
20
9.3975389373756375
30
0
10
-8.6693651157198399
20
9.1269057346748497
30
0
10
-8.8166527530746706
20
8.9263529621113733
30
0
0
SPLINE
5
188
100
AcDbEntity
8
0
100
AcDbSpline
70
0
71
2
72
6
73
3
74
0
42
0.000000001
43
0.0000000001
44
0.0000000001
40
0
40
0
40
0
40
1
40
1
40
1
10
-8.8166527530746706
20
8.9263529621113733
30
0
10
-8.9639401150918925
20
8.7258003035963156
30
0
10
-9.2135010319849595
20
8.6224289263311427
30
0
0
SPLINE
5
189
100
AcDbEntity
8
0
100
AcDbSpline
70
0
71
2
72
6
73
3
74
0
42
0.000000001
43
0.0000000001
44
0.0000000001
40
0
40
0
40
0
40
1
40
1
40
1
10
-9.2135010319849595
20
8.6224289263311427
30
0
10
-9.6388891055625496
20
8.4462276541714658
30
0
10
-10.036961981395988
20
8.6479214996681577
30
0
0
SPLINE
5
190
100
AcDbEntity
8
0
100
AcDbSpline
70
0
71
2
72
6
73
3
74
0
42
0.000000001
43
0.0000000001
44
0.0000000001
40
0
40
0
40
0
40
1
40
1
40
1
10
-10.036961981395988
20
8.6479214996681577
30
0
10
-10.43503485722943
20
8.8496153451648496
30
0
10
-10.732619287889811
20
9.5680486797411515
30
0
0
SPLINE
5
191
100
AcDbEntity
8
0
100
AcDbSpline
70
0
71
2
72
6
73
3
74
0
42
0.000000001
43
0.0000000001
44
0.0000000001
40
0
40
0
40
0
40
1
40
1
40
1
10
-10.732619287889811
20
9.5680486797411515
30
0
10
-11.065443824759825
20
10.371559271077242
30
0
10
-10.919758960083318
20
10.859396877053646
30
0
0
SPLINE
5
192
100
AcDbEntity
8
0
100
AcDbSpline
70
0
71
2
72
6
73
3
74
0
42
0.000000001
43
0.0000000001
44
0.0000000001
40
0
40
0
40
0
40
1
40
1
40
1
10
-10.919758960083318
20
10.859396877053646
30
0
10
-10.792308510415429
20
11.284307013953072
30
0
10
-10.353686196894811
20
11.465990080405703
30
0
0
SPLINE
5
193
100
AcDbEntity
8
0
100
AcDbSpline
70
0
71
2
72
6
73
3
74
0
42
0.000000001
43
0.0000000001
44
0.0000000001
40
0
40
0
40
0
40
1
40
1
40
1
10
-10.353686196894811
20
11.465990080405703
30
0
10
-10.026610170712098
20
11.601469224006598
30
0
10
-9.7417350534960097
20
11.504614191341574
30
0
0
SPLINE
5
194
100
AcDbEntity
8
0
100
AcDbSpline
70
0
71
2
72
6
73
3
74
0
42
0.000000001
43
0.0000000001
44
0.0000000001
40
0
40
0
40
0
40
1
40
1
40
1
10
-9.7417350534960097
20
11.504614191341574
30
0
10
-9.456860073948727
20
11.407759101652339
30
0
10
-9.2813537745747894
20
11.101692645626372
30
0
0
SPLINE
5
195
100
AcDbEntity
8
0
100
AcDbSpline
70
0
71
2
72
6
73
3
74
0
42
0.000000001
43
0.0000000001
44
0.0000000001
40
0
40
0
40
0
40
1
40
1
40
1
10
-10.176024627951552
20
9.3312343964652342
30
0
10
-10.103194675948846
20
9.1554071021466967
30
0
10
-9.9619505902487511
20
9.0256383287917608
30
0
0
SPLINE
5
196
100
AcDbEntity
8
0
100
AcDbSpline
70
0
71
2
72
6
73
3
74
0
42
0.000000001
43
0.0000000001
44
0.0000000001
40
0
40
0
40
0
40
1
40
1
40
1
10
-9.9619505902487511
20
9.0256383287917608
30
0
10
-9.8207065281690422
20
8.8958692230750049
30
0
10
-9.6516242232986666
20
8.8673380718240846
30
0
0
SPLINE
5
197
100
AcDbEntity
8
0
100
AcDbSpline
70
0
71
2
72
6
73
3
74
0
42
0.000000001
43
0.0000000001
44
0.0000000001
40
0
40
0
40
0
40
1
40
1
40
1
10
-9.6516242232986666
20
8.8673380718240846
30
0
10
-9.4825420324767116
20
8.8388071959107748
30
0
10
-9.3350742367220079
20
8.89989027470053
30
0
0
SPLINE
5
198
100
AcDbEntity
8
0
100
AcDbSpline
70
0
71
2
72
6
73
3
74
0
42
0.000000001
43
0.0000000001
44
0.0000000001
40
0
40
0
40
0
40
1
40
1
40
1
10
-9.3350742367220079
20
8.89989027470053
30
0
10
-9.1195442225395897
20
8.9891656094981052
30
0
10
-9.0365606714190498
20
9.227317417775895
30
0
0
SPLINE
5
199
100
AcDbEntity
8
0
100
AcDbSpline
70
0
71
2
72
6
73
3
74
0
42
0.000000001
43
0.0000000001
44
0.0000000001
40
0
40
0
40
0
40
1
40
1
40
1
10
-9.0365606714190498
20
9.227317417775895
30
0
10
-8.9535769590093199
20
9.465469615439714
30
0
10
-9.077309343672372
20
9.764186418302307
30
0
0
SPLINE
5
200
100
AcDbEntity
8
0
100
AcDbSpline
70
0
71
2
72
6
73
3
74
0
42
0.000000001
43
0.0000000001
44
0.0000000001
40
0
40
0
40
0
40
1
40
1
40
1
10
-9.077309343672372
20
9.764186418302307
30
0
10
-9.1963431615558928
20
10.051559862267872
30
0
10
-9.4180057351165409
20
10.153555947783202
30
0
0
SPLINE
5
201
100
AcDbEntity
8
0
100
AcDbSpline
70
0
71
2
72
6
73
3
74
0
42
0.000000001
43
0.0000000001
44
0.0000000001
40
0
40
0
40
0
40
1
40
1
40
1
10
-9.4180057351165409
20
10.153555947783202
30
0
10
-9.6396680333395821
20
10.25555214734695
30
0
10
-9.8722134988773238
20
10.159228791315577
30
0
0
SPLINE
5
202
100
AcDbEntity
8
0
100
AcDbSpline
70
0
71
2
72
6
73
3
74
0
42
0.000000001
43
0.0000000001
44
0.0000000001
40
0
40
0
40
0
40
1
40
1
40
1
10
-9.8722134988773238
20
10.159228791315577
30
0
10
-10.102868358708918
20
10.063688548754627
30
0
10
-10.195047709056757
20
9.8316950569071455
30
0
0
SPLINE
5
203
100
AcDbEntity
8
0
100
AcDbSpline
70
0
71
2
72
6
73
3
74
0
42
0.000000001
43
0.0000000001
44
0.0000000001
40
0
40
0
40
0
40
1
40
1
40
1
10
-10.195047709056757
20
9.8316950569071455
30
0
10
-10.287227197073401
20
9.5997015080354569
30
0
10
-10.176024627951552
20
9.3312343964652342
30
0
0
LINE
5
204
100
AcDbEntity
8
0
100
AcDbLine
10
-0.88710772371206525
20
10.496091482405511
30
0
11
-1.2554570523491884
21
10.496091483146069
31
0
0
LINE
5
205
100
AcDbEntity
8
0
100
AcDbLine
10
-1.2554570523491884
20
10.496091483146069
30
0
11
-1.2554570476303131
21
12.843294827252743
31
0
0
SPLINE
5
206
100
AcDbEntity
8
0
100
AcDbSpline
70
0
71
2
72
6
73
3
74
0
42
0.000000001
43
0.0000000001
44
0.0000000001
40
0
40
0
40
0
40
1
40
1
40
1
10
-1.2554570476303133
20
12.843294827252743
30
0
10
-1.3884720397648509
20
12.716418890535149
30
0
10
-1.6043656513318378
20
12.589543102995792
30
0
0
SPLINE
5
207
100
AcDbEntity
8
0
100
AcDbSpline
70
0
71
2
72
6
73
3
74
0
42
0.000000001
43
0.0000000001
44
0.0000000001
40
0
40
0
40
0
40
1
40
1
40
1
10
-1.6043656513318378
20
12.589543102995792
30
0
10
-1.8202592628988246
20
12.462667166444826
30
0
10
-1.9921555567857077
20
12.399229347309522
30
0
0
LINE
5
208
100
AcDbEntity
8
0
100
AcDbLine
10
-1.9921555567857077
20
12.399229347309522
30
0
11
-1.9921555560698543
21
12.75530019362872
31
0
0
SPLINE
5
209
100
AcDbEntity
8
0
100
AcDbSpline
70
0
71
2
72
6
73
3
74
0
42
0.000000001
43
0.0000000001
44
0.0000000001
40
0
40
0
40
0
40
1
40
1
40
1
10
-1.9921555560698543
20
12.75530019362872
30
0
10
-1.6831514426996355
20
12.900593518193251
30
0
10
-1.4519100074715652
20
13.107278583951491
30
0
0
SPLINE
5
210
100
AcDbEntity
8
0
100
AcDbSpline
70
0
71
2
72
6
73
3
74
0
42
0.000000001
43
0.0000000001
44
0.0000000001
40
0
40
0
40
0
40
1
40
1
40
1
10
-1.4519100074715652
20
13.107278583951491
30
0
10
-1.2206684977376892
20
13.313963351686509
30
0
10
-1.1244884308805179
20
13.508369860892556
30
0
0
LINE
5
211
100
AcDbEntity
8
0
100
AcDbLine
10
-1.1244884308805179
20
13.508369860892556
30
0
11
-0.88710771765610696
21
13.508369860415307
31
0
0
LINE
5
212
100
AcDbEntity
8
0
100
AcDbLine
10
-0.88710771765610708
20
13.508369860415307
30
0
11
-0.88710772371206548
21
10.496091482405511
31
0
0
LINE
5
213
100
AcDbEntity
8
0
100
AcDbLine
10
1.9921554396125889
20
10.850115946469284
30
0
11
1.9921554389008493
21
10.496091476616837
31
0
0
LINE
5
214
100
AcDbEntity
8
0
100
AcDbLine
10
1.9921554389008493
20
10.496091476616837
30
0
11
0.0092085959919901983
21
10.496091480603493
31
0
0
SPLINE
5
215
100
AcDbEntity
8
0
100
AcDbSpline
70
0
71
2
72
6
73
3
74
0
42
0.000000001
43
0.0000000001
44
0.0000000001
40
0
40
0
40
0
40
1
40
1
40
1
10
0.0092085959919904758
20
10.496091480603493
30
0
10
0.0051158433259046454
20
10.62910639798538
30
0
10
0.052182800331250223
20
10.751889581942267
30
0
0
SPLINE
5
216
100
AcDbEntity
8
0
100
AcDbSpline
70
0
71
2
72
6
73
3
74
0
42
0.000000001
43
0.0000000001
44
0.0000000001
40
0
40
0
40
0
40
1
40
1
40
1
10
0.052182800331250223
20
10.751889581942267
30
0
10
0.12789887901994867
20
10.954481597056461
30
0
10
0.29467923200737101
20
11.150934631598929
30
0
0
SPLINE
5
217
100
AcDbEntity
8
0
100
AcDbSpline
70
0
71
2
72
6
73
3
74
0
42
0.000000001
43
0.0000000001
44
0.0000000001
40
0
40
0
40
0
40
1
40
1
40
1
10
0.29467923200737101
20
11.150934631598929
30
0
10
0.46145958499479278
20
11.347387368118175
30
0
10
0.77660305150895836
20
11.605231994388124
30
0
0
SPLINE
5
218
100
AcDbEntity
8
0
100
AcDbSpline
70
0
71
2
72
6
73
3
74
0
42
0.000000001
43
0.0000000001
44
0.0000000001
40
0
40
0
40
0
40
1
40
1
40
1
10
0.77660305150895836
20
11.605231994388124
30
0
10
1.26568896501979
20
12.006323420015777
30
0
10
1.4375851847443948
20
12.240634493688663
30
0
0
SPLINE
5
219
100
AcDbEntity
8
0
100
AcDbSpline
70
0
71
2
72
6
73
3
74
0
42
0.000000001
43
0.0000000001
44
0.0000000001
40
0
40
0
40
0
40
1
40
1
40
1
10
1.4375851847443948
20
12.240634493688663
30
0
10
1.6094814044689998
20
12.474945567361548
30
0
10
1.6094814048886379
20
12.683676861039832
30
0
0
SPLINE
5
220
100
AcDbEntity
8
0
100
AcDbSpline
70
0
71
2
72
6
73
3
74
0
42
0.000000001
43
0.0000000001
44
0.0000000001
40
0
40
0
40
0
40
1
40
1
40
1
10
1.6094814048886379
20
12.683676861039832
30
0
10
1.6094814053288471
20
12.902639888040259
30
0
10
1.4529330843841333
20
13.053049378225069
30
0
0
SPLINE
5
221
100
AcDbEntity
8
0
100
AcDbSpline
70
0
71
2
72
6
73
3
74
0
42
0.000000001
43
0.0000000001
44
0.0000000001
40
0
40
0
40
0
40
1
40
1
40
1
10
1.4529330843841333
20
13.053049378225069
30
0
10
1.2963847634394181
20
13.203458421375039
30
0
10
1.0446794149477494
20
13.203458421881084
30
0
0
SPLINE
5
222
100
AcDbEntity
8
0
100
AcDbSpline
70
0
71
2
72
6
73
3
74
0
42
0.000000001
43
0.0000000001
44
0.0000000001
40
0
40
0
40
0
40
1
40
1
40
1
10
1.0446794149477494
20
13.203458421881084
30
0
10
0.77864928217721119
20
13.203458422415931
30
0
10
0.61903132140327777
20
13.043840462283804
30
0
0
SPLINE
5
223
100
AcDbEntity
8
0
100
AcDbSpline
70
0
71
2
72
6
73
3
74
0
42
0.000000001
43
0.0000000001
44
0.0000000001
40
0
40
0
40
0
40
1
40
1
40
1
10
0.61903132140327777
20
13.043840462283804
30
0
10
0.45941336062934435
20
12.88422250215168
30
0
10
0.45736683458323546
20
12.601821357651247
30
0
0
LINE
5
224
100
AcDbEntity
8
0
100
AcDbLine
10
0.45736683458323546
20
12.601821357651247
30
0
11
0.078785847207942655
21
12.640702660292256
31
0
0
SPLINE
5
225
100
AcDbEntity
8
0
100
AcDbSpline
70
0
71
2
72
6
73
3
74
0
42
0.000000001
43
0.0000000001
44
0.0000000001
40
0
40
0
40
0
40
1
40
1
40
1
10
0.078785847207942517
20
12.640702660292256
30
0
10
0.11766714993944438
20
13.064304227959294
30
0
10
0.37141872633263295
20
13.286337191678717
30
0
0
SPLINE
5
226
100
AcDbEntity
8
0
100
AcDbSpline
70
0
71
2
72
6
73
3
74
0
42
0.000000001
43
0.0000000001
44
0.0000000001
40
0
40
0
40
0
40
1
40
1
40
1
10
0.37141872633263295
20
13.286337191678717
30
0
10
0.62517030272582041
20
13.508369857374918
30
0
10
1.0528649214277552
20
13.508369856515049
30
0
0
SPLINE
5
227
100
AcDbEntity
8
0
100
AcDbSpline
70
0
71
2
72
6
73
3
74
0
42
0.000000001
43
0.0000000001
44
0.0000000001
40
0
40
0
40
0
40
1
40
1
40
1
10
1.0528649214277552
20
13.508369856515049
30
0
10
1.4846519950399684
20
13.508369855646954
30
0
10
1.7363573430502872
20
13.268942765449745
30
0
0
SPLINE
5
228
100
AcDbEntity
8
0
100
AcDbSpline
70
0
71
2
72
6
73
3
74
0
42
0.000000001
43
0.0000000001
44
0.0000000001
40
0
40
0
40
0
40
1
40
1
40
1
10
1.7363573430502872
20
13.268942765449745
30
0
10
1.9880626910606058
20
13.029515675252537
30
0
10
1.9880626903488663
20
12.675491205400089
30
0
0
SPLINE
5
229
100
AcDbEntity
8
0
100
AcDbSpline
70
0
71
2
72
6
73
3
74
0
42
0.000000001
43
0.0000000001
44
0.0000000001
40
0
40
0
40
0
40
1
40
1
40
1
10
1.9880626903488663
20
12.675491205400089
30
0
10
1.9880626899868252
20
12.495409331267933
30
0
10
1.9143928388108633
20
12.321466735695752
30
0
0
SPLINE
5
230
100
AcDbEntity
8
0
100
AcDbSpline
70
0
71
2
72
6
73
3
74
0
42
0.000000001
43
0.0000000001
44
0.0000000001
40
0
40
0
40
0
40
1
40
1
40
1
10
1.9143928388108633
20
12.321466735695752
30
0
10
1.8407229876349014
20
12.147523991111962
30
0
10
1.6698498817222052
20
11.955163858522832
30
0
0
SPLINE
5
231
100
AcDbEntity
8
0
100
AcDbSpline
70
0
71
2
72
6
73
3
74
0
42
0.000000001
43
0.0000000001
44
0.0000000001
40
0
40
0
40
0
40
1
40
1
40
1
10
1.6698498817222052
20
11.955163858522832
30
0
10
1.4989767758095089
20
11.762803725933706
30
0
10
1.1019782504689635
20
11.427196496068559
30
0
0
SPLINE
5
232
100
AcDbEntity
8
0
100
AcDbSpline
70
0
71
2
72
6
73
3
74
0
42
0.000000001
43
0.0000000001
44
0.0000000001
40
0
40
0
40
0
40
1
40
1
40
1
10
1.1019782504689635
20
11.427196496068559
30
0
10
0.77046377217964868
20
11.14888840318724
30
0
10
0.67633015648633998
20
11.049638623198422
30
0
0
SPLINE
5
233
100
AcDbEntity
8
0
100
AcDbSpline
70
0
71
2
72
6
73
3
74
0
42
0.000000001
43
0.0000000001
44
0.0000000001
40
0
40
0
40
0
40
1
40
1
40
1
10
0.67633015648633998
20
11.049638623198422
30
0
10
0.58219624276980797
20
10.950388843209605
30
0
10
0.52080494856568349
20
10.850115949427392
30
0
0
LINE
5
234
100
AcDbEntity
8
0
100
AcDbLine
10
0.52080494856568349
20
10.850115949427392
30
0
11
1.9921554396125889
21
10.850115946469286
31
0
0
LINE
5
235
100
AcDbEntity
8
0
100
AcDbLine
10
8.4437388104434881
20
8.9966380454596777
30
0
11
8.1034267411465706
21
9.137595214125442
31
0
0
LINE
5
236
100
AcDbEntity
8
0
100
AcDbLine
10
8.1034267411465688
20
9.137595214125442
30
0
11
9.0016369769215494
21
11.306138944589414
31
0
0
SPLINE
5
237
100
AcDbEntity
8
0
100
AcDbSpline
70
0
71
2
72
6
73
3
74
0
42
0.000000001
43
0.0000000001
44
0.0000000001
40
0
40
0
40
0
40
1
40
1
40
1
10
9.0016369769215494
20
11.306138944589414
30
0
10
8.8301946121472685
20
11.23982147331278
30
0
10
8.5821820698742801
20
11.205219510496008
30
0
0
SPLINE
5
238
100
AcDbEntity
8
0
100
AcDbSpline
70
0
71
2
72
6
73
3
74
0
42
0.000000001
43
0.0000000001
44
0.0000000001
40
0
40
0
40
0
40
1
40
1
40
1
10
8.5821820698742801
20
11.205219510496008
30
0
10
8.3341694705786438
20
11.170617410009783
30
0
10
8.1510813159340749
20
11.177788209693698
30
0
0
LINE
5
239
100
AcDbEntity
8
0
100
AcDbLine
10
8.1510813159340749
20
11.177788209693698
30
0
11
8.2873398465926904
21
11.506756385086431
31
0
0
SPLINE
5
240
100
AcDbEntity
8
0
100
AcDbSpline
70
0
71
2
72
6
73
3
74
0
42
0.000000001
43
0.0000000001
44
0.0000000001
40
0
40
0
40
0
40
1
40
1
40
1
10
8.2873398465926904
20
11.506756385086433
30
0
10
8.6284235817811599
20
11.522743185697902
30
0
10
8.9211565515875719
20
11.625206477275018
30
0
0
SPLINE
5
241
100
AcDbEntity
8
0
100
AcDbSpline
70
0
71
2
72
6
73
3
74
0
42
0.000000001
43
0.0000000001
44
0.0000000001
40
0
40
0
40
0
40
1
40
1
40
1
10
8.9211565515875719
20
11.625206477275018
30
0
10
9.2138894761834109
20
11.72766946500191
30
0
10
9.3771427357272668
20
11.870473068998686
30
0
0
LINE
5
242
100
AcDbEntity
8
0
100
AcDbLine
10
9.3771427357272668
20
11.870473068998686
30
0
11
9.5964549902859311
21
11.779633991442131
31
0
0
LINE
5
243
100
AcDbEntity
8
0
100
AcDbLine
10
9.5964549902859311
20
11.779633991442131
30
0
11
8.4437388104434881
21
8.9966380454596777
31
0
0
SPLINE
5
244
100
AcDbEntity
8
0
100
AcDbSpline
70
0
71
2
72
6
73
3
74
0
42
0.000000001
43
0.0000000001
44
0.0000000001
40
0
40
0
40
0
40
1
40
1
40
1
10
10.461578486217324
20
9.9217586685735313
30
0
10
10.281935853576659
20
10.086980736852919
30
0
10
10.239357615327719
20
10.27295508039316
30
0
0
SPLINE
5
245
100
AcDbEntity
8
0
100
AcDbSpline
70
0
71
2
72
6
73
3
74
0
42
0.000000001
43
0.0000000001
44
0.0000000001
40
0
40
0
40
0
40
1
40
1
40
1
10
10.239357615327719
20
10.27295508039316
30
0
10
10.196779101739878
20
10.458929537978703
30
0
10
10.279787201635578
20
10.659335509138934
30
0
0
SPLINE
5
246
100
AcDbEntity
8
0
100
AcDbSpline
70
0
71
2
72
6
73
3
74
0
42
0.000000001
43
0.0000000001
44
0.0000000001
40
0
40
0
40
0
40
1
40
1
40
1
10
10.279787201635578
20
10.659335509138934
30
0
10
10.405082443533464
20
10.96183508045611
30
0
10
10.707861516597006
20
11.077857047514872
30
0
0
SPLINE
5
247
100
AcDbEntity
8
0
100
AcDbSpline
70
0
71
2
72
6
73
3
74
0
42
0.000000001
43
0.0000000001
44
0.0000000001
40
0
40
0
40
0
40
1
40
1
40
1
10
10.707861516597006
20
11.077857047514872
30
0
10
11.010640337945794
20
11.193878796257382
30
0
10
11.371748961079893
20
11.044307700518887
30
0
0
SPLINE
5
248
100
AcDbEntity
8
0
100
AcDbSpline
70
0
71
2
72
6
73
3
74
0
42
0.000000001
43
0.0000000001
44
0.0000000001
40
0
40
0
40
0
40
1
40
1
40
1
10
11.371748961079893
20
11.044307700518887
30
0
10
11.734748611798835
20
10.893953341657285
30
0
10
11.868636346228103
20
10.591526751878074
30
0
0
SPLINE
5
249
100
AcDbEntity
8
0
100
AcDbSpline
70
0
71
2
72
6
73
3
74
0
42
0.000000001
43
0.0000000001
44
0.0000000001
40
0
40
0
40
0
40
1
40
1
40
1
10
11.868636346228103
20
10.591526751878074
30
0
10
12.00252408065737
20
10.289100162098865
30
0
10
11.877228895782135
20
9.9866007284511404
30
0
0
SPLINE
5
250
100
AcDbEntity
8
0
100
AcDbSpline
70
0
71
2
72
6
73
3
74
0
42
0.000000001
43
0.0000000001
44
0.0000000001
40
0
40
0
40
0
40
1
40
1
40
1
10
11.877228895782135
20
9.9866007284511404
30
0
10
11.797353164103786
20
9.7937572155982107
30
0
10
11.637081015067421
20
9.6929110147575201
30
0
0
SPLINE
5
251
100
AcDbEntity
8
0
100
AcDbSpline
70
0
71
2
72
6
73
3
74
0
42
0.000000001
43
0.0000000001
44
0.0000000001
40
0
40
0
40
0
40
1
40
1
40
1
10
11.637081015067421
20
9.6929110147575201
30
0
10
11.476808809008405
20
9.5920646762473751
30
0
10
11.238624518889811
20
9.5999064083384873
30
0
0
SPLINE
5
252
100
AcDbEntity
8
0
100
AcDbSpline
70
0
71
2
72
6
73
3
74
0
42
0.000000001
43
0.0000000001
44
0.0000000001
40
0
40
0
40
0
40
1
40
1
40
1
10
11.238624518889811
20
9.5999064083384873
30
0
10
11.459401953604015
20
9.4110012413905988
30
0
10
11.515947456651091
20
9.1705121350467049
30
0
0
SPLINE
5
253
100
AcDbEntity
8
0
100
AcDbSpline
70
0
71
2
72
6
73
3
74
0
42
0.000000001
43
0.0000000001
44
0.0000000001
40
0
40
0
40
0
40
1
40
1
40
1
10
11.515947456651091
20
9.1705121350467049
30
0
10
11.572493453353317
20
8.9300226629427595
30
0
10
11.465992477782185
20
8.6728979791388525
30
0
0
SPLINE
5
254
100
AcDbEntity
8
0
100
AcDbSpline
70
0
71
2
72
6
73
3
74
0
42
0.000000001
43
0.0000000001
44
0.0000000001
40
0
40
0
40
0
40
1
40
1
40
1
10
11.465992477782185
20
8.6728979791388525
30
0
10
11.318770601340191
20
8.3174610620011062
30
0
10
10.967081109167012
20
8.1796131653965976
30
0
0
SPLINE
5
255
100
AcDbEntity
8
0
100
AcDbSpline
70
0
71
2
72
6
73
3
74
0
42
0.000000001
43
0.0000000001
44
0.0000000001
40
0
40
0
40
0
40
1
40
1
40
1
10
10.967081109167012
20
8.1796131653965976
30
0
10
10.615392281716938
20
8.0417653160403919
30
0
10
10.20512740425527
20
8.2116969192582232
30
0
0
SPLINE
5
256
100
AcDbEntity
8
0
100
AcDbSpline
70
0
71
2
72
6
73
3
74
0
42
0.000000001
43
0.0000000001
44
0.0000000001
40
0
40
0
40
0
40
1
40
1
40
1
10
10.20512740425527
20
8.2116969192582232
30
0
10
9.7948625267936009
20
8.3816285224760545
30
0
10
9.6440374434174796
20
8.728725227635886
30
0
0
SPLINE
5
257
100
AcDbEntity
8
0
100
AcDbSpline
70
0
71
2
72
6
73
3
74
0
42
0.000000001
43
0.0000000001
44
0.0000000001
40
0
40
0
40
0
40
1
40
1
40
1
10
9.6440374434174796
20
8.728725227635886
30
0
10
9.493212383665508
20
9.0758216004341659
30
0
10
9.6435667423701528
20
9.4388212512181173
30
0
0
SPLINE
5
258
100
AcDbEntity
8
0
100
AcDbSpline
70
0
71
2
72
6
73
3
74
0
42
0.000000001
43
0.0000000001
44
0.0000000001
40
0
40
0
40
0
40
1
40
1
40
1
10
9.6435667423701528
20
9.4388212512181173
30
0
10
9.7555493052989988
20
9.7091800993903536
30
0
10
9.9681880978282109
20
9.8348509273274409
30
0
0
SPLINE
5
259
100
AcDbEntity
8
0
100
AcDbSpline
70
0
71
2
72
6
73
3
74
0
42
0.000000001
43
0.0000000001
44
0.0000000001
40
0
40
0
40
0
40
1
40
1
40
1
10
9.9681880978282109
20
9.8348509273274409
30
0
10
10.180827108673673
20
9.9605215035497743
30
0
10
10.461578486217324
20
9.9217586685735313
30
0
0
SPLINE
5
260
100
AcDbEntity
8
0
100
AcDbSpline
70
0
71
2
72
6
73
3
74
0
42
0.000000001
43
0.0000000001
44
0.0000000001
40
0
40
0
40
0
40
1
40
1
40
1
10
10.632360407421848
20
10.526589768871633
30
0
10
10.550918491634821
20
10.329965026865048
30
0
10
10.625906052929825
20
10.152716461308097
30
0
0
SPLINE
5
261
100
AcDbEntity
8
0
100
AcDbSpline
70
0
71
2
72
6
73
3
74
0
42
0.000000001
43
0.0000000001
44
0.0000000001
40
0
40
0
40
0
40
1
40
1
40
1
10
10.625906052929825
20
10.152716461308097
30
0
10
10.700893063547024
20
9.9754681238417469
30
0
10
10.9031895115784
20
9.8916769888268892
30
0
0
SPLINE
5
262
100
AcDbEntity
8
0
100
AcDbSpline
70
0
71
2
72
6
73
3
74
0
42
0.000000001
43
0.0000000001
44
0.0000000001
40
0
40
0
40
0
40
1
40
1
40
1
10
10.9031895115784
20
9.8916769888268892
30
0
10
11.09981452888867
20
9.8102349589095468
30
0
10
11.276833666229189
20
9.8819950119570663
30
0
0
SPLINE
5
263
100
AcDbEntity
8
0
100
AcDbSpline
70
0
71
2
72
6
73
3
74
0
42
0.000000001
43
0.0000000001
44
0.0000000001
40
0
40
0
40
0
40
1
40
1
40
1
10
11.276833666229189
20
9.8819950119570663
30
0
10
11.453852746547057
20
9.9537549273351331
30
0
10
11.528246776822392
20
10.133364000480832
30
0
0
SPLINE
5
264
100
AcDbEntity
8
0
100
AcDbSpline
70
0
71
2
72
6
73
3
74
0
42
0.000000001
43
0.0000000001
44
0.0000000001
40
0
40
0
40
0
40
1
40
1
40
1
10
11.528246776822392
20
10.133364000480832
30
0
10
11.605773232337729
20
10.320535669603284
30
0
10
11.529124232890799
20
10.501794617115356
30
0
0
SPLINE
5
265
100
AcDbEntity
8
0
100
AcDbSpline
70
0
71
2
72
6
73
3
74
0
42
0.000000001
43
0.0000000001
44
0.0000000001
40
0
40
0
40
0
40
1
40
1
40
1
10
11.529124232890799
20
10.501794617115356
30
0
10
11.452475898166981
20
10.683053611875728
30
0
10
11.259632385348585
20
10.76292934363746
30
0
0
SPLINE
5
266
100
AcDbEntity
8
0
100
AcDbSpline
70
0
71
2
72
6
73
3
74
0
42
0.000000001
43
0.0000000001
44
0.0000000001
40
0
40
0
40
0
40
1
40
1
40
1
10
11.259632385348585
20
10.76292934363746
30
0
10
11.064898395623157
20
10.843588110431696
30
0
10
10.884651750067338
20
10.772057485524549
30
0
0
SPLINE
5
267
100
AcDbEntity
8
0
100
AcDbSpline
70
0
71
2
72
6
73
3
74
0
42
0.000000001
43
0.0000000001
44
0.0000000001
40
0
40
0
40
0
40
1
40
1
40
1
10
10.884651750067338
20
10.772057485524549
30
0
10
10.704405161534169
20
10.700526998286852
30
0
10
10.632360407421848
20
10.526589768871633
30
0
0
SPLINE
5
268
100
AcDbEntity
8
0
100
AcDbSpline
70
0
71
2
72
6
73
3
74
0
42
0.000000001
43
0.0000000001
44
0.0000000001
40
0
40
0
40
0
40
1
40
1
40
1
10
9.9925488043072459
20
9.292057841518977
30
0
10
9.9322505450552896
20
9.1464801060950425
30
0
10
9.9448754652677813
20
8.9817723033159957
30
0
0
SPLINE
5
269
100
AcDbEntity
8
0
100
AcDbSpline
70
0
71
2
72
6
73
3
74
0
42
0.000000001
43
0.0000000001
44
0.0000000001
40
0
40
0
40
0
40
1
40
1
40
1
10
9.9448754652677813
20
8.9817723033159957
30
0
10
9.9575002478108203
20
8.8170645575596005
30
0
10
10.062692769292735
20
8.6860020815395806
30
0
0
SPLINE
5
270
100
AcDbEntity
8
0
100
AcDbSpline
70
0
71
2
72
6
73
3
74
0
42
0.000000001
43
0.0000000001
44
0.0000000001
40
0
40
0
40
0
40
1
40
1
40
1
10
10.062692769292735
20
8.6860020815395806
30
0
10
10.167885290774645
20
8.5549396055195608
30
0
10
10.324806988970332
20
8.4899426798284274
30
0
0
SPLINE
5
271
100
AcDbEntity
8
0
100
AcDbSpline
70
0
71
2
72
6
73
3
74
0
42
0.000000001
43
0.0000000001
44
0.0000000001
40
0
40
0
40
0
40
1
40
1
40
1
10
10.324806988970332
20
8.4899426798284274
30
0
10
10.568697233023327
20
8.3889234055548556
30
0
10
10.792506333749332
20
8.4800651430550094
30
0
0
SPLINE
5
272
100
AcDbEntity
8
0
100
AcDbSpline
70
0
71
2
72
6
73
3
74
0
42
0.000000001
43
0.0000000001
44
0.0000000001
40
0
40
0
40
0
40
1
40
1
40
1
10
10.792506333749332
20
8.4800651430550094
30
0
10
11.016315434475336
20
8.5712068805551613
30
0
10
11.116551559566465
20
8.8132063724055598
30
0
0
SPLINE
5
273
100
AcDbEntity
8
0
100
AcDbSpline
70
0
71
2
72
6
73
3
74
0
42
0.000000001
43
0.0000000001
44
0.0000000001
40
0
40
0
40
0
40
1
40
1
40
1
10
11.116551559566465
20
8.8132063724055598
30
0
10
11.218353982811571
20
9.0589873687485127
30
0
10
11.121378449834314
20
9.2874279584761545
30
0
0
SPLINE
5
274
100
AcDbEntity
8
0
100
AcDbSpline
70
0
71
2
72
6
73
3
74
0
42
0.000000001
43
0.0000000001
44
0.0000000001
40
0
40
0
40
0
40
1
40
1
40
1
10
11.121378449834314
20
9.2874279584761545
30
0
10
11.024402309156599
20
9.5158686386249478
30
0
10
10.778621588196568
20
9.6176709479310247
30
0
0
SPLINE
5
275
100
AcDbEntity
8
0
100
AcDbSpline
70
0
71
2
72
6
73
3
74
0
42
0.000000001
43
0.0000000001
44
0.0000000001
40
0
40
0
40
0
40
1
40
1
40
1
10
10.778621588196568
20
9.6176709479310247
30
0
10
10.538512848635451
20
9.7171239240489875
30
0
10
10.314865675992372
20
9.6237003061705089
30
0
0
SPLINE
5
276
100
AcDbEntity
8
0
100
AcDbSpline
70
0
71
2
72
6
73
3
74
0
42
0.000000001
43
0.0000000001
44
0.0000000001
40
0
40
0
40
0
40
1
40
1
40
1
10
10.314865675992372
20
9.6237003061705089
30
0
10
10.091218859335001
20
9.5302763795546266
30
0
10
9.9925488043072459
20
9.292057841518977
30
0
0
LINE
5
277
100
AcDbEntity
8
0
100
AcDbLine
10
-5.3410640566407972
20
-1.4999996483915075
30
0
11
-5.3410640566407945
21
1.5000004708177821
31
0
0
LINE
5
278
100
AcDbEntity
8
0
100
AcDbLine
10
-5.3410640566407945
20
1.5000004708177821
30
0
11
-4.9440654202162531
21
1.5000004708177821
31
0
0
LINE
5
279
100
AcDbEntity
8
0
100
AcDbLine
10
-4.9440654202162522
20
1.5000004708177821
30
0
11
-4.9440654202162539
21
0.26807677143881492
31
0
0
LINE
5
280
100
AcDbEntity
8
0
100
AcDbLine
10
-4.9440654202162539
20
0.26807677143881492
30
0
11
-3.3847202940642154
21
0.26807677143881453
31
0
0
LINE
5
281
100
AcDbEntity
8
0
100
AcDbLine
10
-3.3847202940642154
20
0.26807677143881437
30
0
11
-3.3847202940642136
21
1.5000004708177817
31
0
0
LINE
5
282
100
AcDbEntity
8
0
100
AcDbLine
10
-3.3847202940642136
20
1.5000004708177819
30
0
11
-2.9877214713751572
21
1.5000004708177819
31
0
0
LINE
5
283
100
AcDbEntity
8
0
100
AcDbLine
10
-2.9877214713751572
20
1.5000004708177817
30
0
11
-2.9877214713751603
21
-1.4999996483915079
31
0
0
LINE
5
284
100
AcDbEntity
8
0
100
AcDbLine
10
-2.9877214713751603
20
-1.4999996483915075
30
0
11
-3.3847202940642167
21
-1.4999996483915075
31
0
0
LINE
5
285
100
AcDbEntity
8
0
100
AcDbLine
10
-3.3847202940642167
20
-1.4999996483915075
30
0
11
-3.3847202940642154
21
-0.085947996436856466
31
0
0
LINE
5
286
100
AcDbEntity
8
0
100
AcDbLine
10
-3.3847202940642154
20
-0.085947996436857022
30
0
11
-4.9440654202162539
21
-0.085947996436856633
31
0
0
LINE
5
287
100
AcDbEntity
8
0
100
AcDbLine
10
-4.9440654202162539
20
-0.085947996436856466
30
0
11
-4.9440654202162557
21
-1.4999996483915075
31
0
0
LINE
5
288
100
AcDbEntity
8
0
100
AcDbLine
10
-4.9440654202162557
20
-1.4999996483915075
30
0
11
-5.3410640566407963
21
-1.4999996483915075
31
0
0
SPLINE
5
289
100
AcDbEntity
8
0
100
AcDbSpline
70
0
71
2
72
6
73
3
74
0
42
0.000000001
43
0.0000000001
44
0.0000000001
40
0
40
0
40
0
40
1
40
1
40
1
10
-2.5109138174711982
20
-0.41336942320992831
30
0
10
-2.5109138174711978
20
0.19031416767904874
30
0
10
-2.1753065868078973
20
0.48090081805060025
30
0
0
SPLINE
5
290
100
AcDbEntity
8
0
100
AcDbSpline
70
0
71
2
72
6
73
3
74
0
42
0.000000001
43
0.0000000001
44
0.0000000001
40
0
40
0
40
0
40
1
40
1
40
1
10
-2.1753065868078973
20
0.48090081805060025
30
0
10
-1.8949519677817133
20
0.7223744332201254
30
0
10
-1.4918141647040155
20
0.7223744332201254
30
0
0
SPLINE
5
291
100
AcDbEntity
8
0
100
AcDbSpline
70
0
71
2
72
6
73
3
74
0
42
0.000000001
43
0.0000000001
44
0.0000000001
40
0
40
0
40
0
40
1
40
1
40
1
10
-1.4918141647040155
20
0.7223744332201254
30
0
10
-1.0436557813345697
20
0.72237443322012485
30
0
10
-0.75920840937488354
20
0.42871784561941684
30
0
0
SPLINE
5
292
100
AcDbEntity
8
0
100
AcDbSpline
70
0
71
2
72
6
73
3
74
0
42
0.000000001
43
0.0000000001
44
0.0000000001
40
0
40
0
40
0
40
1
40
1
40
1
10
-0.75920840937488354
20
0.42871784561941684
30
0
10
-0.47476103741519782
20
0.13506185406515658
30
0
10
-0.47476103741519837
20
-0.38267362719705045
30
0
0
SPLINE
5
293
100
AcDbEntity
8
0
100
AcDbSpline
70
0
71
2
72
6
73
3
74
0
42
0.000000001
43
0.0000000001
44
0.0000000001
40
0
40
0
40
0
40
1
40
1
40
1
10
-0.47476103741519837
20
-0.38267362719705045
30
0
10
-0.47476103741519893
20
-0.80218244200875699
30
0
10
-0.60061386067264522
20
-1.0426326454274886
30
0
0
SPLINE
5
294
100
AcDbEntity
8
0
100
AcDbSpline
70
0
71
2
72
6
73
3
74
0
42
0.000000001
43
0.0000000001
44
0.0000000001
40
0
40
0
40
0
40
1
40
1
40
1
10
-0.60061386067264522
20
-1.0426326454274886
30
0
10
-0.72646608788364431
20
-1.2830828488462203
30
0
10
-0.96691658932559987
20
-1.4160977662198775
30
0
0
SPLINE
5
295
100
AcDbEntity
8
0
100
AcDbSpline
70
0
71
2
72
6
73
3
74
0
42
0.000000001
43
0.0000000001
44
0.0000000001
40
0
40
0
40
0
40
1
40
1
40
1
10
-0.96691658932559987
20
-1.4160977662198775
30
0
10
-1.2073667927443315
20
-1.5491126835935347
30
0
10
-1.4918141647040177
20
-1.5491126835935347
30
0
0
SPLINE
5
296
100
AcDbEntity
8
0
100
AcDbSpline
70
0
71
2
72
6
73
3
74
0
42
0.000000001
43
0.0000000001
44
0.0000000001
40
0
40
0
40
0
40
1
40
1
40
1
10
-1.4918141647040177
20
-1.5491126835935347
30
0
10
-1.9481580539404679
20
-1.5491126835935347
30
0
10
-2.2295357866942216
20
-1.2564801037900679
30
0
0
SPLINE
5
297
100
AcDbEntity
8
0
100
AcDbSpline
70
0
71
2
72
6
73
3
74
0
42
0.000000001
43
0.0000000001
44
0.0000000001
40
0
40
0
40
0
40
1
40
1
40
1
10
-2.2295357866942216
20
-1.2564801037900679
30
0
10
-2.5109138174711987
20
-0.96384692794015292
30
0
10
-2.5109138174711982
20
-0.41336942320992831
30
0
0
SPLINE
5
298
100
AcDbEntity
8
0
100
AcDbSpline
70
0
71
2
72
6
73
3
74
0
42
0.000000001
43
0.0000000001
44
0.0000000001
40
0
40
0
40
0
40
1
40
1
40
1
10
-2.1323325319945137
20
-0.41336942320992831
30
0
10
-2.1323325319945141
20
-0.83083201056649569
30
0
10
-1.9502042813956066
20
-1.0385398924939859
30
0
0
SPLINE
5
299
100
AcDbEntity
8
0
100
AcDbSpline
70
0
71
2
72
6
73
3
74
0
42
0.000000001
43
0.0000000001
44
0.0000000001
40
0
40
0
40
0
40
1
40
1
40
1
10
-1.9502042813956066
20
-1.0385398924939859
30
0
10
-1.7680763288199235
20
-1.2462477744214766
30
0
10
-1.4918141647040177
20
-1.2462477744214766
30
0
0
SPLINE
5
300
100
AcDbEntity
8
0
100
AcDbSpline
70
0
71
2
72
6
73
3
74
0
42
0.000000001
43
0.0000000001
44
0.0000000001
40
0
40
0
40
0
40
1
40
1
40
1
10
-1.4918141647040177
20
-1.2462477744214766
30
0
10
-1.2175988240896989
20
-1.2462477744214766
30
0
10
-1.0354702754675671
20
-1.0375167787664168
30
0
0
SPLINE
5
301
100
AcDbEntity
8
0
100
AcDbSpline
70
0
71
2
72
6
73
3
74
0
42
0.000000001
43
0.0000000001
44
0.0000000001
40
0
40
0
40
0
40
1
40
1
40
1
10
-1.0354702754675671
20
-1.0375167787664168
30
0
10
-0.8533423228918835
20
-0.82878548508813321
30
0
10
-0.85334232289188294
20
-0.40109116440942227
30
0
0
SPLINE
5
302
100
AcDbEntity
8
0
100
AcDbSpline
70
0
71
2
72
6
73
3
74
0
42
0.000000001
43
0.0000000001
44
0.0000000001
40
0
40
0
40
0
40
1
40
1
40
1
10
-0.85334232289188294
20
-0.40109116440942227
30
0
10
-0.85334232289188239
20
0.002046936691499357
30
0
10
-1.0364936872183594
20
0.20975481861898959
30
0
0
SPLINE
5
303
100
AcDbEntity
8
0
100
AcDbSpline
70
0
71
2
72
6
73
3
74
0
42
0.000000001
43
0.0000000001
44
0.0000000001
40
0
40
0
40
0
40
1
40
1
40
1
10
-1.0364936872183594
20
0.20975481861898959
30
0
10
-1.2196450515448358
20
0.41746270054647983
30
0
10
-1.4918141647040155
20
0.41746270054648038
30
0
0
SPLINE
5
304
100
AcDbEntity
8
0
100
AcDbSpline
70
0
71
2
72
6
73
3
74
0
42
0.000000001
43
0.0000000001
44
0.0000000001
40
0
40
0
40
0
40
1
40
1
40
1
10
-1.4918141647040155
20
0.41746270054648038
30
0
10
-1.7680763288199213
20
0.41746270054648038
30
0
10
-1.9502042813956055
20
0.2107782303697836
30
0
0
SPLINE
5
305
100
AcDbEntity
8
0
100
AcDbSpline
70
0
71
2
72
6
73
3
74
0
42
0.000000001
43
0.0000000001
44
0.0000000001
40
0
40
0
40
0
40
1
40
1
40
1
10
-1.9502042813956055
20
0.2107782303697836
30
0
10
-2.1323325319945132
20
0.0040931641466390722
30
0
10
-2.1323325319945137
20
-0.41336942320992831
30
0
0
LINE
5
306
100
AcDbEntity
8
0
100
AcDbLine
10
1.381310613566703
20
-1.4999996483915083
30
0
11
1.3813106135667033
21
-1.1807637274854414
31
0
0
SPLINE
5
307
100
AcDbEntity
8
0
100
AcDbSpline
70
0
71
2
72
6
73
3
74
0
42
0.000000001
43
0.0000000001
44
0.0000000001
40
0
40
0
40
0
40
1
40
1
40
1
10
1.3813106135667041
20
-1.1807637274854414
30
0
10
1.1275581435502235
20
-1.5491126835935347
30
0
10
0.69167891305095597
20
-1.5491126835935347
30
0
0
SPLINE
5
308
100
AcDbEntity
8
0
100
AcDbSpline
70
0
71
2
72
6
73
3
74
0
42
0.000000001
43
0.0000000001
44
0.0000000001
40
0
40
0
40
0
40
1
40
1
40
1
10
0.69167891305095597
20
-1.5491126835935347
30
0
10
0.49931803506023331
20
-1.5491126835935347
30
0
10
0.3325382785142128
20
-1.4754431307904952
30
0
0
SPLINE
5
309
100
AcDbEntity
8
0
100
AcDbSpline
70
0
71
2
72
6
73
3
74
0
42
0.000000001
43
0.0000000001
44
0.0000000001
40
0
40
0
40
0
40
1
40
1
40
1
10
0.3325382785142128
20
-1.4754431307904952
30
0
10
0.16575732987529679
20
-1.4017729819410079
30
0
10
0.084925384932822978
20
-1.2902449429624312
30
0
0
SPLINE
5
310
100
AcDbEntity
8
0
100
AcDbSpline
70
0
71
2
72
6
73
3
74
0
42
0.000000001
43
0.0000000001
44
0.0000000001
40
0
40
0
40
0
40
1
40
1
40
1
10
0.084925384932822978
20
-1.2902449429624312
30
0
10
0.004093141967124736
20
-1.1787175000303023
30
0
10
-0.028648881500892287
20
-1.0170527160756819
30
0
0
SPLINE
5
311
100
AcDbEntity
8
0
100
AcDbSpline
70
0
71
2
72
6
73
3
74
0
42
0.000000001
43
0.0000000001
44
0.0000000001
40
0
40
0
40
0
40
1
40
1
40
1
10
-0.028648881500892287
20
-1.0170527160756819
30
0
10
-0.05115917164676631
20
-0.908594316303038
30
0
10
-0.05115917164676631
20
-0.67326027756860196
30
0
0
LINE
5
312
100
AcDbEntity
8
0
100
AcDbLine
10
-0.05115917164676631
20
-0.67326027756860196
30
0
11
-0.05115917164676477
21
0.67326080197165072
31
0
0
LINE
5
313
100
AcDbEntity
8
0
100
AcDbLine
10
-0.051159171646764645
20
0.67326080197165072
30
0
11
0.31719008248455249
21
0.67326080197165061
31
0
0
LINE
5
314
100
AcDbEntity
8
0
100
AcDbLine
10
0.31719008248455305
20
0.67326080197165072
30
0
11
0.31719008248455166
21
-0.53205955630471646
31
0
0
SPLINE
5
315
100
AcDbEntity
8
0
100
AcDbSpline
70
0
71
2
72
6
73
3
74
0
42
0.000000001
43
0.0000000001
44
0.0000000001
40
0
40
0
40
0
40
1
40
1
40
1
10
0.31719008248455083
20
-0.53205955630471646
30
0
10
0.31719008248455083
20
-0.82059997922112882
30
0
10
0.33970037263042485
20
-0.92087287312676847
30
0
0
SPLINE
5
316
100
AcDbEntity
8
0
100
AcDbSpline
70
0
71
2
72
6
73
3
74
0
42
0.000000001
43
0.0000000001
44
0.0000000001
40
0
40
0
40
0
40
1
40
1
40
1
10
0.33970037263042485
20
-0.92087287312676847
30
0
10
0.37448921960002934
20
-1.0661660493009322
30
0
10
0.48703947823650395
20
-1.1490445197217696
30
0
0
SPLINE
5
317
100
AcDbEntity
8
0
100
AcDbSpline
70
0
71
2
72
6
73
3
74
0
42
0.000000001
43
0.0000000001
44
0.0000000001
40
0
40
0
40
0
40
1
40
1
40
1
10
0.48703947823650395
20
-1.1490445197217696
30
0
10
0.59959092896587407
20
-1.231922990142607
30
0
10
0.76534786980754888
20
-1.231922990142607
30
0
0
SPLINE
5
318
100
AcDbEntity
8
0
100
AcDbSpline
70
0
71
2
72
6
73
3
74
0
42
0.000000001
43
0.0000000001
44
0.0000000001
40
0
40
0
40
0
40
1
40
1
40
1
10
0.76534786980754888
20
-1.231922990142607
30
0
10
0.93110600274211919
20
-1.231922990142607
30
0
10
1.0763982848466114
20
-1.1469982922666304
30
0
0
SPLINE
5
319
100
AcDbEntity
8
0
100
AcDbSpline
70
0
71
2
72
6
73
3
74
0
42
0.000000001
43
0.0000000001
44
0.0000000001
40
0
40
0
40
0
40
1
40
1
40
1
10
1.0763982848466114
20
-1.1469982922666304
30
0
10
1.2216917590439991
20
-1.0620735943906539
30
0
10
1.2820605353654102
20
-0.91575670844247337
30
0
0
SPLINE
5
320
100
AcDbEntity
8
0
100
AcDbSpline
70
0
71
2
72
6
73
3
74
0
42
0.000000001
43
0.0000000001
44
0.0000000001
40
0
40
0
40
0
40
1
40
1
40
1
10
1.2820605353654102
20
-0.91575670844247337
30
0
10
1.3424293116868213
20
-0.76944041854073997
30
0
10
1.3424293116868213
20
-0.49113202696969505
30
0
0
LINE
5
321
100
AcDbEntity
8
0
100
AcDbLine
10
1.3424293116868213
20
-0.49113202696969505
30
0
11
1.3424293116868227
21
0.67326080197165017
31
0
0
LINE
5
322
100
AcDbEntity
8
0
100
AcDbLine
10
1.3424293116868236
20
0.67326080197165017
30
0
11
1.7107776717484691
21
0.67326080197165006
31
0
0
LINE
5
323
100
AcDbEntity
8
0
100
AcDbLine
10
1.7107776717484691
20
0.67326080197165017
30
0
11
1.7107776717484666
21
-1.499999648391509
31
0
0
LINE
5
324
100
AcDbEntity
8
0
100
AcDbLine
10
1.7107776717484657
20
-1.4999996483915083
30
0
11
1.381310613566703
21
-1.4999996483915083
31
0
0
LINE
5
325
100
AcDbEntity
8
0
100
AcDbLine
10
2.2837654666245646
20
-1.4999996483915097
30
0
11
2.2837654666245668
21
0.67326080197164961
31
0
0
LINE
5
326
100
AcDbEntity
8
0
100
AcDbLine
10
2.2837654666245677
20
0.67326080197165017
30
0
11
2.6152805404008128
21
0.67326080197165006
31
0
0
LINE
5
327
100
AcDbEntity
8
0
100
AcDbLine
10
2.6152805404008128
20
0.67326080197165017
30
0
11
2.6152805404008124
21
0.34379314774343972
31
0
0
SPLINE
5
328
100
AcDbEntity
8
0
100
AcDbSpline
70
0
71
2
72
6
73
3
74
0
42
0.000000001
43
0.0000000001
44
0.0000000001
40
0
40
0
40
0
40
1
40
1
40
1
10
2.6152805404008115
20
0.34379314774343972
30
0
10
2.7421561793626048
20
0.57503443354437356
30
0
10
2.8495911673844554
20
0.64870428437063699
30
0
0
SPLINE
5
329
100
AcDbEntity
8
0
100
AcDbSpline
70
0
71
2
72
6
73
3
74
0
42
0.000000001
43
0.0000000001
44
0.0000000001
40
0
40
0
40
0
40
1
40
1
40
1
10
2.8495911673844554
20
0.64870428437063699
30
0
10
2.957026155406306
20
0.72237413519690041
30
0
10
3.0859486178696849
20
0.72237413519689986
30
0
0
SPLINE
5
330
100
AcDbEntity
8
0
100
AcDbSpline
70
0
71
2
72
6
73
3
74
0
42
0.000000001
43
0.0000000001
44
0.0000000001
40
0
40
0
40
0
40
1
40
1
40
1
10
3.0859486178696849
20
0.72237413519689986
30
0
10
3.2721702174485423
20
0.72237413519689986
30
0
10
3.4645299033463695
20
0.60368370407888838
30
0
0
LINE
5
331
100
AcDbEntity
8
0
100
AcDbLine
10
3.4645299033463695
20
0.60368370407888838
30
0
11
3.337654264384577
21
0.26193749302694747
31
0
0
SPLINE
5
332
100
AcDbEntity
8
0
100
AcDbSpline
70
0
71
2
72
6
73
3
74
0
42
0.000000001
43
0.0000000001
44
0.0000000001
40
0
40
0
40
0
40
1
40
1
40
1
10
3.3376542643845761
20
0.26193749302694747
30
0
10
3.202592523509332
20
0.34174662226507613
30
0
10
3.0675307826340878
20
0.34174662226507613
30
0
0
SPLINE
5
333
100
AcDbEntity
8
0
100
AcDbSpline
70
0
71
2
72
6
73
3
74
0
42
0.000000001
43
0.0000000001
44
0.0000000001
40
0
40
0
40
0
40
1
40
1
40
1
10
3.0675307826340878
20
0.34174662226507613
30
0
10
2.9467944220841611
20
0.34174662226507668
30
0
10
2.8506139830887998
20
0.26910018318960671
30
0
0
SPLINE
5
334
100
AcDbEntity
8
0
100
AcDbSpline
70
0
71
2
72
6
73
3
74
0
42
0.000000001
43
0.0000000001
44
0.0000000001
40
0
40
0
40
0
40
1
40
1
40
1
10
2.8506139830887998
20
0.26910018318960671
30
0
10
2.7544347361863339
20
0.19645344609091286
30
0
10
2.7135066108048642
20
0.067530983627533958
30
0
0
SPLINE
5
335
100
AcDbEntity
8
0
100
AcDbSpline
70
0
71
2
72
6
73
3
74
0
42
0.000000001
43
0.0000000001
44
0.0000000001
40
0
40
0
40
0
40
1
40
1
40
1
10
2.7135066108048642
20
0.067530983627533958
30
0
10
2.6521150187791074
20
-0.12892175322701926
30
0
10
2.6521150187791074
20
-0.36220956450631614
30
0
0
LINE
5
336
100
AcDbEntity
8
0
100
AcDbLine
10
2.6521150187791074
20
-0.36220956450631614
30
0
11
2.6521150187791065
21
-1.499999648391509
31
0
0
LINE
5
337
100
AcDbEntity
8
0
100
AcDbLine
10
2.6521150187791056
20
-1.4999996483915097
30
0
11
2.2837654666245646
21
-1.4999996483915097
31
0
0
LINE
5
338
100
AcDbEntity
8
0
100
AcDbLine
10
3.5361532286942676
20
-0.85129577523400835
30
0
11
3.9004103259385303
21
-0.79399693614175382
31
0
0
SPLINE
5
339
100
AcDbEntity
8
0
100
AcDbSpline
70
0
71
2
72
6
73
3
74
0
42
0.000000001
43
0.0000000001
44
0.0000000001
40
0
40
0
40
0
40
1
40
1
40
1
10
3.9004103259385303
20
-0.79399693614175371
30
0
10
3.931105525904961
20
-1.0129599631421811
30
0
10
4.0712837294877247
20
-1.1296038687818295
30
0
0
SPLINE
5
340
100
AcDbEntity
8
0
100
AcDbSpline
70
0
71
2
72
6
73
3
74
0
42
0.000000001
43
0.0000000001
44
0.0000000001
40
0
40
0
40
0
40
1
40
1
40
1
10
4.0712837294877247
20
-1.1296038687818295
30
0
10
4.2114607409775928
20
-1.2462477744214779
30
0
10
4.4631663874924854
20
-1.2462477744214779
30
0
0
SPLINE
5
341
100
AcDbEntity
8
0
100
AcDbSpline
70
0
71
2
72
6
73
3
74
0
42
0.000000001
43
0.0000000001
44
0.0000000001
40
0
40
0
40
0
40
1
40
1
40
1
10
4.4631663874924854
20
-1.2462477744214779
30
0
10
4.7169176654160694
20
-1.2462477744214779
30
0
10
4.8397008494675831
20
-1.1429052413099057
30
0
0
SPLINE
5
342
100
AcDbEntity
8
0
100
AcDbSpline
70
0
71
2
72
6
73
3
74
0
42
0.000000001
43
0.0000000001
44
0.0000000001
40
0
40
0
40
0
40
1
40
1
40
1
10
4.8397008494675831
20
-1.1429052413099057
30
0
10
4.9624840335190967
20
-1.0395630062215573
30
0
10
4.9624840335190967
20
-0.90040881043603471
30
0
0
SPLINE
5
343
100
AcDbEntity
8
0
100
AcDbSpline
70
0
71
2
72
6
73
3
74
0
42
0.000000001
43
0.0000000001
44
0.0000000001
40
0
40
0
40
0
40
1
40
1
40
1
10
4.9624840335190967
20
-0.90040881043603471
30
0
10
4.9624840335190967
20
-0.77557939892938188
30
0
10
4.8540250377000049
20
-0.70395607358148149
30
0
0
SPLINE
5
344
100
AcDbEntity
8
0
100
AcDbSpline
70
0
71
2
72
6
73
3
74
0
42
0.000000001
43
0.0000000001
44
0.0000000001
40
0
40
0
40
0
40
1
40
1
40
1
10
4.8540250377000049
20
-0.70395607358148149
30
0
10
4.7783092574418262
20
-0.65484274035623125
30
0
10
4.4774905757249073
20
-0.57912636405160478
30
0
0
SPLINE
5
345
100
AcDbEntity
8
0
100
AcDbSpline
70
0
71
2
72
6
73
3
74
0
42
0.000000001
43
0.0000000001
44
0.0000000001
40
0
40
0
40
0
40
1
40
1
40
1
10
4.4774905757249073
20
-0.57912636405160478
30
0
10
4.0723065451920704
20
-0.47680724269082597
30
0
10
3.9157573298752988
20
-0.40211427813699296
30
0
0
SPLINE
5
346
100
AcDbEntity
8
0
100
AcDbSpline
70
0
71
2
72
6
73
3
74
0
42
0.000000001
43
0.0000000001
44
0.0000000001
40
0
40
0
40
0
40
1
40
1
40
1
10
3.9157573298752988
20
-0.40211427813699296
30
0
10
3.7592093066514218
20
-0.32742131358315996
30
0
10
3.6783770636857236
20
-0.19542921191384843
30
0
0
SPLINE
5
347
100
AcDbEntity
8
0
100
AcDbSpline
70
0
71
2
72
6
73
3
74
0
42
0.000000001
43
0.0000000001
44
0.0000000001
40
0
40
0
40
0
40
1
40
1
40
1
10
3.6783770636857236
20
-0.19542921191384843
30
0
10
3.5975448207200253
20
-0.063437706290984663
30
0
10
3.5975448207200253
20
0.096180552185272661
30
0
0
SPLINE
5
348
100
AcDbEntity
8
0
100
AcDbSpline
70
0
71
2
72
6
73
3
74
0
42
0.000000001
43
0.0000000001
44
0.0000000001
40
0
40
0
40
0
40
1
40
1
40
1
10
3.5975448207200253
20
0.096180552185272661
30
0
10
3.5975448207200253
20
0.24147402638266036
30
0
10
3.6640528754533017
20
0.36528002613851973
30
0
0
SPLINE
5
349
100
AcDbEntity
8
0
100
AcDbSpline
70
0
71
2
72
6
73
3
74
0
42
0.000000001
43
0.0000000001
44
0.0000000001
40
0
40
0
40
0
40
1
40
1
40
1
10
3.6640528754533017
20
0.36528002613851973
30
0
10
3.7305597380936826
20
0.48908632391760298
30
0
10
3.8451580123246409
20
0.57094168061087081
30
0
0
SPLINE
5
350
100
AcDbEntity
8
0
100
AcDbSpline
70
0
71
2
72
6
73
3
74
0
42
0.000000001
43
0.0000000001
44
0.0000000001
40
0
40
0
40
0
40
1
40
1
40
1
10
3.8451580123246409
20
0.57094168061087081
30
0
10
3.9311055259049632
20
0.6343795000917668
30
0
10
4.0794686393082831
20
0.67837696665594527
30
0
0
SPLINE
5
351
100
AcDbEntity
8
0
100
AcDbSpline
70
0
71
2
72
6
73
3
74
0
42
0.000000001
43
0.0000000001
44
0.0000000001
40
0
40
0
40
0
40
1
40
1
40
1
10
4.0794686393082831
20
0.67837696665594527
30
0
10
4.2278317527116034
20
0.72237443322012374
30
0
10
4.397682340556452
20
0.72237443322012374
30
0
0
SPLINE
5
352
100
AcDbEntity
8
0
100
AcDbSpline
70
0
71
2
72
6
73
3
74
0
42
0.000000001
43
0.0000000001
44
0.0000000001
40
0
40
0
40
0
40
1
40
1
40
1
10
4.397682340556452
20
0.72237443322012374
30
0
10
4.6534804419816229
20
0.72237443322012374
30
0
10
4.8468629435837958
20
0.64870428437063643
30
0
0
SPLINE
5
353
100
AcDbEntity
8
0
100
AcDbSpline
70
0
71
2
72
6
73
3
74
0
42
0.000000001
43
0.0000000001
44
0.0000000001
40
0
40
0
40
0
40
1
40
1
40
1
10
4.8468629435837958
20
0.64870428437063643
30
0
10
5.0402466372788641
20
0.57503473156759688
30
0
10
5.1323334292710507
20
0.44918190831015059
30
0
0
SPLINE
5
354
100
AcDbEntity
8
0
100
AcDbSpline
70
0
71
2
72
6
73
3
74
0
42
0.000000001
43
0.0000000001
44
0.0000000001
40
0
40
0
40
0
40
1
40
1
40
1
10
5.1323334292710507
20
0.44918190831015059
30
0
10
5.2244214133561337
20
0.3233290850527043
30
0
10
5.2592102603257382
20
0.11255156391928145
30
0
0
LINE
5
355
100
AcDbEntity
8
0
100
AcDbLine
10
5.2592102603257382
20
0.11255156391928145
30
0
11
4.8990456179917539
21
0.063438528717255166
31
0
0
SPLINE
5
356
100
AcDbEntity
8
0
100
AcDbSpline
70
0
71
2
72
6
73
3
74
0
42
0.000000001
43
0.0000000001
44
0.0000000001
40
0
40
0
40
0
40
1
40
1
40
1
10
4.8990456179917539
20
0.063438528717255083
30
0
10
4.8744896964371884
20
0.23124169701406905
30
0
10
4.7568217830002988
20
0.32537561053106734
30
0
0
SPLINE
5
357
100
AcDbEntity
8
0
100
AcDbSpline
70
0
71
2
72
6
73
3
74
0
42
0.000000001
43
0.0000000001
44
0.0000000001
40
0
40
0
40
0
40
1
40
1
40
1
10
4.7568217830002988
20
0.32537561053106734
30
0
10
4.6391550616563046
20
0.41950952404806563
30
0
10
4.4242850856126035
20
0.41950952404806563
30
0
0
SPLINE
5
358
100
AcDbEntity
8
0
100
AcDbSpline
70
0
71
2
72
6
73
3
74
0
42
0.000000001
43
0.0000000001
44
0.0000000001
40
0
40
0
40
0
40
1
40
1
40
1
10
4.4242850856126035
20
0.41950952404806563
30
0
10
4.170532615596124
20
0.41950952404806563
30
0
10
4.0620748118699277
20
0.33560764187643477
30
0
0
SPLINE
5
359
100
AcDbEntity
8
0
100
AcDbSpline
70
0
71
2
72
6
73
3
74
0
42
0.000000001
43
0.0000000001
44
0.0000000001
40
0
40
0
40
0
40
1
40
1
40
1
10
4.0620748118699277
20
0.33560764187643477
30
0
10
3.9536158160508359
20
0.25170575970480391
30
0
10
3.9536158160508359
20
0.13915460699865767
30
0
0
SPLINE
5
360
100
AcDbEntity
8
0
100
AcDbSpline
70
0
71
2
72
6
73
3
74
0
42
0.000000001
43
0.0000000001
44
0.0000000001
40
0
40
0
40
0
40
1
40
1
40
1
10
3.9536158160508359
20
0.13915460699865767
30
0
10
3.9536158160508359
20
0.067530983627533403
30
0
10
3.9986363963425839
20
0.010232442558502641
30
0
0
SPLINE
5
361
100
AcDbEntity
8
0
100
AcDbSpline
70
0
71
2
72
6
73
3
74
0
42
0.000000001
43
0.0000000001
44
0.0000000001
40
0
40
0
40
0
40
1
40
1
40
1
10
3.9986363963425839
20
0.010232442558502641
30
0
10
4.043656976634332
20
-0.049112922012115034
30
0
10
4.1398374156296933
20
-0.087994223891997847
30
0
0
SPLINE
5
362
100
AcDbEntity
8
0
100
AcDbSpline
70
0
71
2
72
6
73
3
74
0
42
0.000000001
43
0.0000000001
44
0.0000000001
40
0
40
0
40
0
40
1
40
1
40
1
10
4.1398374156296933
20
-0.087994223891997847
30
0
10
4.1950897292435849
20
-0.10845798855950883
30
0
10
4.4652120189011777
20
-0.18212783938577226
30
0
0
SPLINE
5
363
100
AcDbEntity
8
0
100
AcDbSpline
70
0
71
2
72
6
73
3
74
0
42
0.000000001
43
0.0000000001
44
0.0000000001
40
0
40
0
40
0
40
1
40
1
40
1
10
4.4652120189011777
20
-0.18212783938577226
30
0
10
4.8560718612015927
20
-0.28649348622491411
30
0
10
5.0105742530167783
20
-0.35300094491174272
30
0
0
SPLINE
5
364
100
AcDbEntity
8
0
100
AcDbSpline
70
0
71
2
72
6
73
3
74
0
42
0.000000001
43
0.0000000001
44
0.0000000001
40
0
40
0
40
0
40
1
40
1
40
1
10
5.0105742530167783
20
-0.35300094491174272
30
0
10
5.1650754527390683
20
-0.41950870162179521
30
0
10
5.253070981913873
20
-0.5463843405835872
30
0
0
SPLINE
5
365
100
AcDbEntity
8
0
100
AcDbSpline
70
0
71
2
72
6
73
3
74
0
42
0.000000001
43
0.0000000001
44
0.0000000001
40
0
40
0
40
0
40
1
40
1
40
1
10
5.253070981913873
20
-0.5463843405835872
30
0
10
5.3410653189957822
20
-0.67326027756860363
30
0
10
5.3410653189957822
20
-0.86152780657937633
30
0
0
SPLINE
5
366
100
AcDbEntity
8
0
100
AcDbSpline
70
0
71
2
72
6
73
3
74
0
42
0.000000001
43
0.0000000001
44
0.0000000001
40
0
40
0
40
0
40
1
40
1
40
1
10
5.3410653189957822
20
-0.86152780657937633
30
0
10
5.3410653189957804
20
-1.045702284633423
30
0
10
5.2336303309739298
20
-1.2083898842923886
30
0
0
SPLINE
5
367
100
AcDbEntity
8
0
100
AcDbSpline
70
0
71
2
72
6
73
3
74
0
42
0.000000001
43
0.0000000001
44
0.0000000001
40
0
40
0
40
0
40
1
40
1
40
1
10
5.2336303309739298
20
-1.2083898842923886
30
0
10
5.1261941508591846
20
-1.3710771859281308
30
0
10
4.923602731639213
20
-1.4600949347608334
30
0
0
SPLINE
5
368
100
AcDbEntity
8
0
100
AcDbSpline
70
0
71
2
72
6
73
3
74
0
42
0.000000001
43
0.0000000001
44
0.0000000001
40
0
40
0
40
0
40
1
40
1
40
1
10
4.923602731639213
20
-1.4600949347608334
30
0
10
4.7210101203263468
20
-1.549112683593536
30
0
10
4.4652120189011759
20
-1.549112683593536
30
0
0
SPLINE
5
369
100
AcDbEntity
8
0
100
AcDbSpline
70
0
71
2
72
6
73
3
74
0
42
0.000000001
43
0.0000000001
44
0.0000000001
40
0
40
0
40
0
40
1
40
1
40
1
10
4.4652120189011759
20
-1.549112683593536
30
0
10
4.0416101531327433
20
-1.549112683593536
30
0
10
3.8195780829728321
20
-1.3731240094297177
30
0
0
SPLINE
5
370
100
AcDbEntity
8
0
100
AcDbSpline
70
0
71
2
72
6
73
3
74
0
42
0.000000001
43
0.0000000001
44
0.0000000001
40
0
40
0
40
0
40
1
40
1
40
1
10
3.8195780829728321
20
-1.3731240094297177
30
0
10
3.5975448207200245
20
-1.1971347392194516
30
0
10
3.5361532286942676
20
-0.85129577523400835
30
0
0
SPLINE
5
371
100
AcDbEntity
8
0
100
AcDbSpline
70
0
71
2
72
6
73
3
74
0
42
0.000000001
43
0.0000000001
44
0.0000000001
40
0
40
0
40
0
40
1
40
1
40
1
10
-18.885702892755095
20
3.7477412300288888
30
0
10
-19.261926149253441
20
4.1239643955900736
30
0
10
-19.4138624668783
20
4.4307310043664998
30
0
0
SPLINE
5
372
100
AcDbEntity
8
0
100
AcDbSpline
70
0
71
2
72
6
73
3
74
0
42
0.000000001
43
0.0000000001
44
0.0000000001
40
0
40
0
40
0
40
1
40
1
40
1
10
-19.4138624668783
20
4.4307310043664998
30
0
10
-19.565798784503162
20
4.7374976131429261
30
0
10
-19.537582214140169
20
5.0146006331641324
30
0
0
SPLINE
5
373
100
AcDbEntity
8
0
100
AcDbSpline
70
0
71
2
72
6
73
3
74
0
42
0.000000001
43
0.0000000001
44
0.0000000001
40
0
40
0
40
0
40
1
40
1
40
1
10
-19.537582214140169
20
5.0146006331641324
30
0
10
-19.509365459384686
20
5.2917034161093381
30
0
10
-19.277843470817587
20
5.523225460630508
30
0
0
SPLINE
5
374
100
AcDbEntity
8
0
100
AcDbSpline
70
0
71
2
72
6
73
3
74
0
42
0.000000001
43
0.0000000001
44
0.0000000001
40
0
40
0
40
0
40
1
40
1
40
1
10
-19.277843470817587
20
5.523225460630508
30
0
10
-19.107095966053777
20
5.6939730066604568
30
0
10
-18.909578771713548
20
5.7540240710220054
30
0
0
SPLINE
5
375
100
AcDbEntity
8
0
100
AcDbSpline
70
0
71
2
72
6
73
3
74
0
42
0.000000001
43
0.0000000001
44
0.0000000001
40
0
40
0
40
0
40
1
40
1
40
1
10
-18.909578771713548
20
5.7540240710220054
30
0
10
-18.712061577373323
20
5.8140751353835558
30
0
10
-18.498627296826118
20
5.7684942928164684
30
0
0
SPLINE
5
376
100
AcDbEntity
8
0
100
AcDbSpline
70
0
71
2
72
6
73
3
74
0
42
0.000000001
43
0.0000000001
44
0.0000000001
40
0
40
0
40
0
40
1
40
1
40
1
10
-18.498627296826118
20
5.7684942928164684
30
0
10
-18.285192910911803
20
5.7229135556165156
30
0
10
-18.051500314967623
20
5.584723655999575
30
0
0
SPLINE
5
377
100
AcDbEntity
8
0
100
AcDbSpline
70
0
71
2
72
6
73
3
74
0
42
0.000000001
43
0.0000000001
44
0.0000000001
40
0
40
0
40
0
40
1
40
1
40
1
10
-18.051500314967623
20
5.584723655999575
30
0
10
-17.817807824390599
20
5.4465340724839866
30
0
10
-17.502359066384429
20
5.1310853907251328
30
0
0
SPLINE
5
378
100
AcDbEntity
8
0
100
AcDbSpline
70
0
71
2
72
6
73
3
74
0
42
0.000000001
43
0.0000000001
44
0.0000000001
40
0
40
0
40
0
40
1
40
1
40
1
10
-17.502359066384429
20
5.1310853907251328
30
0
10
-17.129029612854573
20
4.7577560274329747
30
0
10
-16.976369897346025
20
4.4517130274493351
30
0
0
SPLINE
5
379
100
AcDbEntity
8
0
100
AcDbSpline
70
0
71
2
72
6
73
3
74
0
42
0.000000001
43
0.0000000001
44
0.0000000001
40
0
40
0
40
0
40
1
40
1
40
1
10
-16.976369897346025
20
4.4517130274493351
30
0
10
-16.823709971103206
20
4.1456698167314787
30
0
10
-16.851203064382297
20
3.8678433724847991
30
0
0
SPLINE
5
380
100
AcDbEntity
8
0
100
AcDbSpline
70
0
71
2
72
6
73
3
74
0
42
0.000000001
43
0.0000000001
44
0.0000000001
40
0
40
0
40
0
40
1
40
1
40
1
10
-16.851203064382297
20
3.8678433724847991
30
0
10
-16.878696368395662
20
3.5900171389723368
30
0
10
-17.111665468831511
20
3.3570479822326771
30
0
0
SPLINE
5
381
100
AcDbEntity
8
0
100
AcDbSpline
70
0
71
2
72
6
73
3
74
0
42
0.000000001
43
0.0000000001
44
0.0000000001
40
0
40
0
40
0
40
1
40
1
40
1
10
-17.111665468831511
20
3.3570479822326771
30
0
10
-17.418432058901892
20
3.0502813180231589
30
0
10
-17.813466414833719
20
3.0951386353060895
30
0
0
SPLINE
5
382
100
AcDbEntity
8
0
100
AcDbSpline
70
0
71
2
72
6
73
3
74
0
42
0.000000001
43
0.0000000001
44
0.0000000001
40
0
40
0
40
0
40
1
40
1
40
1
10
-17.813466414833719
20
3.0951386353060895
30
0
10
-18.288086428957332
20
3.1501249106813756
30
0
10
-18.885702892755095
20
3.7477412300288888
30
0
0
SPLINE
5
383
100
AcDbEntity
8
0
100
AcDbSpline
70
0
71
2
72
6
73
3
74
0
42
0.000000001
43
0.0000000001
44
0.0000000001
40
0
40
0
40
0
40
1
40
1
40
1
10
-18.618005609937999
20
4.0154385775428771
30
0
10
-18.095633923880467
20
3.4930670177481304
30
0
10
-17.800443396713387
20
3.4424216090098083
30
0
0
SPLINE
5
384
100
AcDbEntity
8
0
100
AcDbSpline
70
0
71
2
72
6
73
3
74
0
42
0.000000001
43
0.0000000001
44
0.0000000001
40
0
40
0
40
0
40
1
40
1
40
1
10
-17.800443396713387
20
3.4424216090098083
30
0
10
-17.505252869546311
20
3.3917762002714857
30
0
10
-17.325823325772635
20
3.5712057874095708
30
0
0
SPLINE
5
385
100
AcDbEntity
8
0
100
AcDbSpline
70
0
71
2
72
6
73
3
74
0
42
0.000000001
43
0.0000000001
44
0.0000000001
40
0
40
0
40
0
40
1
40
1
40
1
10
-17.325823325772635
20
3.5712057874095708
30
0
10
-17.14639378199896
20
3.7506353745476555
30
0
10
-17.197762607459154
20
4.046549445403743
30
0
0
SPLINE
5
386
100
AcDbEntity
8
0
100
AcDbSpline
70
0
71
2
72
6
73
3
74
0
42
0.000000001
43
0.0000000001
44
0.0000000001
40
0
40
0
40
0
40
1
40
1
40
1
10
-17.197762607459154
20
4.046549445403743
30
0
10
-17.249131538286456
20
4.3424634108926963
30
0
10
-17.770056322859745
20
4.8633880695529283
30
0
0
SPLINE
5
387
100
AcDbEntity
8
0
100
AcDbSpline
70
0
71
2
72
6
73
3
74
0
42
0.000000001
43
0.0000000001
44
0.0000000001
40
0
40
0
40
0
40
1
40
1
40
1
10
-17.770056322859745
20
4.8633880695529283
30
0
10
-18.293874910401524
20
5.3872065304821879
30
0
10
-18.588341986826478
20
5.4371284886532534
30
0
0
SPLINE
5
388
100
AcDbEntity
8
0
100
AcDbSpline
70
0
71
2
72
6
73
3
74
0
42
0.000000001
43
0.0000000001
44
0.0000000001
40
0
40
0
40
0
40
1
40
1
40
1
10
-18.588341986826478
20
5.4371284886532534
30
0
10
-18.882809168618543
20
5.4870503414571861
30
0
10
-19.065132725395507
20
5.3047267406163892
30
0
0
SPLINE
5
389
100
AcDbEntity
8
0
100
AcDbSpline
70
0
71
2
72
6
73
3
74
0
42
0.000000001
43
0.0000000001
44
0.0000000001
40
0
40
0
40
0
40
1
40
1
40
1
10
-19.065132725395507
20
5.3047267406163892
30
0
10
-19.244562269169187
20
5.1252971534783045
30
0
10
-19.199704714794606
20
4.8662818047693746
30
0
0
SPLINE
5
390
100
AcDbEntity
8
0
100
AcDbSpline
70
0
71
2
72
6
73
3
74
0
42
0.000000001
43
0.0000000001
44
0.0000000001
40
0
40
0
40
0
40
1
40
1
40
1
10
-19.199704714794606
20
4.8662818047693746
30
0
10
-19.140377190628403
20
4.5378100319705146
30
0
10
-18.618005609937999
20
4.0154385775428771
30
0
0
ENDSEC
0
SECTION
2
OBJECTS
0
DICTIONARY
5
C
100
AcDbDictionary
3
ACAD_GROUP
350
D
3
ACAD_MLINESTYLE
350
17
0
DICTIONARY
5
D
100
AcDbDictionary
0
DICTIONARY
5
1A
330
C
100
AcDbDictionary
0
DICTIONARY
5
17
100
AcDbDictionary
0
ENDSEC
0
EOF
