0
SECTION
2
HEADER
9
$INSUNITS
70
4
9
$ACADVER
1
AC1014
9
$HANDSEED
5
FFFF
0
ENDSEC
0
SECTION
2
TABLES
0
TABLE
2
VPORT
5
8
100
AcDbSymbolTable
0
ENDTAB
0
TABLE
2
LTYPE
5
5
100
AcDbSymbolTable
0
LTYPE
5
14
100
AcDbSymbolTableRecord
100
AcDbLinetypeTableRecord
2
BYBLOCK
70
0
0
LTYPE
5
15
100
AcDbSymbolTableRecord
100
AcDbLinetypeTableRecord
2
BYLAYER
70
0
0
ENDTAB
0
TABLE
2
LAYER
5
2
100
AcDbSymbolTable
70
2
0
LAYER
5
50
100
AcDbSymbolTableRecord
100
AcDbLayerTableRecord
2
0
70
0
6
CONTINUOUS
0
ENDTAB
0
TABLE
2
STYLE
5
3
100
AcDbSymbolTable
70
1
0
STYLE
5
11
100
AcDbSymbolTableRecord
100
AcDbTextStyleTableRecord
2
STANDARD
70
0
0
ENDTAB
0
TABLE
2
VIEW
5
6
100
AcDbSymbolTable
70
0
0
ENDTAB
0
TABLE
2
UCS
5
7
100
AcDbSymbolTable
70
0
0
ENDTAB
0
TABLE
2
APPID
5
9
100
AcDbSymbolTable
70
2
0
APPID
5
12
100
AcDbSymbolTableRecord
100
AcDbRegAppTableRecord
2
ACAD
70
0
0
ENDTAB
0
TABLE
2
DIMSTYLE
5
A
100
AcDbSymbolTable
70
1
0
ENDTAB
0
TABLE
2
BLOCK_RECORD
5
1
100
AcDbSymbolTable
70
1
0
BLOCK_RECORD
5
1F
100
AcDbSymbolTableRecord
100
AcDbBlockTableRecord
2
*MODEL_SPACE
0
BLOCK_RECORD
5
1B
100
AcDbSymbolTableRecord
100
AcDbBlockTableRecord
2
*PAPER_SPACE
0
ENDTAB
0
ENDSEC
0
SECTION
2
BLOCKS
0
BLOCK
5
20
100
AcDbEntity
100
AcDbBlockBegin
2
*MODEL_SPACE
0
ENDBLK
5
21
100
AcDbEntity
100
AcDbBlockEnd
0
BLOCK
5
1C
100
AcDbEntity
100
AcDbBlockBegin
2
*PAPER_SPACE
0
ENDBLK
5
1D
100
AcDbEntity
100
AcDbBlockEnd
0
ENDSEC
0
SECTION
2
ENTITIES
0
LINE
5
100
100
AcDbEntity
8
0
100
AcDbLine
10
0
20
0
30
0
11
0
21
9.9960915998322371
31
0
0
ARC
5
101
100
AcDbEntity
8
0
100
AcDbCircle
10
1.3376550527746799e-16
20
-13.75461739870104
30
0
40
20.049225994794952
210
0
220
-0
230
1
100
AcDbArc
50
44.999999999999964
51
135.00000000000006
0
LINE
5
102
100
AcDbEntity
8
0
100
AcDbLine
10
1.3376550527746799e-16
20
-13.75461739870104
30
0
11
-16.794287390838985
21
3.0396699921249186
31
0
0
LINE
5
103
100
AcDbEntity
8
0
100
AcDbLine
10
1.3376550527746799e-16
20
-13.75461739870104
30
0
11
16.794287390838985
21
3.0396699921509169
31
0
0
LINE
5
104
100
AcDbEntity
8
0
100
AcDbLine
10
1.3376550527746799e-16
20
-13.75461739870104
30
0
11
0
21
9.9960915998322406
31
0
0
LINE
5
105
100
AcDbEntity
8
0
100
AcDbLine
10
1.3376550527746799e-16
20
-13.75461739870104
30
0
11
9.089002840666689
21
8.1881765276740239
31
0
0
LINE
5
106
100
AcDbEntity
8
0
100
AcDbLine
10
1.3376550527746799e-16
20
-13.75461739870104
30
0
11
2.9043782505521332
21
-16.658995649253164
31
0
0
LINE
5
107
100
AcDbEntity
8
0
100
AcDbLine
10
1.3376550527746799e-16
20
-13.75461739870104
30
0
11
-9.0890028406595729
21
8.1881765276769727
31
0
0
CIRCLE
5
108
100
AcDbEntity
8
0
100
AcDbCircle
10
1.3376550527746799e-16
20
-13.75461739870104
30
0
40
23.750708998533277
210
0
220
0
230
1
0
ARC
5
109
100
AcDbEntity
8
0
100
AcDbCircle
10
1.3376550527746799e-16
20
-13.75461739870104
30
0
40
22.149225994794946
210
0
220
-0
230
1
100
AcDbArc
50
44.999999999999964
51
135.00000000000003
0
LINE
5
110
100
AcDbEntity
8
0
100
AcDbLine
10
14.17694365846112
20
0.42232625976006621
30
0
11
16.794287390838985
21
3.0396699921509169
31
0
0
LINE
5
111
100
AcDbEntity
8
0
100
AcDbLine
10
7.6725066199550298
20
4.7684521405832205
30
0
11
9.089002840666689
21
8.1881765276740239
31
0
0
LINE
5
112
100
AcDbEntity
8
0
100
AcDbLine
10
-2.2306218500933743e-15
20
6.2946085960939113
30
0
11
0
21
9.9960915998322371
31
0
0
LINE
5
113
100
AcDbEntity
8
0
100
AcDbLine
10
-7.6725066199550316
20
4.7684521405832223
30
0
11
-9.0890028406595729
21
8.1881765276769727
31
0
0
LINE
5
114
100
AcDbEntity
8
0
100
AcDbLine
10
-14.176943658461123
20
0.42232625976006682
30
0
11
-16.794287390838985
21
3.0396699921249186
31
0
0
CIRCLE
5
115
100
AcDbEntity
8
0
100
AcDbCircle
10
-15.011265439413322
20
-6.2742499149508131
30
0
40
1.0989005738618061
210
0
220
0
230
1
0
CIRCLE
5
116
100
AcDbEntity
8
0
100
AcDbCircle
10
15.011265439413322
20
-6.2742499149508131
30
0
40
1.0989005738618061
210
0
220
0
230
1
0
LINE
5
117
100
AcDbEntity
8
0
100
AcDbLine
10
1.3376550527746799e-16
20
-13.75461739870104
30
0
11
-11.07461299739748
21
5.4271749869540384
31
0
0
LINE
5
118
100
AcDbEntity
8
0
100
AcDbLine
10
1.3376550527746799e-16
20
-13.75461739870104
30
0
11
11.07461299739748
21
5.4271749869540411
31
0
0
LINE
5
119
100
AcDbEntity
8
0
100
AcDbLine
10
-10.024612997396957
20
3.6085216390074821
30
0
11
-11.07461299739748
21
5.4271749869540384
31
0
0
LINE
5
120
100
AcDbEntity
8
0
100
AcDbLine
10
10.024612997395488
20
3.608521639008333
30
0
11
11.07461299739748
21
5.4271749869540411
31
0
0
LINE
5
121
100
AcDbEntity
8
0
100
AcDbLine
10
1.3376550527746799e-16
20
-13.75461739870104
30
0
11
13.48359446803668
21
3.8175450291438997
31
0
0
LINE
5
122
100
AcDbEntity
8
0
100
AcDbLine
10
1.3376550527746799e-16
20
-13.75461739870104
30
0
11
-13.48359446803668
21
3.8175450291438979
31
0
0
LINE
5
123
100
AcDbEntity
8
0
100
AcDbLine
10
12.205195467111093
20
2.1515030145229956
30
0
11
13.48359446803668
21
3.8175450291438997
31
0
0
LINE
5
124
100
AcDbEntity
8
0
100
AcDbLine
10
-12.205195467105439
20
2.1515030145273482
30
0
11
-13.48359446803668
21
3.8175450291438979
31
0
0
LINE
5
125
100
AcDbEntity
8
0
100
AcDbLine
10
1.3376550527746799e-16
20
-13.75461739870104
30
0
11
5.7326415217322388
21
7.6398920219826412
31
0
0
LINE
5
126
100
AcDbEntity
8
0
100
AcDbLine
10
1.3376550527746799e-16
20
-13.75461739870104
30
0
11
2.8910541297216459
21
8.2051188972431603
31
0
0
LINE
5
127
100
AcDbEntity
8
0
100
AcDbLine
10
1.3376550527746799e-16
20
-13.75461739870104
30
0
11
-5.7326415217322388
21
7.6398920219826412
31
0
0
LINE
5
128
100
AcDbEntity
8
0
100
AcDbLine
10
1.3376550527746799e-16
20
-13.75461739870104
30
0
11
-2.8910541297216463
21
8.2051188972431603
31
0
0
LINE
5
129
100
AcDbEntity
8
0
100
AcDbLine
10
-5.1891215270174644
20
5.6114477867775383
30
0
11
-5.7326415217322388
21
7.6398920219826412
31
0
0
LINE
5
130
100
AcDbEntity
8
0
100
AcDbLine
10
-2.6169491260598643
20
6.12308468836064
30
0
11
-2.8910541297216463
21
8.2051188972431603
31
0
0
LINE
5
131
100
AcDbEntity
8
0
100
AcDbLine
10
2.6169491260598643
20
6.1230846883606329
30
0
11
2.8910541297216459
21
8.2051188972431603
31
0
0
LINE
5
132
100
AcDbEntity
8
0
100
AcDbLine
10
5.1891215270174653
20
5.6114477867775392
30
0
11
5.7326415217322388
21
7.6398920219826412
31
0
0
CIRCLE
5
133
100
AcDbEntity
8
0
100
AcDbCircle
10
6.9778710559164832e-17
20
-1.9132340089888178
30
0
40
21.749999999999993
210
0
220
0
230
1
0
LWPOLYLINE
5
134
100
AcDbEntity
8
0
100
AcDbPolyline
90
4
70
1
43
0.0
10
-17.616249493033923
20
2.2177076912892963
10
-15.972325288646692
20
3.8616322929789897
10
-18.447199321926192
20
6.3365057280551316
10
-20.091123526294883
20
4.6925811263338151
0
LWPOLYLINE
5
135
100
AcDbEntity
8
0
100
AcDbPolyline
90
4
70
1
43
0.0
10
-10.686727679358912
20
7.526378122300982
10
-7.4912780025924324
20
8.8499749345792278
10
-8.8306684791078833
20
12.083553936704249
10
-12.026118155242163
20
10.759957122899744
0
LWPOLYLINE
5
136
100
AcDbEntity
8
0
100
AcDbPolyline
90
4
70
1
43
0.0
10
-1.6930478312283934
20
9.9960916032361951
10
1.6930478312283936
20
9.9960915964285473
10
1.6930478382648795
20
13.496091596427473
10
-1.6930478241919049
20
13.496091603236202
0
LWPOLYLINE
5
137
100
AcDbEntity
8
0
100
AcDbPolyline
90
4
70
1
43
0.0
10
7.6216816331209536
20
8.795940582798579
10
10.556324048845829
20
7.58041247407869
10
11.895677895027244
20
10.814006648724837
10
8.9610354786757558
20
12.029534755912701
0
LWPOLYLINE
5
138
100
AcDbEntity
8
0
100
AcDbPolyline
90
4
70
1
43
0.0
10
15.870333945581647
20
3.9636222844621729
10
17.718240836114681
20
2.115717699848465
10
20.193113026116805
20
4.5905929781573693
10
18.345206135594619
20
6.4384975627547592
0
LWPOLYLINE
5
139
100
AcDbEntity
8
0
100
AcDbPolyline
90
4
70
1
43
0.0
10
-4.5284044950067353
20
-3.1456182538873874
10
4.5284044950067317
20
-3.1456182538873896
10
4.5284044950067388
20
3.14561825388739
10
-4.5284044950067388
20
3.1456182538873909
0
SPLINE
5
140
100
AcDbEntity
8
0
100
AcDbSpline
70
0
71
2
72
6
73
3
74
0
42
0.000000001
43
0.0000000001
44
0.0000000001
40
0
40
0
40
0
40
1
40
1
40
1
10
-18.885702892755095
20
3.7477412300288888
30
0
10
-19.261926149253441
20
4.1239643955900736
30
0
10
-19.4138624668783
20
4.4307310043664998
30
0
0
SPLINE
5
141
100
AcDbEntity
8
0
100
AcDbSpline
70
0
71
2
72
6
73
3
74
0
42
0.000000001
43
0.0000000001
44
0.0000000001
40
0
40
0
40
0
40
1
40
1
40
1
10
-19.4138624668783
20
4.4307310043664998
30
0
10
-19.565798784503162
20
4.7374976131429261
30
0
10
-19.537582214140169
20
5.0146006331641324
30
0
0
SPLINE
5
142
100
AcDbEntity
8
0
100
AcDbSpline
70
0
71
2
72
6
73
3
74
0
42
0.000000001
43
0.0000000001
44
0.0000000001
40
0
40
0
40
0
40
1
40
1
40
1
10
-19.537582214140169
20
5.0146006331641324
30
0
10
-19.509365459384686
20
5.2917034161093381
30
0
10
-19.277843470817587
20
5.523225460630508
30
0
0
SPLINE
5
143
100
AcDbEntity
8
0
100
AcDbSpline
70
0
71
2
72
6
73
3
74
0
42
0.000000001
43
0.0000000001
44
0.0000000001
40
0
40
0
40
0
40
1
40
1
40
1
10
-19.277843470817587
20
5.523225460630508
30
0
10
-19.107095966053777
20
5.6939730066604568
30
0
10
-18.909578771713548
20
5.7540240710220054
30
0
0
SPLINE
5
144
100
AcDbEntity
8
0
100
AcDbSpline
70
0
71
2
72
6
73
3
74
0
42
0.000000001
43
0.0000000001
44
0.0000000001
40
0
40
0
40
0
40
1
40
1
40
1
10
-18.909578771713548
20
5.7540240710220054
30
0
10
-18.712061577373323
20
5.8140751353835558
30
0
10
-18.498627296826118
20
5.7684942928164684
30
0
0
SPLINE
5
145
100
AcDbEntity
8
0
100
AcDbSpline
70
0
71
2
72
6
73
3
74
0
42
0.000000001
43
0.0000000001
44
0.0000000001
40
0
40
0
40
0
40
1
40
1
40
1
10
-18.498627296826118
20
5.7684942928164684
30
0
10
-18.285192910911803
20
5.7229135556165156
30
0
10
-18.051500314967623
20
5.584723655999575
30
0
0
SPLINE
5
146
100
AcDbEntity
8
0
100
AcDbSpline
70
0
71
2
72
6
73
3
74
0
42
0.000000001
43
0.0000000001
44
0.0000000001
40
0
40
0
40
0
40
1
40
1
40
1
10
-18.051500314967623
20
5.584723655999575
30
0
10
-17.817807824390599
20
5.4465340724839866
30
0
10
-17.502359066384429
20
5.1310853907251328
30
0
0
SPLINE
5
147
100
AcDbEntity
8
0
100
AcDbSpline
70
0
71
2
72
6
73
3
74
0
42
0.000000001
43
0.0000000001
44
0.0000000001
40
0
40
0
40
0
40
1
40
1
40
1
10
-17.502359066384429
20
5.1310853907251328
30
0
10
-17.129029612854573
20
4.7577560274329747
30
0
10
-16.976369897346025
20
4.4517130274493351
30
0
0
SPLINE
5
148
100
AcDbEntity
8
0
100
AcDbSpline
70
0
71
2
72
6
73
3
74
0
42
0.000000001
43
0.0000000001
44
0.0000000001
40
0
40
0
40
0
40
1
40
1
40
1
10
-16.976369897346025
20
4.4517130274493351
30
0
10
-16.823709971103206
20
4.1456698167314787
30
0
10
-16.851203064382297
20
3.8678433724847991
30
0
0
SPLINE
5
149
100
AcDbEntity
8
0
100
AcDbSpline
70
0
71
2
72
6
73
3
74
0
42
0.000000001
43
0.0000000001
44
0.0000000001
40
0
40
0
40
0
40
1
40
1
40
1
10
-16.851203064382297
20
3.8678433724847991
30
0
10
-16.878696368395662
20
3.5900171389723368
30
0
10
-17.111665468831511
20
3.3570479822326771
30
0
0
SPLINE
5
150
100
AcDbEntity
8
0
100
AcDbSpline
70
0
71
2
72
6
73
3
74
0
42
0.000000001
43
0.0000000001
44
0.0000000001
40
0
40
0
40
0
40
1
40
1
40
1
10
-17.111665468831511
20
3.3570479822326771
30
0
10
-17.418432058901892
20
3.0502813180231589
30
0
10
-17.813466414833719
20
3.0951386353060895
30
0
0
SPLINE
5
151
100
AcDbEntity
8
0
100
AcDbSpline
70
0
71
2
72
6
73
3
74
0
42
0.000000001
43
0.0000000001
44
0.0000000001
40
0
40
0
40
0
40
1
40
1
40
1
10
-17.813466414833719
20
3.0951386353060895
30
0
10
-18.288086428957332
20
3.1501249106813756
30
0
10
-18.885702892755095
20
3.7477412300288888
30
0
0
SPLINE
5
152
100
AcDbEntity
8
0
100
AcDbSpline
70
0
71
2
72
6
73
3
74
0
42
0.000000001
43
0.0000000001
44
0.0000000001
40
0
40
0
40
0
40
1
40
1
40
1
10
-18.618005609937999
20
4.0154385775428771
30
0
10
-18.095633923880467
20
3.4930670177481304
30
0
10
-17.800443396713387
20
3.4424216090098083
30
0
0
SPLINE
5
153
100
AcDbEntity
8
0
100
AcDbSpline
70
0
71
2
72
6
73
3
74
0
42
0.000000001
43
0.0000000001
44
0.0000000001
40
0
40
0
40
0
40
1
40
1
40
1
10
-17.800443396713387
20
3.4424216090098083
30
0
10
-17.505252869546311
20
3.3917762002714857
30
0
10
-17.325823325772635
20
3.5712057874095708
30
0
0
SPLINE
5
154
100
AcDbEntity
8
0
100
AcDbSpline
70
0
71
2
72
6
73
3
74
0
42
0.000000001
43
0.0000000001
44
0.0000000001
40
0
40
0
40
0
40
1
40
1
40
1
10
-17.325823325772635
20
3.5712057874095708
30
0
10
-17.14639378199896
20
3.7506353745476555
30
0
10
-17.197762607459154
20
4.046549445403743
30
0
0
SPLINE
5
155
100
AcDbEntity
8
0
100
AcDbSpline
70
0
71
2
72
6
73
3
74
0
42
0.000000001
43
0.0000000001
44
0.0000000001
40
0
40
0
40
0
40
1
40
1
40
1
10
-17.197762607459154
20
4.046549445403743
30
0
10
-17.249131538286456
20
4.3424634108926963
30
0
10
-17.770056322859745
20
4.8633880695529283
30
0
0
SPLINE
5
156
100
AcDbEntity
8
0
100
AcDbSpline
70
0
71
2
72
6
73
3
74
0
42
0.000000001
43
0.0000000001
44
0.0000000001
40
0
40
0
40
0
40
1
40
1
40
1
10
-17.770056322859745
20
4.8633880695529283
30
0
10
-18.293874910401524
20
5.3872065304821879
30
0
10
-18.588341986826478
20
5.4371284886532534
30
0
0
SPLINE
5
157
100
AcDbEntity
8
0
100
AcDbSpline
70
0
71
2
72
6
73
3
74
0
42
0.000000001
43
0.0000000001
44
0.0000000001
40
0
40
0
40
0
40
1
40
1
40
1
10
-18.588341986826478
20
5.4371284886532534
30
0
10
-18.882809168618543
20
5.4870503414571861
30
0
10
-19.065132725395507
20
5.3047267406163892
30
0
0
SPLINE
5
158
100
AcDbEntity
8
0
100
AcDbSpline
70
0
71
2
72
6
73
3
74
0
42
0.000000001
43
0.0000000001
44
0.0000000001
40
0
40
0
40
0
40
1
40
1
40
1
10
-19.065132725395507
20
5.3047267406163892
30
0
10
-19.244562269169187
20
5.1252971534783045
30
0
10
-19.199704714794606
20
4.8662818047693746
30
0
0
SPLINE
5
159
100
AcDbEntity
8
0
100
AcDbSpline
70
0
71
2
72
6
73
3
74
0
42
0.000000001
43
0.0000000001
44
0.0000000001
40
0
40
0
40
0
40
1
40
1
40
1
10
-19.199704714794606
20
4.8662818047693746
30
0
10
-19.140377190628403
20
4.5378100319705146
30
0
10
-18.618005609937999
20
4.0154385775428771
30
0
0
LINE
5
160
100
AcDbEntity
8
0
100
AcDbLine
10
-10.12450306121244
20
8.3004547369669002
30
0
11
-10.46481353384139
21
8.1594937135367385
31
0
0
LINE
5
161
100
AcDbEntity
8
0
100
AcDbLine
10
-10.464813533841394
20
8.1594937135367385
30
0
11
-11.363048335000762
21
10.328027268862028
31
0
0
SPLINE
5
162
100
AcDbEntity
8
0
100
AcDbSpline
70
0
71
2
72
6
73
3
74
0
42
0.000000001
43
0.0000000001
44
0.0000000001
40
0
40
0
40
0
40
1
40
1
40
1
10
-11.363048335000762
20
10.328027268862028
30
0
10
-11.437384924422151
20
10.15990658926671
30
0
10
-11.588291446138722
20
9.9600698092275834
30
0
0
SPLINE
5
163
100
AcDbEntity
8
0
100
AcDbSpline
70
0
71
2
72
6
73
3
74
0
42
0.000000001
43
0.0000000001
44
0.0000000001
40
0
40
0
40
0
40
1
40
1
40
1
10
-11.588291446138722
20
9.9600698092275834
30
0
10
-11.739197910831088
20
9.7602328915196495
30
0
10
-11.873732835021787
20
9.6358421888474854
30
0
0
LINE
5
164
100
AcDbEntity
8
0
100
AcDbLine
10
-11.873732835021787
20
9.6358421888474854
30
0
11
-12.00999509225025
21
9.9648088206712533
31
0
0
SPLINE
5
165
100
AcDbEntity
8
0
100
AcDbSpline
70
0
71
2
72
6
73
3
74
0
42
0.000000001
43
0.0000000001
44
0.0000000001
40
0
40
0
40
0
40
1
40
1
40
1
10
-12.00999509225025
20
9.9648088206712533
30
0
10
-11.780113744998102
20
10.217292995195869
30
0
10
-11.645569333963945
20
10.496737299463534
30
0
0
SPLINE
5
166
100
AcDbEntity
8
0
100
AcDbSpline
70
0
71
2
72
6
73
3
74
0
42
0.000000001
43
0.0000000001
44
0.0000000001
40
0
40
0
40
0
40
1
40
1
40
1
10
-11.645569333963945
20
10.496737299463534
30
0
10
-11.511024740046967
20
10.776181356905694
30
0
10
-11.496561992582972
20
10.992596062968525
30
0
0
LINE
5
167
100
AcDbEntity
8
0
100
AcDbLine
10
-11.496561992582972
20
10.992596062968525
30
0
11
-11.27725076698826
21
11.083437624706944
31
0
0
LINE
5
168
100
AcDbEntity
8
0
100
AcDbLine
10
-11.27725076698826
20
11.083437624706944
30
0
11
-10.12450306121244
21
8.3004547369669002
31
0
0
LINE
5
169
100
AcDbEntity
8
0
100
AcDbLine
10
-9.55364721647992
20
9.3874670921672756
30
0
11
-9.2088510392024432
21
9.5657258566357086
31
0
0
SPLINE
5
170
100
AcDbEntity
8
0
100
AcDbSpline
70
0
71
2
72
6
73
3
74
0
42
0.000000001
43
0.0000000001
44
0.0000000001
40
0
40
0
40
0
40
1
40
1
40
1
10
-9.2088510392024432
20
9.5657258566357086
30
0
10
-9.0610780664679975
20
9.3212666077916495
30
0
10
-8.8620197192892967
20
9.2497775471404236
30
0
0
SPLINE
5
171
100
AcDbEntity
8
0
100
AcDbSpline
70
0
71
2
72
6
73
3
74
0
42
0.000000001
43
0.0000000001
44
0.0000000001
40
0
40
0
40
0
40
1
40
1
40
1
10
-8.8620197192892967
20
9.2497775471404236
30
0
10
-8.6629609827245648
20
9.1782883252000058
30
0
10
-8.4587750157854469
20
9.262864808102421
30
0
0
SPLINE
5
172
100
AcDbEntity
8
0
100
AcDbSpline
70
0
71
2
72
6
73
3
74
0
42
0.000000001
43
0.0000000001
44
0.0000000001
40
0
40
0
40
0
40
1
40
1
40
1
10
-8.4587750157854469
20
9.262864808102421
30
0
10
-8.2129951726358676
20
9.3646700154509581
30
0
10
-8.1195855707425224
20
9.6204306410643738
30
0
0
SPLINE
5
173
100
AcDbEntity
8
0
100
AcDbSpline
70
0
71
2
72
6
73
3
74
0
42
0.000000001
43
0.0000000001
44
0.0000000001
40
0
40
0
40
0
40
1
40
1
40
1
10
-8.1195855707425224
20
9.6204306410643738
30
0
10
-8.0261755794631462
20
9.876191105388596
30
0
10
-8.1530404180114981
20
10.182470331074283
30
0
0
SPLINE
5
174
100
AcDbEntity
8
0
100
AcDbSpline
70
0
71
2
72
6
73
3
74
0
42
0.000000001
43
0.0000000001
44
0.0000000001
40
0
40
0
40
0
40
1
40
1
40
1
10
-8.1530404180114981
20
10.182470331074283
30
0
10
-8.273640462837669
20
10.473624986451393
30
0
10
-8.5068757223292053
20
10.57415006783299
30
0
0
SPLINE
5
175
100
AcDbEntity
8
0
100
AcDbSpline
70
0
71
2
72
6
73
3
74
0
42
0.000000001
43
0.0000000001
44
0.0000000001
40
0
40
0
40
0
40
1
40
1
40
1
10
-8.5068757223292053
20
10.57415006783299
30
0
10
-8.7401112571583557
20
10.674675035166166
30
0
10
-9.0047971573694063
20
10.565038693113406
30
0
0
SPLINE
5
176
100
AcDbEntity
8
0
100
AcDbSpline
70
0
71
2
72
6
73
3
74
0
42
0.000000001
43
0.0000000001
44
0.0000000001
40
0
40
0
40
0
40
1
40
1
40
1
10
-9.0047971573694063
20
10.565038693113406
30
0
10
-9.1692805421482397
20
10.496907536065645
30
0
10
-9.2706903675758969
20
10.367410095489216
30
0
0
SPLINE
5
177
100
AcDbEntity
8
0
100
AcDbSpline
70
0
71
2
72
6
73
3
74
0
42
0.000000001
43
0.0000000001
44
0.0000000001
40
0
40
0
40
0
40
1
40
1
40
1
10
-9.2706903675758969
20
10.367410095489216
30
0
10
-9.3721002500277635
20
10.237912792581589
30
0
10
-9.3983883768209395
20
10.087479429577364
30
0
0
LINE
5
178
100
AcDbEntity
8
0
100
AcDbLine
10
-9.3983883768209395
20
10.087479429577364
30
0
11
-9.7351305335724252
21
9.9967262030539707
31
0
0
LINE
5
179
100
AcDbEntity
8
0
100
AcDbLine
10
-9.735130533572427
20
9.9967262030539707
30
0
11
-10.05635026087373
21
11.531560650584542
31
0
0
LINE
5
180
100
AcDbEntity
8
0
100
AcDbLine
10
-10.05635026087373
20
11.531560650584545
30
0
11
-8.6780933320090146
21
12.102452594466362
31
0
0
LINE
5
181
100
AcDbEntity
8
0
100
AcDbLine
10
-8.6780933320090128
20
12.102452594466362
30
0
11
-8.5433972446989905
21
11.777267036385336
31
0
0
LINE
5
182
100
AcDbEntity
8
0
100
AcDbLine
10
-8.5433972446989905
20
11.777267036385336
30
0
11
-9.6494058505280673
21
11.319143888437964
31
0
0
LINE
5
183
100
AcDbEntity
8
0
100
AcDbLine
10
-9.6494058505280673
20
11.319143888437964
30
0
11
-9.4902164274229985
21
10.512375962365256
31
0
0
SPLINE
5
184
100
AcDbEntity
8
0
100
AcDbSpline
70
0
71
2
72
6
73
3
74
0
42
0.000000001
43
0.0000000001
44
0.0000000001
40
0
40
0
40
0
40
1
40
1
40
1
10
-9.4902164274229985
20
10.512375962365256
30
0
10
-9.3127021543682975
20
10.789683947598597
30
0
10
-9.0385633632953173
20
10.903235799979253
30
0
0
SPLINE
5
185
100
AcDbEntity
8
0
100
AcDbSpline
70
0
71
2
72
6
73
3
74
0
42
0.000000001
43
0.0000000001
44
0.0000000001
40
0
40
0
40
0
40
1
40
1
40
1
10
-9.0385633632953173
20
10.903235799979253
30
0
10
-8.6755654156893911
20
11.053594270590795
30
0
10
-8.3218498132475958
20
10.905514044661913
30
0
0
SPLINE
5
186
100
AcDbEntity
8
0
100
AcDbSpline
70
0
71
2
72
6
73
3
74
0
42
0.000000001
43
0.0000000001
44
0.0000000001
40
0
40
0
40
0
40
1
40
1
40
1
10
-8.3218498132475958
20
10.905514044661913
30
0
10
-7.9681345431676203
20
10.757433842353414
30
0
10
-7.8044631433701461
20
10.362295597821172
30
0
0
SPLINE
5
187
100
AcDbEntity
8
0
100
AcDbSpline
70
0
71
2
72
6
73
3
74
0
42
0.000000001
43
0.0000000001
44
0.0000000001
40
0
40
0
40
0
40
1
40
1
40
1
10
-7.8044631433701461
20
10.362295597821172
30
0
10
-7.6486229353101347
20
9.9860635480154656
30
0
10
-7.7543821707244254
20
9.6210832522825189
30
0
0
SPLINE
5
188
100
AcDbEntity
8
0
100
AcDbSpline
70
0
71
2
72
6
73
3
74
0
42
0.000000001
43
0.0000000001
44
0.0000000001
40
0
40
0
40
0
40
1
40
1
40
1
10
-7.7543821707244254
20
9.6210832522825189
30
0
10
-7.8815637708348438
20
9.1741346614678818
30
0
10
-8.3428737658356447
20
8.9830540622975583
30
0
0
SPLINE
5
189
100
AcDbEntity
8
0
100
AcDbSpline
70
0
71
2
72
6
73
3
74
0
42
0.000000001
43
0.0000000001
44
0.0000000001
40
0
40
0
40
0
40
1
40
1
40
1
10
-8.3428737658356447
20
8.9830540622975583
30
0
10
-8.7209962837531396
20
8.8264307979710601
30
0
10
-9.0478679890304754
20
8.9391151813405241
30
0
0
SPLINE
5
190
100
AcDbEntity
8
0
100
AcDbSpline
70
0
71
2
72
6
73
3
74
0
42
0.000000001
43
0.0000000001
44
0.0000000001
40
0
40
0
40
0
40
1
40
1
40
1
10
-9.0478679890304754
20
8.9391151813405241
30
0
10
-9.3747394189701989
20
9.0517996787584067
30
0
10
-9.55364721647992
20
9.3874670921672756
30
0
0
LINE
5
191
100
AcDbEntity
8
0
100
AcDbLine
10
-2.1425647508665131
20
11.288042306806098
30
0
11
-1.7742154966364572
21
11.337155639290792
31
0
0
SPLINE
5
192
100
AcDbEntity
8
0
100
AcDbSpline
70
0
71
2
72
6
73
3
74
0
42
0.000000001
43
0.0000000001
44
0.0000000001
40
0
40
0
40
0
40
1
40
1
40
1
10
-1.7742154966364572
20
11.337155639290792
30
0
10
-1.71077756602631
20
11.024058698645828
30
0
10
-1.5583219234846073
20
10.885927616281368
30
0
0
SPLINE
5
193
100
AcDbEntity
8
0
100
AcDbSpline
70
0
71
2
72
6
73
3
74
0
42
0.000000001
43
0.0000000001
44
0.0000000001
40
0
40
0
40
0
40
1
40
1
40
1
10
-1.5583219234846073
20
10.885927616281368
30
0
10
-1.4058662064370984
20
10.74779683194013
30
0
10
-1.1869030304250592
20
10.747796831499912
30
0
0
SPLINE
5
194
100
AcDbEntity
8
0
100
AcDbSpline
70
0
71
2
72
6
73
3
74
0
42
0.000000001
43
0.0000000001
44
0.0000000001
40
0
40
0
40
0
40
1
40
1
40
1
10
-1.1869030304250592
20
10.747796831499912
30
0
10
-0.92701217606638608
20
10.747796830977407
30
0
10
-0.7479535643113705
20
10.92787855573796
30
0
0
SPLINE
5
195
100
AcDbEntity
8
0
100
AcDbSpline
70
0
71
2
72
6
73
3
74
0
42
0.000000001
43
0.0000000001
44
0.0000000001
40
0
40
0
40
0
40
1
40
1
40
1
10
-0.7479535643113705
20
10.92787855573796
30
0
10
-0.56889480354474253
20
11.107960578521736
30
0
10
-0.56889480300990891
20
11.373990711292274
30
0
0
SPLINE
5
196
100
AcDbEntity
8
0
100
AcDbSpline
70
0
71
2
72
6
73
3
74
0
42
0.000000001
43
0.0000000001
44
0.0000000001
40
0
40
0
40
0
40
1
40
1
40
1
10
-0.56889480300990891
20
11.373990711292274
30
0
10
-0.56889480249976065
20
11.627742287239082
30
0
10
-0.73465204103347392
20
11.792476263698049
30
0
0
SPLINE
5
197
100
AcDbEntity
8
0
100
AcDbSpline
70
0
71
2
72
6
73
3
74
0
42
0.000000001
43
0.0000000001
44
0.0000000001
40
0
40
0
40
0
40
1
40
1
40
1
10
-0.73465204103347392
20
11.792476263698049
30
0
10
-0.90040913055557548
20
11.957210240157018
30
0
10
-1.1562072319807464
20
11.957210240671291
30
0
0
SPLINE
5
198
100
AcDbEntity
8
0
100
AcDbSpline
70
0
71
2
72
6
73
3
74
0
42
0.000000001
43
0.0000000001
44
0.0000000001
40
0
40
0
40
0
40
1
40
1
40
1
10
-1.1562072319807464
20
11.957210240671291
30
0
10
-1.2605728788198882
20
11.957210240881116
30
0
10
-1.4160980864217017
20
11.91628256284716
30
0
0
LINE
5
199
100
AcDbEntity
8
0
100
AcDbLine
10
-1.4160980864217017
20
11.91628256284716
30
0
11
-1.3751704074250395
21
12.239611385616058
31
0
0
SPLINE
5
200
100
AcDbEntity
8
0
100
AcDbSpline
70
0
71
2
72
6
73
3
74
0
42
0.000000001
43
0.0000000001
44
0.0000000001
40
0
40
0
40
0
40
1
40
1
40
1
10
-1.3751704074250393
20
12.239611385616058
30
0
10
-1.3383354820201361
20
12.2355186326085
30
0
10
-1.315825340885874
20
12.235518632563242
30
0
0
SPLINE
5
201
100
AcDbEntity
8
0
100
AcDbSpline
70
0
71
2
72
6
73
3
74
0
42
0.000000001
43
0.0000000001
44
0.0000000001
40
0
40
0
40
0
40
1
40
1
40
1
10
-1.315825340885874
20
12.235518632563242
30
0
10
-1.0804910041282139
20
12.235518632090109
30
0
10
-0.892223623882207
20
12.358301666751505
30
0
0
SPLINE
5
202
100
AcDbEntity
8
0
100
AcDbSpline
70
0
71
2
72
6
73
3
74
0
42
0.000000001
43
0.0000000001
44
0.0000000001
40
0
40
0
40
0
40
1
40
1
40
1
10
-0.892223623882207
20
12.358301666751505
30
0
10
-0.70395624363620024
20
12.4810847014129
30
0
10
-0.7039562431219375
20
12.736882802838071
30
0
0
SPLINE
5
203
100
AcDbEntity
8
0
100
AcDbSpline
70
0
71
2
72
6
73
3
74
0
42
0.000000001
43
0.0000000001
44
0.0000000001
40
0
40
0
40
0
40
1
40
1
40
1
10
-0.7039562431219375
20
12.736882802838071
30
0
10
-0.70395624271464119
20
12.939474967116102
30
0
10
-0.84106406176599646
20
13.0724897357538
30
0
0
SPLINE
5
204
100
AcDbEntity
8
0
100
AcDbSpline
70
0
71
2
72
6
73
3
74
0
42
0.000000001
43
0.0000000001
44
0.0000000001
40
0
40
0
40
0
40
1
40
1
40
1
10
-0.84106406176599646
20
13.0724897357538
30
0
10
-0.97817188081735074
20
13.205504951426333
30
0
10
-1.1950885313510269
20
13.205504951862437
30
0
0
SPLINE
5
205
100
AcDbEntity
8
0
100
AcDbSpline
70
0
71
2
72
6
73
3
74
0
42
0.000000001
43
0.0000000001
44
0.0000000001
40
0
40
0
40
0
40
1
40
1
40
1
10
-1.1950885313510269
20
13.205504951862437
30
0
10
-1.4099589544295639
20
13.205504952294426
30
0
10
-1.5532059034201195
20
13.070443509730401
30
0
0
SPLINE
5
206
100
AcDbEntity
8
0
100
AcDbSpline
70
0
71
2
72
6
73
3
74
0
42
0.000000001
43
0.0000000001
44
0.0000000001
40
0
40
0
40
0
40
1
40
1
40
1
10
-1.5532059034201195
20
13.070443509730401
30
0
10
-1.6964528524106746
20
12.935382216177986
30
0
10
-1.7373805685532731
20
12.665259330556232
30
0
0
LINE
5
207
100
AcDbEntity
8
0
100
AcDbLine
10
-1.7373805685532731
20
12.665259330556232
30
0
11
-2.1057298225529388
21
12.730743676256047
31
0
0
SPLINE
5
208
100
AcDbEntity
8
0
100
AcDbSpline
70
0
71
2
72
6
73
3
74
0
42
0.000000001
43
0.0000000001
44
0.0000000001
40
0
40
0
40
0
40
1
40
1
40
1
10
-2.1057298225529388
20
12.730743676256044
30
0
10
-2.0381991376351793
20
13.101139306718345
30
0
10
-1.7987721220404704
20
13.304754435230972
30
0
0
SPLINE
5
209
100
AcDbEntity
8
0
100
AcDbSpline
70
0
71
2
72
6
73
3
74
0
42
0.000000001
43
0.0000000001
44
0.0000000001
40
0
40
0
40
0
40
1
40
1
40
1
10
-1.7987721220404704
20
13.304754435230972
30
0
10
-1.5593451064457609
20
13.508369861766823
30
0
10
-1.2032741856207561
20
13.508369861050953
30
0
0
SPLINE
5
210
100
AcDbEntity
8
0
100
AcDbSpline
70
0
71
2
72
6
73
3
74
0
42
0.000000001
43
0.0000000001
44
0.0000000001
40
0
40
0
40
0
40
1
40
1
40
1
10
-1.2032741856207561
20
13.508369861050953
30
0
10
-0.95770796652934076
20
13.508369860557249
30
0
10
-0.75102304952968435
20
13.402981099575001
30
0
0
SPLINE
5
211
100
AcDbEntity
8
0
100
AcDbSpline
70
0
71
2
72
6
73
3
74
0
42
0.000000001
43
0.0000000001
44
0.0000000001
40
0
40
0
40
0
40
1
40
1
40
1
10
-0.75102304952968435
20
13.402981099575001
30
0
10
-0.54433828154164032
20
13.297592040569533
30
0
10
-0.43485661939596992
20
13.115463789750518
30
0
0
SPLINE
5
212
100
AcDbEntity
8
0
100
AcDbSpline
70
0
71
2
72
6
73
3
74
0
42
0.000000001
43
0.0000000001
44
0.0000000001
40
0
40
0
40
0
40
1
40
1
40
1
10
-0.43485661939596992
20
13.115463789750518
30
0
10
-0.32537510626191091
20
12.933335836954726
30
0
10
-0.32537510667332126
20
12.728697296209944
30
0
0
SPLINE
5
213
100
AcDbEntity
8
0
100
AcDbSpline
70
0
71
2
72
6
73
3
74
0
42
0.000000001
43
0.0000000001
44
0.0000000001
40
0
40
0
40
0
40
1
40
1
40
1
10
-0.32537510667332126
20
12.728697296209944
30
0
10
-0.32537510706416084
20
12.53429078681053
30
0
10
-0.42974060521259072
20
12.37467282656732
30
0
0
SPLINE
5
214
100
AcDbEntity
8
0
100
AcDbSpline
70
0
71
2
72
6
73
3
74
0
42
0.000000001
43
0.0000000001
44
0.0000000001
40
0
40
0
40
0
40
1
40
1
40
1
10
-0.42974060521259072
20
12.37467282656732
30
0
10
-0.53410625237263254
20
12.215054717312498
30
0
10
-0.73874479330666265
20
12.120921102230142
30
0
0
SPLINE
5
215
100
AcDbEntity
8
0
100
AcDbSpline
70
0
71
2
72
6
73
3
74
0
42
0.000000001
43
0.0000000001
44
0.0000000001
40
0
40
0
40
0
40
1
40
1
40
1
10
-0.73874479330666265
20
12.120921102230142
30
0
10
-0.47271480967115947
20
12.05952950966954
30
0
10
-0.32537510840741524
20
11.866146113701475
30
0
0
SPLINE
5
216
100
AcDbEntity
8
0
100
AcDbSpline
70
0
71
2
72
6
73
3
74
0
42
0.000000001
43
0.0000000001
44
0.0000000001
40
0
40
0
40
0
40
1
40
1
40
1
10
-0.32537510840741524
20
11.866146113701475
30
0
10
-0.17803540714367155
20
11.672762568721796
30
0
10
-0.17803540772787341
20
11.382176216373468
30
0
0
SPLINE
5
217
100
AcDbEntity
8
0
100
AcDbSpline
70
0
71
2
72
6
73
3
74
0
42
0.000000001
43
0.0000000001
44
0.0000000001
40
0
40
0
40
0
40
1
40
1
40
1
10
-0.17803540772787341
20
11.382176216373468
30
0
10
-0.17803540851778127
20
10.989270146617914
30
0
10
-0.46452915749345097
20
10.71607792030715
30
0
0
SPLINE
5
218
100
AcDbEntity
8
0
100
AcDbSpline
70
0
71
2
72
6
73
3
74
0
42
0.000000001
43
0.0000000001
44
0.0000000001
40
0
40
0
40
0
40
1
40
1
40
1
10
-0.46452915749345097
20
10.71607792030715
30
0
10
-0.75102305548073334
20
10.442885395973164
30
0
10
-1.1889494075048117
20
10.442885396853603
30
0
0
SPLINE
5
219
100
AcDbEntity
8
0
100
AcDbSpline
70
0
71
2
72
6
73
3
74
0
42
0.000000001
43
0.0000000001
44
0.0000000001
40
0
40
0
40
0
40
1
40
1
40
1
10
-1.1889494075048117
20
10.442885396853603
30
0
10
-1.5839017047155051
20
10.442885397647643
30
0
10
-1.8448157468344317
20
10.678219734929863
30
0
0
SPLINE
5
220
100
AcDbEntity
8
0
100
AcDbSpline
70
0
71
2
72
6
73
3
74
0
42
0.000000001
43
0.0000000001
44
0.0000000001
40
0
40
0
40
0
40
1
40
1
40
1
10
-1.8448157468344317
20
10.678219734929863
30
0
10
-2.1057298262062614
20
10.913554072212083
30
0
10
-2.1425647508665131
20
11.288042306806098
30
0
0
SPLINE
5
221
100
AcDbEntity
8
0
100
AcDbSpline
70
0
71
2
72
6
73
3
74
0
42
0.000000001
43
0.0000000001
44
0.0000000001
40
0
40
0
40
0
40
1
40
1
40
1
10
0.18622109466303105
20
11.97562777518475
30
0
10
0.18622109573269763
20
12.507687742702602
30
0
10
0.2957026098849963
20
12.832039679061245
30
0
0
SPLINE
5
222
100
AcDbEntity
8
0
100
AcDbSpline
70
0
71
2
72
6
73
3
74
0
42
0.000000001
43
0.0000000001
44
0.0000000001
40
0
40
0
40
0
40
1
40
1
40
1
10
0.2957026098849963
20
12.832039679061245
30
0
10
0.40518412403729498
20
13.156391615419885
30
0
10
0.62107781020882658
20
13.332380885196102
30
0
0
SPLINE
5
223
100
AcDbEntity
8
0
100
AcDbSpline
70
0
71
2
72
6
73
3
74
0
42
0.000000001
43
0.0000000001
44
0.0000000001
40
0
40
0
40
0
40
1
40
1
40
1
10
0.62107781020882658
20
13.332380885196102
30
0
10
0.83697164539196955
20
13.508369856949097
30
0
10
1.1643930721650408
20
13.508369856290825
30
0
0
SPLINE
5
224
100
AcDbEntity
8
0
100
AcDbSpline
70
0
71
2
72
6
73
3
74
0
42
0.000000001
43
0.0000000001
44
0.0000000001
40
0
40
0
40
0
40
1
40
1
40
1
10
1.1643930721650408
20
13.508369856290825
30
0
10
1.4058663893113421
20
13.508369855805352
30
0
10
1.5879949377380536
20
13.411166600739479
30
0
0
SPLINE
5
225
100
AcDbEntity
8
0
100
AcDbSpline
70
0
71
2
72
6
73
3
74
0
42
0.000000001
43
0.0000000001
44
0.0000000001
40
0
40
0
40
0
40
1
40
1
40
1
10
1.5879949377380536
20
13.411166600739479
30
0
10
1.7701228901183175
20
13.31396334567361
30
0
10
1.8888130228448929
20
13.130811981108508
30
0
0
SPLINE
5
226
100
AcDbEntity
8
0
100
AcDbSpline
70
0
71
2
72
6
73
3
74
0
42
0.000000001
43
0.0000000001
44
0.0000000001
40
0
40
0
40
0
40
1
40
1
40
1
10
1.8888130228448929
20
13.130811981108508
30
0
10
2.0075037516179166
20
12.947660616543409
30
0
10
2.0750340254804285
20
12.684699973831421
30
0
0
SPLINE
5
227
100
AcDbEntity
8
0
100
AcDbSpline
70
0
71
2
72
6
73
3
74
0
42
0.000000001
43
0.0000000001
44
0.0000000001
40
0
40
0
40
0
40
1
40
1
40
1
10
2.0750340254804285
20
12.684699973831421
30
0
10
2.1425648953893885
20
12.421739629142659
30
0
10
2.142564894492514
20
11.975627771251576
30
0
0
SPLINE
5
228
100
AcDbEntity
8
0
100
AcDbSpline
70
0
71
2
72
6
73
3
74
0
42
0.000000001
43
0.0000000001
44
0.0000000001
40
0
40
0
40
0
40
1
40
1
40
1
10
2.142564894492514
20
11.975627771251576
30
0
10
2.1425648934310755
20
11.447660258644001
30
0
10
2.0341064930063464
20
11.123308471294916
30
0
0
SPLINE
5
229
100
AcDbEntity
8
0
100
AcDbSpline
70
0
71
2
72
6
73
3
74
0
42
0.000000001
43
0.0000000001
44
0.0000000001
40
0
40
0
40
0
40
1
40
1
40
1
10
2.0341064930063464
20
11.123308471294916
30
0
10
1.9256480925816173
20
10.798956385922605
30
0
10
1.7097547044312522
20
10.621944002418818
30
0
0
SPLINE
5
230
100
AcDbEntity
8
0
100
AcDbSpline
70
0
71
2
72
6
73
3
74
0
42
0.000000001
43
0.0000000001
44
0.0000000001
40
0
40
0
40
0
40
1
40
1
40
1
10
1.7097547044312522
20
10.621944002418818
30
0
10
1.4938613162808885
20
10.444931916938254
30
0
10
1.1643930660062303
20
10.444931917600639
30
0
0
SPLINE
5
231
100
AcDbEntity
8
0
100
AcDbSpline
70
0
71
2
72
6
73
3
74
0
42
0.000000001
43
0.0000000001
44
0.0000000001
40
0
40
0
40
0
40
1
40
1
40
1
10
1.1643930660062303
20
10.444931917600639
30
0
10
0.73055946691565399
20
10.444931918472848
30
0
10
0.48294702099444281
20
10.75598233400973
30
0
0
SPLINE
5
232
100
AcDbEntity
8
0
100
AcDbSpline
70
0
71
2
72
6
73
3
74
0
42
0.000000001
43
0.0000000001
44
0.0000000001
40
0
40
0
40
0
40
1
40
1
40
1
10
0.48294702099444281
20
10.75598233400973
30
0
10
0.18622109296390632
20
11.130470569126247
30
0
10
0.18622109466303105
20
11.97562777518475
30
0
0
SPLINE
5
233
100
AcDbEntity
8
0
100
AcDbSpline
70
0
71
2
72
6
73
3
74
0
42
0.000000001
43
0.0000000001
44
0.0000000001
40
0
40
0
40
0
40
1
40
1
40
1
10
0.56480238013971562
20
11.975627774423623
30
0
10
0.56480237865452443
20
11.236882740682626
30
0
10
0.73772156213238738
20
10.992339783982743
30
0
0
SPLINE
5
234
100
AcDbEntity
8
0
100
AcDbSpline
70
0
71
2
72
6
73
3
74
0
42
0.000000001
43
0.0000000001
44
0.0000000001
40
0
40
0
40
0
40
1
40
1
40
1
10
0.73772156213238738
20
10.992339783982743
30
0
10
0.91064119264508525
20
10.747796827282858
30
0
10
1.164393066615117
20
10.747796826772698
30
0
0
SPLINE
5
235
100
AcDbEntity
8
0
100
AcDbSpline
70
0
71
2
72
6
73
3
74
0
42
0.000000001
43
0.0000000001
44
0.0000000001
40
0
40
0
40
0
40
1
40
1
40
1
10
1.164393066615117
20
10.747796826772698
30
0
10
1.4181449405851487
20
10.747796826262537
30
0
10
1.5910645720831744
20
10.993362895994689
30
0
0
SPLINE
5
236
100
AcDbEntity
8
0
100
AcDbSpline
70
0
71
2
72
6
73
3
74
0
42
0.000000001
43
0.0000000001
44
0.0000000001
40
0
40
0
40
0
40
1
40
1
40
1
10
1.5910645720831744
20
10.993362895994689
30
0
10
1.7639836075347519
20
11.238928965726846
30
0
10
1.7639836090158294
20
11.975627772012702
30
0
0
SPLINE
5
237
100
AcDbEntity
8
0
100
AcDbSpline
70
0
71
2
72
6
73
3
74
0
42
0.000000001
43
0.0000000001
44
0.0000000001
40
0
40
0
40
0
40
1
40
1
40
1
10
1.7639836090158294
20
11.975627772012702
30
0
10
1.7639836105051343
20
12.716419033208838
30
0
10
1.5910645760368269
20
12.959938876181152
30
0
0
SPLINE
5
238
100
AcDbEntity
8
0
100
AcDbSpline
70
0
71
2
72
6
73
3
74
0
42
0.000000001
43
0.0000000001
44
0.0000000001
40
0
40
0
40
0
40
1
40
1
40
1
10
1.5910645760368269
20
12.959938876181152
30
0
10
1.4181449455220718
20
13.203458719153467
30
0
10
1.160300020595314
20
13.203458719671858
30
0
0
SPLINE
5
239
100
AcDbEntity
8
0
100
AcDbSpline
70
0
71
2
72
6
73
3
74
0
42
0.000000001
43
0.0000000001
44
0.0000000001
40
0
40
0
40
0
40
1
40
1
40
1
10
1.160300020595314
20
13.203458719671858
30
0
10
0.90654874267173002
20
13.203458720182017
30
0
10
0.75511598963049598
20
12.988588148396317
30
0
0
SPLINE
5
240
100
AcDbEntity
8
0
100
AcDbSpline
70
0
71
2
72
6
73
3
74
0
42
0.000000001
43
0.0000000001
44
0.0000000001
40
0
40
0
40
0
40
1
40
1
40
1
10
0.75511598963049598
20
12.988588148396317
30
0
10
0.56480238162490648
20
12.714372659153009
30
0
10
0.56480238013971562
20
11.975627774423623
30
0
0
LINE
5
241
100
AcDbEntity
8
0
100
AcDbLine
10
8.4314496177964848
20
9.0017282257882432
30
0
11
8.7063160122993786
21
9.6653365579736423
31
0
0
LINE
5
242
100
AcDbEntity
8
0
100
AcDbLine
10
8.7063160122993803
20
9.6653365579736441
30
0
11
7.503880392057507
21
10.163385072333783
31
0
0
LINE
5
243
100
AcDbEntity
8
0
100
AcDbLine
10
7.503880392057507
20
10.163385072333783
30
0
11
7.6330910942270824
21
10.475337716535087
31
0
0
LINE
5
244
100
AcDbEntity
8
0
100
AcDbLine
10
7.6330910942270824
20
10.475337716535087
30
0
11
9.6418578016758794
21
11.747538332444321
31
0
0
LINE
5
245
100
AcDbEntity
8
0
100
AcDbLine
10
9.6418578016758794
20
11.747538332444321
30
0
11
9.9197792457750964
21
11.632423344155304
31
0
0
LINE
5
246
100
AcDbEntity
8
0
100
AcDbLine
10
9.9197792457750964
20
11.632423344155304
30
0
11
9.1758387149311496
21
9.8363320620205084
31
0
0
LINE
5
247
100
AcDbEntity
8
0
100
AcDbLine
10
9.1758387149311478
20
9.8363320620205101
30
0
11
9.5501819154395609
21
9.6812792078506273
31
0
0
LINE
5
248
100
AcDbEntity
8
0
100
AcDbLine
10
9.5501819154395609
20
9.6812792078506273
30
0
11
9.4209712132699845
21
9.3693265636493237
31
0
0
LINE
5
249
100
AcDbEntity
8
0
100
AcDbLine
10
9.4209712132699845
20
9.3693265636493237
30
0
11
9.0466280127615715
21
9.5243794178192047
31
0
0
LINE
5
250
100
AcDbEntity
8
0
100
AcDbLine
10
9.0466280127615732
20
9.5243794178192047
30
0
11
8.7717616182586795
21
8.8607710856338056
31
0
0
LINE
5
251
100
AcDbEntity
8
0
100
AcDbLine
10
8.7717616182586777
20
8.8607710856338056
30
0
11
8.4314496177964848
21
9.0017282257882432
31
0
0
LINE
5
252
100
AcDbEntity
8
0
100
AcDbLine
10
8.8355267144689549
20
9.9772892021749477
30
0
11
9.3531527292468972
21
11.226990668895894
31
0
0
LINE
5
253
100
AcDbEntity
8
0
100
AcDbLine
10
9.3531527292468972
20
11.226990668895894
30
0
11
7.9677312165424521
21
10.336729866801779
31
0
0
LINE
5
254
100
AcDbEntity
8
0
100
AcDbLine
10
7.9677312165424521
20
10.336729866801777
30
0
11
8.8355267144689549
21
9.9772892021749477
31
0
0
LINE
5
255
100
AcDbEntity
8
0
100
AcDbLine
10
9.7946880185686727
20
9.2876276922952155
30
0
11
10.164545160758106
21
9.1698724998509427
31
0
0
SPLINE
5
256
100
AcDbEntity
8
0
100
AcDbSpline
70
0
71
2
72
6
73
3
74
0
42
0.000000001
43
0.0000000001
44
0.0000000001
40
0
40
0
40
0
40
1
40
1
40
1
10
10.164545160758106
20
9.1698724998509427
30
0
10
10.096181044853978
20
8.8925215967124736
30
0
10
10.186388501465224
20
8.7012167976508099
30
0
0
SPLINE
5
257
100
AcDbEntity
8
0
100
AcDbSpline
70
0
71
2
72
6
73
3
74
0
42
0.000000001
43
0.0000000001
44
0.0000000001
40
0
40
0
40
0
40
1
40
1
40
1
10
10.186388501465224
20
8.7012167976508099
30
0
10
10.276596257039525
20
8.5099115521822934
30
0
10
10.480783181977937
20
8.4253373821349307
30
0
0
SPLINE
5
258
100
AcDbEntity
8
0
100
AcDbSpline
70
0
71
2
72
6
73
3
74
0
42
0.000000001
43
0.0000000001
44
0.0000000001
40
0
40
0
40
0
40
1
40
1
40
1
10
10.480783181977937
20
8.4253373821349307
30
0
10
10.726563902937968
20
8.3235350728288537
30
0
10
10.973463404299515
20
8.4383375002746099
30
0
0
SPLINE
5
259
100
AcDbEntity
8
0
100
AcDbSpline
70
0
71
2
72
6
73
3
74
0
42
0.000000001
43
0.0000000001
44
0.0000000001
40
0
40
0
40
0
40
1
40
1
40
1
10
10.973463404299515
20
8.4383375002746099
30
0
10
11.220362791615761
20
8.553139652381466
30
0
10
11.347224160599673
20
8.8594203151828417
30
0
0
SPLINE
5
260
100
AcDbEntity
8
0
100
AcDbSpline
70
0
71
2
72
6
73
3
74
0
42
0.000000001
43
0.0000000001
44
0.0000000001
40
0
40
0
40
0
40
1
40
1
40
1
10
11.347224160599673
20
8.8594203151828417
30
0
10
11.467820907194184
20
9.1505763367085144
30
0
10
11.373977742434278
20
9.3865793847434595
30
0
0
SPLINE
5
261
100
AcDbEntity
8
0
100
AcDbSpline
70
0
71
2
72
6
73
3
74
0
42
0.000000001
43
0.0000000001
44
0.0000000001
40
0
40
0
40
0
40
1
40
1
40
1
10
11.373977742434278
20
9.3865793847434595
30
0
10
11.280134026996567
20
9.6225826608690053
30
0
10
11.015446884932761
20
9.7322160047719368
30
0
0
SPLINE
5
262
100
AcDbEntity
8
0
100
AcDbSpline
70
0
71
2
72
6
73
3
74
0
42
0.000000001
43
0.0000000001
44
0.0000000001
40
0
40
0
40
0
40
1
40
1
40
1
10
11.015446884932761
20
9.7322160047719368
30
0
10
10.850962728431126
20
9.8003452986836912
30
0
10
10.68768715403516
20
9.7804822366316095
30
0
0
SPLINE
5
263
100
AcDbEntity
8
0
100
AcDbSpline
70
0
71
2
72
6
73
3
74
0
42
0.000000001
43
0.0000000001
44
0.0000000001
40
0
40
0
40
0
40
1
40
1
40
1
10
10.68768715403516
20
9.7804822366316095
30
0
10
10.524411223653489
20
9.7606194833169333
30
0
10
10.399451337741226
20
9.6728340105506163
30
0
0
LINE
5
264
100
AcDbEntity
8
0
100
AcDbLine
10
10.399451337741226
20
9.6728340105506163
30
0
11
10.097164317507923
21
9.8467707394353159
31
0
0
LINE
5
265
100
AcDbEntity
8
0
100
AcDbLine
10
10.097164317507923
20
9.8467707394353141
30
0
11
10.955303400592316
21
11.15920976988879
31
0
0
LINE
5
266
100
AcDbEntity
8
0
100
AcDbLine
10
10.955303400592316
20
11.15920976988879
30
0
11
12.333566933629472
21
10.588333380774639
31
0
0
LINE
5
267
100
AcDbEntity
8
0
100
AcDbLine
10
12.333566933629472
20
10.588333380774639
30
0
11
12.198874530056882
21
10.263146296866104
31
0
0
LINE
5
268
100
AcDbEntity
8
0
100
AcDbLine
10
12.198874530056882
20
10.263146296866104
30
0
11
11.092860735058931
21
10.721256916834053
31
0
0
LINE
5
269
100
AcDbEntity
8
0
100
AcDbLine
10
11.092860735058931
20
10.721256916834053
30
0
11
10.634961833592376
21
10.038216359329954
31
0
0
SPLINE
5
270
100
AcDbEntity
8
0
100
AcDbSpline
70
0
71
2
72
6
73
3
74
0
42
0.000000001
43
0.0000000001
44
0.0000000001
40
0
40
0
40
0
40
1
40
1
40
1
10
10.634961833592374
20
10.038216359329956
30
0
10
10.956569007848707
20
10.108785061930291
30
0
10
11.230709085125497
20
9.9952363147742354
30
0
0
SPLINE
5
271
100
AcDbEntity
8
0
100
AcDbSpline
70
0
71
2
72
6
73
3
74
0
42
0.000000001
43
0.0000000001
44
0.0000000001
40
0
40
0
40
0
40
1
40
1
40
1
10
11.230709085125497
20
9.9952363147742354
30
0
10
11.593708735844439
20
9.8448819559126335
30
0
10
11.739119261888229
20
9.4900605083775158
30
0
0
SPLINE
5
272
100
AcDbEntity
8
0
100
AcDbSpline
70
0
71
2
72
6
73
3
74
0
42
0.000000001
43
0.0000000001
44
0.0000000001
40
0
40
0
40
0
40
1
40
1
40
1
10
11.739119261888229
20
9.4900605083775158
30
0
10
11.884529294276865
20
9.1352394266024497
30
0
10
11.720862370648478
20
8.7400993280124606
30
0
0
SPLINE
5
273
100
AcDbEntity
8
0
100
AcDbSpline
70
0
71
2
72
6
73
3
74
0
42
0.000000001
43
0.0000000001
44
0.0000000001
40
0
40
0
40
0
40
1
40
1
40
1
10
11.720862370648478
20
8.7400993280124606
30
0
10
11.565026424586119
20
8.3638655128601798
30
0
10
11.232165835998288
20
8.1805643420228975
30
0
0
SPLINE
5
274
100
AcDbEntity
8
0
100
AcDbSpline
70
0
71
2
72
6
73
3
74
0
42
0.000000001
43
0.0000000001
44
0.0000000001
40
0
40
0
40
0
40
1
40
1
40
1
10
11.232165835998288
20
8.1805643420228975
30
0
10
10.826197261128829
20
7.9544499495888417
30
0
10
10.364885101754753
20
8.1455253234091156
30
0
0
SPLINE
5
275
100
AcDbEntity
8
0
100
AcDbSpline
70
0
71
2
72
6
73
3
74
0
42
0.000000001
43
0.0000000001
44
0.0000000001
40
0
40
0
40
0
40
1
40
1
40
1
10
10.364885101754753
20
8.1455253234091156
30
0
10
9.9867606720933662
20
8.302144361689308
30
0
10
9.8353035478685875
20
8.6129555929575048
30
0
0
SPLINE
5
276
100
AcDbEntity
8
0
100
AcDbSpline
70
0
71
2
72
6
73
3
74
0
42
0.000000001
43
0.0000000001
44
0.0000000001
40
0
40
0
40
0
40
1
40
1
40
1
10
9.8353035478685875
20
8.6129555929575048
30
0
10
9.6838466989827126
20
8.9237667101804004
30
0
10
9.7946880185686727
20
9.2876276922952155
30
0
0
LINE
5
277
100
AcDbEntity
8
0
100
AcDbLine
10
18.591234397642356
20
5.1535152475402271
30
0
11
18.311960801072466
21
5.3922721232202733
31
0
0
SPLINE
5
278
100
AcDbEntity
8
0
100
AcDbSpline
70
0
71
2
72
6
73
3
74
0
42
0.000000001
43
0.0000000001
44
0.0000000001
40
0
40
0
40
0
40
1
40
1
40
1
10
18.311960801072466
20
5.3922721232202742
30
0
10
18.430615758012337
20
5.5803838027679964
30
0
10
18.436403701657625
20
5.7135088420860995
30
0
0
SPLINE
5
279
100
AcDbEntity
8
0
100
AcDbSpline
70
0
71
2
72
6
73
3
74
0
42
0.000000001
43
0.0000000001
44
0.0000000001
40
0
40
0
40
0
40
1
40
1
40
1
10
18.436403701657625
20
5.7135088420860995
30
0
10
18.442191698305518
20
5.9305607954770601
30
0
10
18.287361255114345
20
6.0853910454623374
30
0
0
SPLINE
5
280
100
AcDbEntity
8
0
100
AcDbSpline
70
0
71
2
72
6
73
3
74
0
42
0.000000001
43
0.0000000001
44
0.0000000001
40
0
40
0
40
0
40
1
40
1
40
1
10
18.287361255114345
20
6.0853910454623374
30
0
10
18.162918076456236
20
6.2098340688334384
30
0
10
17.999405779828304
20
6.2344331856809019
30
0
0
SPLINE
5
281
100
AcDbEntity
8
0
100
AcDbSpline
70
0
71
2
72
6
73
3
74
0
42
0.000000001
43
0.0000000001
44
0.0000000001
40
0
40
0
40
0
40
1
40
1
40
1
10
17.999405779828304
20
6.2344331856809019
30
0
10
17.786694829314012
20
6.2677143118908729
30
0
10
17.543596717189761
20
6.1664232713909275
30
0
0
SPLINE
5
282
100
AcDbEntity
8
0
100
AcDbSpline
70
0
71
2
72
6
73
3
74
0
42
0.000000001
43
0.0000000001
44
0.0000000001
40
0
40
0
40
0
40
1
40
1
40
1
10
17.543596717189761
20
6.1664232713909275
30
0
10
17.300498736774365
20
6.0651323099164038
30
0
10
16.979262081637479
20
5.7496832842368306
30
0
0
SPLINE
5
283
100
AcDbEntity
8
0
100
AcDbSpline
70
0
71
2
72
6
73
3
74
0
42
0.000000001
43
0.0000000001
44
0.0000000001
40
0
40
0
40
0
40
1
40
1
40
1
10
16.979262081637479
20
5.7496832842368306
30
0
10
17.216572173215987
20
5.7988818963788589
30
0
10
17.42204800574585
20
5.7323195067279729
30
0
0
SPLINE
5
284
100
AcDbEntity
8
0
100
AcDbSpline
70
0
71
2
72
6
73
3
74
0
42
0.000000001
43
0.0000000001
44
0.0000000001
40
0
40
0
40
0
40
1
40
1
40
1
10
17.42204800574585
20
5.7323195067279729
30
0
10
17.627523732908653
20
5.6657570117098999
30
0
10
17.776566145782521
20
5.5167147848193121
30
0
0
SPLINE
5
285
100
AcDbEntity
8
0
100
AcDbSpline
70
0
71
2
72
6
73
3
74
0
42
0.000000001
43
0.0000000001
44
0.0000000001
40
0
40
0
40
0
40
1
40
1
40
1
10
17.776566145782521
20
5.5167147848193121
30
0
10
18.037028563733358
20
5.2562526918877293
30
0
10
18.028346652141362
20
4.8814764821166516
30
0
0
SPLINE
5
286
100
AcDbEntity
8
0
100
AcDbSpline
70
0
71
2
72
6
73
3
74
0
42
0.000000001
43
0.0000000001
44
0.0000000001
40
0
40
0
40
0
40
1
40
1
40
1
10
18.028346652141362
20
4.8814764821166516
30
0
10
18.019664951283609
20
4.5067002723457055
30
0
10
17.715792369042038
20
4.2028273109121272
30
0
0
SPLINE
5
287
100
AcDbEntity
8
0
100
AcDbSpline
70
0
71
2
72
6
73
3
74
0
42
0.000000001
43
0.0000000001
44
0.0000000001
40
0
40
0
40
0
40
1
40
1
40
1
10
17.715792369042038
20
4.2028273109121272
30
0
10
17.516104729339695
20
4.0031394220265346
30
0
10
17.258536645886327
20
3.9177656566741237
30
0
0
SPLINE
5
288
100
AcDbEntity
8
0
100
AcDbSpline
70
0
71
2
72
6
73
3
74
0
42
0.000000001
43
0.0000000001
44
0.0000000001
40
0
40
0
40
0
40
1
40
1
40
1
10
17.258536645886327
20
3.9177656566741237
30
0
10
17.000968351698852
20
3.8323916805873388
30
0
10
16.759317251403537
20
3.8917191196519934
30
0
0
SPLINE
5
289
100
AcDbEntity
8
0
100
AcDbSpline
70
0
71
2
72
6
73
3
74
0
42
0.000000001
43
0.0000000001
44
0.0000000001
40
0
40
0
40
0
40
1
40
1
40
1
10
16.759317251403537
20
3.8917191196519934
30
0
10
16.517666256475408
20
3.9510464533495924
30
0
10
16.326660518433854
20
4.142051953043735
30
0
0
SPLINE
5
290
100
AcDbEntity
8
0
100
AcDbSpline
70
0
71
2
72
6
73
3
74
0
42
0.000000001
43
0.0000000001
44
0.0000000001
40
0
40
0
40
0
40
1
40
1
40
1
10
16.326660518433854
20
4.142051953043735
30
0
10
16.001082443311713
20
4.4676296218917404
30
0
10
16.035086875271386
20
4.9125859346905347
30
0
0
SPLINE
5
291
100
AcDbEntity
8
0
100
AcDbSpline
70
0
71
2
72
6
73
3
74
0
42
0.000000001
43
0.0000000001
44
0.0000000001
40
0
40
0
40
0
40
1
40
1
40
1
10
16.035086875271386
20
4.9125859346905347
30
0
10
16.069091307231055
20
5.3575422474893273
30
0
10
16.618955924666391
20
5.90740755108156
30
0
0
SPLINE
5
292
100
AcDbEntity
8
0
100
AcDbSpline
70
0
71
2
72
6
73
3
74
0
42
0.000000001
43
0.0000000001
44
0.0000000001
40
0
40
0
40
0
40
1
40
1
40
1
10
16.618955924666391
20
5.90740755108156
30
0
10
17.233935801916694
20
6.5223881957438268
30
0
10
17.740390108163894
20
6.5744808574571021
30
0
0
SPLINE
5
293
100
AcDbEntity
8
0
100
AcDbSpline
70
0
71
2
72
6
73
3
74
0
42
0.000000001
43
0.0000000001
44
0.0000000001
40
0
40
0
40
0
40
1
40
1
40
1
10
17.740390108163894
20
6.5744808574571021
30
0
10
18.18172896043211
20
6.6193386032110579
30
0
10
18.517436141293139
20
6.2836318412638184
30
0
0
SPLINE
5
294
100
AcDbEntity
8
0
100
AcDbSpline
70
0
71
2
72
6
73
3
74
0
42
0.000000001
43
0.0000000001
44
0.0000000001
40
0
40
0
40
0
40
1
40
1
40
1
10
18.517436141293139
20
6.2836318412638184
30
0
10
18.767769400821496
20
6.0332988941149974
30
0
10
18.787304336343038
20
5.733043809207004
30
0
0
SPLINE
5
295
100
AcDbEntity
8
0
100
AcDbSpline
70
0
71
2
72
6
73
3
74
0
42
0.000000001
43
0.0000000001
44
0.0000000001
40
0
40
0
40
0
40
1
40
1
40
1
10
18.787304336343038
20
5.733043809207004
30
0
10
18.806839166497394
20
5.4327888296660642
30
0
10
18.591234397642356
20
5.1535152475402271
30
0
0
SPLINE
5
296
100
AcDbEntity
8
0
100
AcDbSpline
70
0
71
2
72
6
73
3
74
0
42
0.000000001
43
0.0000000001
44
0.0000000001
40
0
40
0
40
0
40
1
40
1
40
1
10
16.613168249003472
20
5.3025562542227522
30
0
10
16.478595974483149
20
5.1679838117743779
30
0
10
16.412757204079988
20
4.9878308862934908
30
0
0
SPLINE
5
297
100
AcDbEntity
8
0
100
AcDbSpline
70
0
71
2
72
6
73
3
74
0
42
0.000000001
43
0.0000000001
44
0.0000000001
40
0
40
0
40
0
40
1
40
1
40
1
10
16.412757204079988
20
4.9878308862934908
30
0
10
16.346918196600917
20
4.8076777764199932
30
0
10
16.3852640304891
20
4.6405477389555134
30
0
0
SPLINE
5
298
100
AcDbEntity
8
0
100
AcDbSpline
70
0
71
2
72
6
73
3
74
0
42
0.000000001
43
0.0000000001
44
0.0000000001
40
0
40
0
40
0
40
1
40
1
40
1
10
16.3852640304891
20
4.6405477389555134
30
0
10
16.423610075111391
20
4.4734179122254076
30
0
10
16.536477087767693
20
4.3605510404107397
30
0
0
SPLINE
5
299
100
AcDbEntity
8
0
100
AcDbSpline
70
0
71
2
72
6
73
3
74
0
42
0.000000001
43
0.0000000001
44
0.0000000001
40
0
40
0
40
0
40
1
40
1
40
1
10
16.536477087767693
20
4.3605510404107397
30
0
10
16.701436689381346
20
4.1955916446427013
30
0
10
16.953216685000449
20
4.2100618685008238
30
0
0
SPLINE
5
300
100
AcDbEntity
8
0
100
AcDbSpline
70
0
71
2
72
6
73
3
74
0
42
0.000000001
43
0.0000000001
44
0.0000000001
40
0
40
0
40
0
40
1
40
1
40
1
10
16.953216685000449
20
4.2100618685008238
30
0
10
17.204996996720844
20
4.2245321977262638
30
0
10
17.43362475189651
20
4.4531602381985378
30
0
0
SPLINE
5
301
100
AcDbEntity
8
0
100
AcDbSpline
70
0
71
2
72
6
73
3
74
0
42
0.000000001
43
0.0000000001
44
0.0000000001
40
0
40
0
40
0
40
1
40
1
40
1
10
17.43362475189651
20
4.4531602381985378
30
0
10
17.65357068316429
20
4.6731064439291812
30
0
10
17.662976021750335
20
4.9169280757759903
30
0
0
SPLINE
5
302
100
AcDbEntity
8
0
100
AcDbSpline
70
0
71
2
72
6
73
3
74
0
42
0.000000001
43
0.0000000001
44
0.0000000001
40
0
40
0
40
0
40
1
40
1
40
1
10
17.662976021750335
20
4.9169280757759903
30
0
10
17.672381465703573
20
5.160749602255744
30
0
10
17.494398795875966
20
5.3387320499868345
30
0
0
SPLINE
5
303
100
AcDbEntity
8
0
100
AcDbSpline
70
0
71
2
72
6
73
3
74
0
42
0.000000001
43
0.0000000001
44
0.0000000001
40
0
40
0
40
0
40
1
40
1
40
1
10
17.494398795875966
20
5.3387320499868345
30
0
10
17.317863133627689
20
5.5152674919442539
30
0
10
17.068253535884985
20
5.5116498195140853
30
0
0
SPLINE
5
304
100
AcDbEntity
8
0
100
AcDbSpline
70
0
71
2
72
6
73
3
74
0
42
0.000000001
43
0.0000000001
44
0.0000000001
40
0
40
0
40
0
40
1
40
1
40
1
10
17.068253535884985
20
5.5116498195140853
30
0
10
16.818643911800478
20
5.508032173425681
30
0
10
16.613168249003472
20
5.3025562542227522
30
0
0
SPLINE
5
305
100
AcDbEntity
8
0
100
AcDbSpline
70
0
71
2
72
6
73
3
74
0
42
0.000000001
43
0.0000000001
44
0.0000000001
40
0
40
0
40
0
40
1
40
1
40
1
10
18.332219786014868
20
4.3012246763575286
30
0
10
18.708442762306795
20
4.6774481221249946
30
0
10
19.015209241964811
20
4.8293846467614179
30
0
0
SPLINE
5
306
100
AcDbEntity
8
0
100
AcDbSpline
70
0
71
2
72
6
73
3
74
0
42
0.000000001
43
0.0000000001
44
0.0000000001
40
0
40
0
40
0
40
1
40
1
40
1
10
19.015209241964811
20
4.8293846467614179
30
0
10
19.321975721622831
20
4.9813211713978411
30
0
10
19.599078834866212
20
4.9531046614153933
30
0
0
SPLINE
5
307
100
AcDbEntity
8
0
100
AcDbSpline
70
0
71
2
72
6
73
3
74
0
42
0.000000001
43
0.0000000001
44
0.0000000001
40
0
40
0
40
0
40
1
40
1
40
1
10
19.599078834866212
20
4.9531046614153933
30
0
10
19.876181737375482
20
4.9248879406985724
30
0
10
20.107703793005392
20
4.6933661739745478
30
0
0
SPLINE
5
308
100
AcDbEntity
8
0
100
AcDbSpline
70
0
71
2
72
6
73
3
74
0
42
0.000000001
43
0.0000000001
44
0.0000000001
40
0
40
0
40
0
40
1
40
1
40
1
10
20.107703793005392
20
4.6933661739745478
30
0
10
20.278451319569175
20
4.5226188604788744
30
0
10
20.338502694032869
20
4.3251014856163108
30
0
0
SPLINE
5
309
100
AcDbEntity
8
0
100
AcDbSpline
70
0
71
2
72
6
73
3
74
0
42
0.000000001
43
0.0000000001
44
0.0000000001
40
0
40
0
40
0
40
1
40
1
40
1
10
20.338502694032869
20
4.3251014856163108
30
0
10
20.398553647027814
20
4.1275845322219693
30
0
10
20.352973017202714
20
3.914150123378012
30
0
0
SPLINE
5
310
100
AcDbEntity
8
0
100
AcDbSpline
70
0
71
2
72
6
73
3
74
0
42
0.000000001
43
0.0000000001
44
0.0000000001
40
0
40
0
40
0
40
1
40
1
40
1
10
20.352973017202714
20
3.914150123378012
30
0
10
20.307392387377611
20
3.7007157145340548
30
0
10
20.169202605326561
20
3.4670230490702982
30
0
0
SPLINE
5
311
100
AcDbEntity
8
0
100
AcDbSpline
70
0
71
2
72
6
73
3
74
0
42
0.000000001
43
0.0000000001
44
0.0000000001
40
0
40
0
40
0
40
1
40
1
40
1
10
20.169202605326561
20
3.4670230490702982
30
0
10
20.031013034009625
20
3.2333305943409152
30
0
10
19.715564510945786
20
2.9178816776398522
30
0
0
SPLINE
5
312
100
AcDbEntity
8
0
100
AcDbSpline
70
0
71
2
72
6
73
3
74
0
42
0.000000001
43
0.0000000001
44
0.0000000001
40
0
40
0
40
0
40
1
40
1
40
1
10
19.715564510945786
20
2.9178816776398522
30
0
10
19.34223533546708
20
2.5445520362966789
30
0
10
19.03619241228219
20
2.3918921668241344
30
0
0
SPLINE
5
313
100
AcDbEntity
8
0
100
AcDbSpline
70
0
71
2
72
6
73
3
74
0
42
0.000000001
43
0.0000000001
44
0.0000000001
40
0
40
0
40
0
40
1
40
1
40
1
10
19.03619241228219
20
2.3918921668241344
30
0
10
18.730149278363186
20
2.2392320866172168
30
0
10
18.452322925650872
20
2.2667249347594791
30
0
0
SPLINE
5
314
100
AcDbEntity
8
0
100
AcDbSpline
70
0
71
2
72
6
73
3
74
0
42
0.000000001
43
0.0000000001
44
0.0000000001
40
0
40
0
40
0
40
1
40
1
40
1
10
18.452322925650872
20
2.2667249347594791
30
0
10
18.174496783672673
20
2.2942179936361162
30
0
10
17.941527404361871
20
2.5271870822349789
30
0
0
SPLINE
5
315
100
AcDbEntity
8
0
100
AcDbSpline
70
0
71
2
72
6
73
3
74
0
42
0.000000001
43
0.0000000001
44
0.0000000001
40
0
40
0
40
0
40
1
40
1
40
1
10
17.941527404361871
20
2.5271870822349789
30
0
10
17.634760533138174
20
2.8339535706581884
30
0
10
17.679617809737266
20
3.2289877911040921
30
0
0
SPLINE
5
316
100
AcDbEntity
8
0
100
AcDbSpline
70
0
71
2
72
6
73
3
74
0
42
0.000000001
43
0.0000000001
44
0.0000000001
40
0
40
0
40
0
40
1
40
1
40
1
10
17.679617809737266
20
3.2289877911040921
30
0
10
17.734603767314447
20
3.7036079119128971
30
0
10
18.332219786014868
20
4.3012246763575286
30
0
0
SPLINE
5
317
100
AcDbEntity
8
0
100
AcDbSpline
70
0
71
2
72
6
73
3
74
0
42
0.000000001
43
0.0000000001
44
0.0000000001
40
0
40
0
40
0
40
1
40
1
40
1
10
18.599917347229535
20
4.0335274491905277
30
0
10
18.077546050227966
20
3.5111555003400152
30
0
10
18.026900684627357
20
3.2159650530628725
30
0
0
SPLINE
5
318
100
AcDbEntity
8
0
100
AcDbSpline
70
0
71
2
72
6
73
3
74
0
42
0.000000001
43
0.0000000001
44
0.0000000001
40
0
40
0
40
0
40
1
40
1
40
1
10
18.026900684627357
20
3.2159650530628725
30
0
10
17.976255529761129
20
2.9207743950516192
30
0
10
18.155685101800874
20
2.7413450469139118
30
0
0
SPLINE
5
319
100
AcDbEntity
8
0
100
AcDbSpline
70
0
71
2
72
6
73
3
74
0
42
0.000000001
43
0.0000000001
44
0.0000000001
40
0
40
0
40
0
40
1
40
1
40
1
10
18.155685101800874
20
2.7413450469139118
30
0
10
18.335114884574992
20
2.5619154880420929
30
0
10
18.631028929589949
20
2.613284462371178
30
0
0
SPLINE
5
320
100
AcDbEntity
8
0
100
AcDbSpline
70
0
71
2
72
6
73
3
74
0
42
0.000000001
43
0.0000000001
44
0.0000000001
40
0
40
0
40
0
40
1
40
1
40
1
10
18.631028929589949
20
2.613284462371178
30
0
10
18.926942763870535
20
2.6646536474343741
30
0
10
19.447867160465492
20
3.1855786940727402
30
0
0
SPLINE
5
321
100
AcDbEntity
8
0
100
AcDbSpline
70
0
71
2
72
6
73
3
74
0
42
0.000000001
43
0.0000000001
44
0.0000000001
40
0
40
0
40
0
40
1
40
1
40
1
10
19.447867160465492
20
3.1855786940727402
30
0
10
19.971685357873675
20
3.7093975451354004
30
0
10
20.021607273270977
20
4.00386454130647
30
0
0
SPLINE
5
322
100
AcDbEntity
8
0
100
AcDbSpline
70
0
71
2
72
6
73
3
74
0
42
0.000000001
43
0.0000000001
44
0.0000000001
40
0
40
0
40
0
40
1
40
1
40
1
10
20.021607273270977
20
4.00386454130647
30
0
10
20.071528977933898
20
4.2983317482116492
30
0
10
19.889205180001127
20
4.4806553186308129
30
0
0
SPLINE
5
323
100
AcDbEntity
8
0
100
AcDbSpline
70
0
71
2
72
6
73
3
74
0
42
0.000000001
43
0.0000000001
44
0.0000000001
40
0
40
0
40
0
40
1
40
1
40
1
10
19.889205180001127
20
4.4806553186308129
30
0
10
19.709775607961383
20
4.6600846667685207
30
0
10
19.450760281818077
20
4.6152269820881155
30
0
0
SPLINE
5
324
100
AcDbEntity
8
0
100
AcDbSpline
70
0
71
2
72
6
73
3
74
0
42
0.000000001
43
0.0000000001
44
0.0000000001
40
0
40
0
40
0
40
1
40
1
40
1
10
19.450760281818077
20
4.6152269820881155
30
0
10
19.122288538864048
20
4.5558992926738542
30
0
10
18.599917347229535
20
4.0335274491905277
30
0
0
LINE
5
325
100
AcDbEntity
8
0
100
AcDbLine
10
-7.979877481496267
20
-0.53615260726144087
30
0
11
-7.6053892469763085
21
-0.50341028577019953
31
0
0
SPLINE
5
326
100
AcDbEntity
8
0
100
AcDbSpline
70
0
71
2
72
6
73
3
74
0
42
0.000000001
43
0.0000000001
44
0.0000000001
40
0
40
0
40
0
40
1
40
1
40
1
10
-7.6053892469763085
20
-0.50341028577019942
30
0
10
-7.5787862038969322
20
-0.7285125911824919
30
0
10
-7.4815829491972252
20
-0.87278265362908614
30
0
0
SPLINE
5
327
100
AcDbEntity
8
0
100
AcDbSpline
70
0
71
2
72
6
73
3
74
0
42
0.000000001
43
0.0000000001
44
0.0000000001
40
0
40
0
40
0
40
1
40
1
40
1
10
-7.4815829491972252
20
-0.87278265362908614
30
0
10
-7.3843796944975182
20
-1.0170530140989043
30
0
10
-7.1797411537527367
20
-1.1060707629316062
30
0
0
SPLINE
5
328
100
AcDbEntity
8
0
100
AcDbSpline
70
0
71
2
72
6
73
3
74
0
42
0.000000001
43
0.0000000001
44
0.0000000001
40
0
40
0
40
0
40
1
40
1
40
1
10
-7.1797411537527367
20
-1.1060707629316062
30
0
10
-6.9751026130079552
20
-1.1950885117643102
30
0
10
-6.7193046605943962
20
-1.1950885117643102
30
0
0
SPLINE
5
329
100
AcDbEntity
8
0
100
AcDbSpline
70
0
71
2
72
6
73
3
74
0
42
0.000000001
43
0.0000000001
44
0.0000000001
40
0
40
0
40
0
40
1
40
1
40
1
10
-6.7193046605943962
20
-1.1950885117643102
30
0
10
-6.4921559787153527
20
-1.1950885117643102
30
0
10
-6.3182132339834496
20
-1.1275576413266881
30
0
0
SPLINE
5
330
100
AcDbEntity
8
0
100
AcDbSpline
70
0
71
2
72
6
73
3
74
0
42
0.000000001
43
0.0000000001
44
0.0000000001
40
0
40
0
40
0
40
1
40
1
40
1
10
-6.3182132339834496
20
-1.1275576413266881
30
0
10
-6.1442704892515465
20
-1.0600270689122893
30
0
10
-6.0593454933523461
20
-0.94235975152184737
30
0
0
SPLINE
5
331
100
AcDbEntity
8
0
100
AcDbSpline
70
0
71
2
72
6
73
3
74
0
42
0.000000001
43
0.0000000001
44
0.0000000001
40
0
40
0
40
0
40
1
40
1
40
1
10
-6.0593454933523461
20
-0.94235975152184737
30
0
10
-5.9744204974531456
20
-0.82469273215462935
30
0
10
-5.9744204974531456
20
-0.68553853636910689
30
0
0
SPLINE
5
332
100
AcDbEntity
8
0
100
AcDbSpline
70
0
71
2
72
6
73
3
74
0
42
0.000000001
43
0.0000000001
44
0.0000000001
40
0
40
0
40
0
40
1
40
1
40
1
10
-5.9744204974531456
20
-0.68553853636910689
30
0
10
-5.9744204974531456
20
-0.54433811312844527
30
0
10
-6.0562760031580254
20
-0.43894905453850996
30
0
0
SPLINE
5
333
100
AcDbEntity
8
0
100
AcDbSpline
70
0
71
2
72
6
73
3
74
0
42
0.000000001
43
0.0000000001
44
0.0000000001
40
0
40
0
40
0
40
1
40
1
40
1
10
-6.0562760031580254
20
-0.43894905453850996
30
0
10
-6.1381313598512932
20
-0.33356029397179854
30
0
10
-6.3263987398504531
20
-0.26193696862389815
30
0
0
SPLINE
5
334
100
AcDbEntity
8
0
100
AcDbSpline
70
0
71
2
72
6
73
3
74
0
42
0.000000001
43
0.0000000001
44
0.0000000001
40
0
40
0
40
0
40
1
40
1
40
1
10
-6.3263987398504531
20
-0.26193696862389815
30
0
10
-6.4471353984236037
20
-0.21486986285378706
30
0
10
-6.860505083835057
20
-0.11562038069894087
30
0
0
SPLINE
5
335
100
AcDbEntity
8
0
100
AcDbSpline
70
0
71
2
72
6
73
3
74
0
42
0.000000001
43
0.0000000001
44
0.0000000001
40
0
40
0
40
0
40
1
40
1
40
1
10
-6.860505083835057
20
-0.11562038069894087
30
0
10
-7.2738750672697341
20
-0.016370600520870804
30
0
10
-7.4396320081114089
20
0.071624034584262253
30
0
0
SPLINE
5
336
100
AcDbEntity
8
0
100
AcDbSpline
70
0
71
2
72
6
73
3
74
0
42
0.000000001
43
0.0000000001
44
0.0000000001
40
0
40
0
40
0
40
1
40
1
40
1
10
-7.4396320081114089
20
0.071624034584262253
30
0
10
-7.6545025802015578
20
0.18417488926718462
30
0
10
-7.7598913407682684
20
0.35095524185965288
30
0
0
SPLINE
5
337
100
AcDbEntity
8
0
100
AcDbSpline
70
0
71
2
72
6
73
3
74
0
42
0.000000001
43
0.0000000001
44
0.0000000001
40
0
40
0
40
0
40
1
40
1
40
1
10
-7.7598913407682684
20
0.35095524185965288
30
0
10
-7.8652801013349798
20
0.51773559445212114
30
0
10
-7.8652801013349798
20
0.72442066067526567
30
0
0
SPLINE
5
338
100
AcDbEntity
8
0
100
AcDbSpline
70
0
71
2
72
6
73
3
74
0
42
0.000000001
43
0.0000000001
44
0.0000000001
40
0
40
0
40
0
40
1
40
1
40
1
10
-7.8652801013349798
20
0.72442066067526567
30
0
10
-7.8652801013349798
20
0.95156949156592119
30
0
10
-7.7363579368948248
20
1.149045342148044
30
0
0
SPLINE
5
339
100
AcDbEntity
8
0
100
AcDbSpline
70
0
71
2
72
6
73
3
74
0
42
0.000000001
43
0.0000000001
44
0.0000000001
40
0
40
0
40
0
40
1
40
1
40
1
10
-7.7363579368948248
20
1.149045342148044
30
0
10
-7.6074354744314459
20
1.3465214907533907
30
0
10
-7.3598231768965032
20
1.4488409101373934
30
0
0
SPLINE
5
340
100
AcDbEntity
8
0
100
AcDbSpline
70
0
71
2
72
6
73
3
74
0
42
0.000000001
43
0.0000000001
44
0.0000000001
40
0
40
0
40
0
40
1
40
1
40
1
10
-7.3598231768965032
20
1.4488409101373934
30
0
10
-7.1122105813383367
20
1.5511600314981722
30
0
10
-6.8093455231546667
20
1.5511600314981722
30
0
0
SPLINE
5
341
100
AcDbEntity
8
0
100
AcDbSpline
70
0
71
2
72
6
73
3
74
0
42
0.000000001
43
0.0000000001
44
0.0000000001
40
0
40
0
40
0
40
1
40
1
40
1
10
-6.8093455231546667
20
1.5511600314981722
30
0
10
-6.4757848179697302
20
1.5511600314981722
30
0
10
-6.2210099792837408
20
1.4437247454530975
30
0
0
SPLINE
5
342
100
AcDbEntity
8
0
100
AcDbSpline
70
0
71
2
72
6
73
3
74
0
42
0.000000001
43
0.0000000001
44
0.0000000001
40
0
40
0
40
0
40
1
40
1
40
1
10
-6.2210099792837408
20
1.4437247454530975
30
0
10
-5.9662349915861395
20
1.3362897574312471
30
0
10
-5.8291271722673681
20
1.1275584637529628
30
0
0
SPLINE
5
343
100
AcDbEntity
8
0
100
AcDbSpline
70
0
71
2
72
6
73
3
74
0
42
0.000000001
43
0.0000000001
44
0.0000000001
40
0
40
0
40
0
40
1
40
1
40
1
10
-5.8291271722673681
20
1.1275584637529628
30
0
10
-5.6920195019602087
20
0.91882717007467918
30
0
10
-5.6817874706148412
20
0.65484356278250389
30
0
0
LINE
5
344
100
AcDbEntity
8
0
100
AcDbLine
10
-5.6817874706148412
20
0.65484356278250389
30
0
11
-6.0624151325582769
21
0.62619399422476474
31
0
0
SPLINE
5
345
100
AcDbEntity
8
0
100
AcDbSpline
70
0
71
2
72
6
73
3
74
0
42
0.000000001
43
0.0000000001
44
0.0000000001
40
0
40
0
40
0
40
1
40
1
40
1
10
-6.0624151325582769
20
0.62619399422476518
30
0
10
-6.0931109285711553
20
0.91064166420767534
30
0
10
-6.2701231634973791
20
1.0559348403818392
30
0
0
SPLINE
5
346
100
AcDbEntity
8
0
100
AcDbSpline
70
0
71
2
72
6
73
3
74
0
42
0.000000001
43
0.0000000001
44
0.0000000001
40
0
40
0
40
0
40
1
40
1
40
1
10
-6.2701231634973791
20
1.0559348403818392
30
0
10
-6.4471353984236028
20
1.2012283145792269
30
0
10
-6.792974362409046
20
1.2012283145792269
30
0
0
SPLINE
5
347
100
AcDbEntity
8
0
100
AcDbSpline
70
0
71
2
72
6
73
3
74
0
42
0.000000001
43
0.0000000001
44
0.0000000001
40
0
40
0
40
0
40
1
40
1
40
1
10
-6.792974362409046
20
1.2012283145792269
30
0
10
-7.1531381106733587
20
1.2012283145792269
30
0
10
-7.3178722358106878
20
1.0692365109331392
30
0
0
SPLINE
5
348
100
AcDbEntity
8
0
100
AcDbSpline
70
0
71
2
72
6
73
3
74
0
42
0.000000001
43
0.0000000001
44
0.0000000001
40
0
40
0
40
0
40
1
40
1
40
1
10
-7.3178722358106878
20
1.0692365109331392
30
0
10
-7.482606062924793
20
0.93724470728705156
30
0
10
-7.482606062924793
20
0.75102370375464189
30
0
0
SPLINE
5
349
100
AcDbEntity
8
0
100
AcDbSpline
70
0
71
2
72
6
73
3
74
0
42
0.000000001
43
0.0000000001
44
0.0000000001
40
0
40
0
40
0
40
1
40
1
40
1
10
-7.482606062924793
20
0.75102370375464189
30
0
10
-7.482606062924793
20
0.58935921782324541
30
0
10
-7.3659621572851446
20
0.48499357098410356
30
0
0
SPLINE
5
350
100
AcDbEntity
8
0
100
AcDbSpline
70
0
71
2
72
6
73
3
74
0
42
0.000000001
43
0.0000000001
44
0.0000000001
40
0
40
0
40
0
40
1
40
1
40
1
10
-7.3659621572851446
20
0.48499357098410356
30
0
10
-7.2513647771238592
20
0.38062822216818559
30
0
10
-6.7673945820688521
20
0.27114641064474809
30
0
0
SPLINE
5
351
100
AcDbEntity
8
0
100
AcDbSpline
70
0
71
2
72
6
73
3
74
0
42
0.000000001
43
0.0000000001
44
0.0000000001
40
0
40
0
40
0
40
1
40
1
40
1
10
-6.7673945820688521
20
0.27114641064474809
30
0
10
-6.2834246850370681
20
0.16166489714453447
30
0
10
-6.1033428109049117
20
0.079809540451266647
30
0
0
SPLINE
5
352
100
AcDbEntity
8
0
100
AcDbSpline
70
0
71
2
72
6
73
3
74
0
42
0.000000001
43
0.0000000001
44
0.0000000001
40
0
40
0
40
0
40
1
40
1
40
1
10
-6.1033428109049117
20
0.079809540451266647
30
0
10
-5.8414055800794875
20
-0.04092741614510842
30
0
10
-5.7165760195612227
20
-0.22612500792672463
30
0
0
SPLINE
5
353
100
AcDbEntity
8
0
100
AcDbSpline
70
0
71
2
72
6
73
3
74
0
42
0.000000001
43
0.0000000001
44
0.0000000001
40
0
40
0
40
0
40
1
40
1
40
1
10
-5.7165760195612227
20
-0.22612500792672463
30
0
10
-5.5917464590429589
20
-0.41132289773156472
30
0
10
-5.5917464590429589
20
-0.65279651290108986
30
0
0
SPLINE
5
354
100
AcDbEntity
8
0
100
AcDbSpline
70
0
71
2
72
6
73
3
74
0
42
0.000000001
43
0.0000000001
44
0.0000000001
40
0
40
0
40
0
40
1
40
1
40
1
10
-5.5917464590429589
20
-0.65279651290108986
30
0
10
-5.5917464590429589
20
-0.8922233045690281
30
0
10
-5.7288544273733422
20
-1.1040239394300206
30
0
0
SPLINE
5
355
100
AcDbEntity
8
0
100
AcDbSpline
70
0
71
2
72
6
73
3
74
0
42
0.000000001
43
0.0000000001
44
0.0000000001
40
0
40
0
40
0
40
1
40
1
40
1
10
-5.7288544273733422
20
-1.1040239394300206
30
0
10
-5.8659620976805016
20
-1.3158248723142369
30
0
10
-6.122783461844854
20
-1.4334921897046788
30
0
0
SPLINE
5
356
100
AcDbEntity
8
0
100
AcDbSpline
70
0
71
2
72
6
73
3
74
0
42
0.000000001
43
0.0000000001
44
0.0000000001
40
0
40
0
40
0
40
1
40
1
40
1
10
-6.122783461844854
20
-1.4334921897046788
30
0
10
-6.3796046769975954
20
-1.5511595070951207
30
0
10
-6.7008871233820253
20
-1.5511595070951207
30
0
0
SPLINE
5
357
100
AcDbEntity
8
0
100
AcDbSpline
70
0
71
2
72
6
73
3
74
0
42
0.000000001
43
0.0000000001
44
0.0000000001
40
0
40
0
40
0
40
1
40
1
40
1
10
-6.7008871233820253
20
-1.5511595070951207
30
0
10
-7.1081178284048372
20
-1.5511595070951194
30
0
10
-7.3833562827467247
20
-1.4324687779538841
30
0
0
SPLINE
5
358
100
AcDbEntity
8
0
100
AcDbSpline
70
0
71
2
72
6
73
3
74
0
42
0.000000001
43
0.0000000001
44
0.0000000001
40
0
40
0
40
0
40
1
40
1
40
1
10
-7.3833562827467247
20
-1.4324687779538841
30
0
10
-7.658595035111837
20
-1.3137786448590965
30
0
10
-7.8151436543821617
20
-1.0753749669187278
30
0
0
SPLINE
5
359
100
AcDbEntity
8
0
100
AcDbSpline
70
0
71
2
72
6
73
3
74
0
42
0.000000001
43
0.0000000001
44
0.0000000001
40
0
40
0
40
0
40
1
40
1
40
1
10
-7.8151436543821617
20
-1.0753749669187278
30
0
10
-7.9716919756292626
20
-0.83697099095513594
30
0
10
-7.979877481496267
20
-0.53615260726144087
30
0
0
LINE
5
360
100
AcDbEntity
8
0
100
AcDbLine
10
-3.6087997651457115
20
-0.80013621455361672
30
0
11
-3.2281722522138878
21
-0.84720302230050404
31
0
0
SPLINE
5
361
100
AcDbEntity
8
0
100
AcDbSpline
70
0
71
2
72
6
73
3
74
0
42
0.000000001
43
0.0000000001
44
0.0000000001
40
0
40
0
40
0
40
1
40
1
40
1
10
-3.2281722522138878
20
-0.84720302230050448
30
0
10
-3.31821311477416
20
-1.1807637274854406
30
0
10
-3.5617329573988248
20
-1.3649385035627111
30
0
0
SPLINE
5
362
100
AcDbEntity
8
0
100
AcDbSpline
70
0
71
2
72
6
73
3
74
0
42
0.000000001
43
0.0000000001
44
0.0000000001
40
0
40
0
40
0
40
1
40
1
40
1
10
-3.5617329573988248
20
-1.3649385035627111
30
0
10
-3.8052525020002652
20
-1.5491126835935338
30
0
10
-4.1838337874769502
20
-1.5491126835935338
30
0
0
SPLINE
5
363
100
AcDbEntity
8
0
100
AcDbSpline
70
0
71
2
72
6
73
3
74
0
42
0.000000001
43
0.0000000001
44
0.0000000001
40
0
40
0
40
0
40
1
40
1
40
1
10
-4.1838337874769502
20
-1.5491126835935338
30
0
10
-4.6606414413809114
20
-1.5491126835935338
30
0
10
-4.9399729466795259
20
-1.2554566920392736
30
0
0
SPLINE
5
364
100
AcDbEntity
8
0
100
AcDbSpline
70
0
71
2
72
6
73
3
74
0
42
0.000000001
43
0.0000000001
44
0.0000000001
40
0
40
0
40
0
40
1
40
1
40
1
10
-4.9399729466795259
20
-1.2554566920392736
30
0
10
-5.2193044519781395
20
-0.96180040246178933
30
0
10
-5.2193044519781395
20
-0.4317866623990757
30
0
0
SPLINE
5
365
100
AcDbEntity
8
0
100
AcDbSpline
70
0
71
2
72
6
73
3
74
0
42
0.000000001
43
0.0000000001
44
0.0000000001
40
0
40
0
40
0
40
1
40
1
40
1
10
-5.2193044519781395
20
-0.4317866623990757
30
0
10
-5.2193044519781386
20
0.11664431685278587
30
0
10
-4.9369033074735906
20
0.41950952404806785
30
0
0
SPLINE
5
366
100
AcDbEntity
8
0
100
AcDbSpline
70
0
71
2
72
6
73
3
74
0
42
0.000000001
43
0.0000000001
44
0.0000000001
40
0
40
0
40
0
40
1
40
1
40
1
10
-4.9369033074735906
20
0.41950952404806785
30
0
10
-4.6545024609922674
20
0.72237443322012596
30
0
10
-4.2042978501676824
20
0.72237443322012596
30
0
0
SPLINE
5
367
100
AcDbEntity
8
0
100
AcDbSpline
70
0
71
2
72
6
73
3
74
0
42
0.000000001
43
0.0000000001
44
0.0000000001
40
0
40
0
40
0
40
1
40
1
40
1
10
-4.2042978501676824
20
0.72237443322012596
30
0
10
-3.7684177255987432
20
0.72237443322012596
30
0
10
-3.4921558595060613
20
0.42564850443670865
30
0
0
SPLINE
5
368
100
AcDbEntity
8
0
100
AcDbSpline
70
0
71
2
72
6
73
3
74
0
42
0.000000001
43
0.0000000001
44
0.0000000001
40
0
40
0
40
0
40
1
40
1
40
1
10
-3.4921558595060613
20
0.42564850443670865
30
0
10
-3.2158936953901565
20
0.1289225756532919
30
0
10
-3.2158936953901569
20
-0.40927667027642611
30
0
0
SPLINE
5
369
100
AcDbEntity
8
0
100
AcDbSpline
70
0
71
2
72
6
73
3
74
0
42
0.000000001
43
0.0000000001
44
0.0000000001
40
0
40
0
40
0
40
1
40
1
40
1
10
-3.2158936953901569
20
-0.40927667027642611
30
0
10
-3.2158936953901569
20
-0.44201869374444369
30
0
10
-3.2179405188917438
20
-0.50750303870370272
30
0
0
LINE
5
370
100
AcDbEntity
8
0
100
AcDbLine
10
-3.2179405188917438
20
-0.50750303870370272
30
0
11
-4.8386769390463149
21
-0.50750303870370228
31
0
0
SPLINE
5
371
100
AcDbEntity
8
0
100
AcDbSpline
70
0
71
2
72
6
73
3
74
0
42
0.000000001
43
0.0000000001
44
0.0000000001
40
0
40
0
40
0
40
1
40
1
40
1
10
-4.8386769390463149
20
-0.50750303870370217
30
0
10
-4.8182131743788048
20
-0.86562026148965188
30
0
10
-4.6360849237798973
20
-1.0559340179555639
30
0
0
SPLINE
5
372
100
AcDbEntity
8
0
100
AcDbSpline
70
0
71
2
72
6
73
3
74
0
42
0.000000001
43
0.0000000001
44
0.0000000001
40
0
40
0
40
0
40
1
40
1
40
1
10
-4.6360849237798973
20
-1.0559340179555639
30
0
10
-4.4539566731809908
20
-1.2462477744214757
30
0
10
-4.1817875600218111
20
-1.2462477744214757
30
0
0
SPLINE
5
373
100
AcDbEntity
8
0
100
AcDbSpline
70
0
71
2
72
6
73
3
74
0
42
0.000000001
43
0.0000000001
44
0.0000000001
40
0
40
0
40
0
40
1
40
1
40
1
10
-4.1817875600218111
20
-1.2462477744214757
30
0
10
-3.9791955447553922
20
-1.2462477744214757
30
0
10
-3.8359482980131432
20
-1.1398361981504186
30
0
0
SPLINE
5
374
100
AcDbEntity
8
0
100
AcDbSpline
70
0
71
2
72
6
73
3
74
0
42
0.000000001
43
0.0000000001
44
0.0000000001
40
0
40
0
40
0
40
1
40
1
40
1
10
-3.8359482980131432
20
-1.1398361981504186
30
0
10
-3.6927016473173424
20
-1.0334240258329137
30
0
10
-3.6087997651457115
20
-0.80013621455361672
30
0
0
LINE
5
375
100
AcDbEntity
8
0
100
AcDbLine
10
-4.8182131743788039
20
-0.20463812953164406
30
0
11
-3.6047070122122089
21
-0.20463812953164437
31
0
0
SPLINE
5
376
100
AcDbEntity
8
0
100
AcDbSpline
70
0
71
2
72
6
73
3
74
0
42
0.000000001
43
0.0000000001
44
0.0000000001
40
0
40
0
40
0
40
1
40
1
40
1
10
-3.6047070122122085
20
-0.20463812953164406
30
0
10
-3.6292638278364455
20
0.069577509105898661
30
0
10
-3.7438612079977309
20
0.20668517941305808
30
0
0
SPLINE
5
377
100
AcDbEntity
8
0
100
AcDbSpline
70
0
71
2
72
6
73
3
74
0
42
0.000000001
43
0.0000000001
44
0.0000000001
40
0
40
0
40
0
40
1
40
1
40
1
10
-3.7438612079977309
20
0.20668517941305808
30
0
10
-3.9198501801847723
20
0.41950952404806785
30
0
10
-4.2002047992109564
20
0.41950952404806785
30
0
0
SPLINE
5
378
100
AcDbEntity
8
0
100
AcDbSpline
70
0
71
2
72
6
73
3
74
0
42
0.000000001
43
0.0000000001
44
0.0000000001
40
0
40
0
40
0
40
1
40
1
40
1
10
-4.2002047992109564
20
0.41950952404806785
30
0
10
-4.4539566731809881
20
0.41950952404806785
30
0
10
-4.6268760061620986
20
0.24965953224966697
30
0
0
SPLINE
5
379
100
AcDbEntity
8
0
100
AcDbSpline
70
0
71
2
72
6
73
3
74
0
42
0.000000001
43
0.0000000001
44
0.0000000001
40
0
40
0
40
0
40
1
40
1
40
1
10
-4.6268760061620986
20
0.24965953224966697
30
0
10
-4.7997956371664321
20
0.079809540451266092
30
0
10
-4.8182131743788039
20
-0.20463812953164406
30
0
0
LINE
5
380
100
AcDbEntity
8
0
100
AcDbLine
10
-1.3475449777006432
20
-0.70395607358147982
30
0
11
-0.98533470395796741
21
-0.75102288132836714
31
0
0
SPLINE
5
381
100
AcDbEntity
8
0
100
AcDbSpline
70
0
71
2
72
6
73
3
74
0
42
0.000000001
43
0.0000000001
44
0.0000000001
40
0
40
0
40
0
40
1
40
1
40
1
10
-0.98533470395796741
20
-0.75102288132836759
30
0
10
-1.0446800685285851
20
-1.1255114138715498
30
0
10
-1.2892230248808194
20
-1.3373123467557662
30
0
0
SPLINE
5
382
100
AcDbEntity
8
0
100
AcDbSpline
70
0
71
2
72
6
73
3
74
0
42
0.000000001
43
0.0000000001
44
0.0000000001
40
0
40
0
40
0
40
1
40
1
40
1
10
-1.2892230248808194
20
-1.3373123467557662
30
0
10
-1.5337659812330533
20
-1.5491126835935347
30
0
10
-1.8898369765638638
20
-1.5491126835935347
30
0
0
SPLINE
5
383
100
AcDbEntity
8
0
100
AcDbSpline
70
0
71
2
72
6
73
3
74
0
42
0.000000001
43
0.0000000001
44
0.0000000001
40
0
40
0
40
0
40
1
40
1
40
1
10
-1.8898369765638638
20
-1.5491126835935347
30
0
10
-2.3359485364317232
20
-1.5491126835935347
30
0
10
-2.6070948338865563
20
-1.2575029194944127
30
0
0
SPLINE
5
384
100
AcDbEntity
8
0
100
AcDbSpline
70
0
71
2
72
6
73
3
74
0
42
0.000000001
43
0.0000000001
44
0.0000000001
40
0
40
0
40
0
40
1
40
1
40
1
10
-2.6070948338865563
20
-1.2575029194944127
30
0
10
-2.8782405352949425
20
-0.96589315539529208
30
0
10
-2.8782405352949421
20
-0.42155492907693271
30
0
0
SPLINE
5
385
100
AcDbEntity
8
0
100
AcDbSpline
70
0
71
2
72
6
73
3
74
0
42
0.000000001
43
0.0000000001
44
0.0000000001
40
0
40
0
40
0
40
1
40
1
40
1
10
-2.8782405352949421
20
-0.42155492907693271
30
0
10
-2.8782405352949416
20
-0.069576686679624355
30
0
10
-2.7615966296552932
20
0.19440692061255094
30
0
0
SPLINE
5
386
100
AcDbEntity
8
0
100
AcDbSpline
70
0
71
2
72
6
73
3
74
0
42
0.000000001
43
0.0000000001
44
0.0000000001
40
0
40
0
40
0
40
1
40
1
40
1
10
-2.7615966296552932
20
0.19440692061255094
30
0
10
-2.6449527240156439
20
0.45839082592795011
30
0
10
-2.4065490460752752
20
0.59038233155081388
30
0
0
SPLINE
5
387
100
AcDbEntity
8
0
100
AcDbSpline
70
0
71
2
72
6
73
3
74
0
42
0.000000001
43
0.0000000001
44
0.0000000001
40
0
40
0
40
0
40
1
40
1
40
1
10
-2.4065490460752752
20
0.59038233155081388
30
0
10
-2.1681447720884588
20
0.7223744332201254
30
0
10
-1.8877901530622747
20
0.7223744332201254
30
0
0
SPLINE
5
388
100
AcDbEntity
8
0
100
AcDbSpline
70
0
71
2
72
6
73
3
74
0
42
0.000000001
43
0.0000000001
44
0.0000000001
40
0
40
0
40
0
40
1
40
1
40
1
10
-1.8877901530622747
20
0.7223744332201254
30
0
10
-1.5337659812330511
20
0.7223744332201254
30
0
10
-1.3086636758207586
20
0.54331552380392611
30
0
0
SPLINE
5
389
100
AcDbEntity
8
0
100
AcDbSpline
70
0
71
2
72
6
73
3
74
0
42
0.000000001
43
0.0000000001
44
0.0000000001
40
0
40
0
40
0
40
1
40
1
40
1
10
-1.3086636758207586
20
0.54331552380392611
30
0
10
-1.0835613704084661
20
0.36425691241095126
30
0
10
-1.0201235509275708
20
0.034788960159516935
30
0
0
LINE
5
390
100
AcDbEntity
8
0
100
AcDbLine
10
-1.0201235509275708
20
0.034788960159516935
30
0
11
-1.3782407737135205
21
-0.02046335345437458
31
0
0
SPLINE
5
391
100
AcDbEntity
8
0
100
AcDbSpline
70
0
71
2
72
6
73
3
74
0
42
0.000000001
43
0.0000000001
44
0.0000000001
40
0
40
0
40
0
40
1
40
1
40
1
10
-1.3782407737135205
20
-0.020463353454374111
30
0
10
-1.429400036370686
20
0.19849967354605313
30
0
10
-1.5593453145384106
20
0.30900459879706021
30
0
0
SPLINE
5
392
100
AcDbEntity
8
0
100
AcDbSpline
70
0
71
2
72
6
73
3
74
0
42
0.000000001
43
0.0000000001
44
0.0000000001
40
0
40
0
40
0
40
1
40
1
40
1
10
-1.5593453145384106
20
0.30900459879706021
30
0
10
-1.6892911887525823
20
0.41950952404806729
30
0
10
-1.8734653687834051
20
0.41950952404806729
30
0
0
SPLINE
5
393
100
AcDbEntity
8
0
100
AcDbSpline
70
0
71
2
72
6
73
3
74
0
42
0.000000001
43
0.0000000001
44
0.0000000001
40
0
40
0
40
0
40
1
40
1
40
1
10
-1.8734653687834051
20
0.41950952404806729
30
0
10
-2.15177376035445
20
0.41950952404806729
30
0
10
-2.3257168031095774
20
0.21998684996435758
30
0
0
SPLINE
5
394
100
AcDbEntity
8
0
100
AcDbSpline
70
0
71
2
72
6
73
3
74
0
42
0.000000001
43
0.0000000001
44
0.0000000001
40
0
40
0
40
0
40
1
40
1
40
1
10
-2.3257168031095774
20
0.21998684996435758
30
0
10
-2.499659249818257
20
0.020464175880647861
30
0
10
-2.4996592498182575
20
-0.41132289773156527
30
0
0
SPLINE
5
395
100
AcDbEntity
8
0
100
AcDbSpline
70
0
71
2
72
6
73
3
74
0
42
0.000000001
43
0.0000000001
44
0.0000000001
40
0
40
0
40
0
40
1
40
1
40
1
10
-2.4996592498182575
20
-0.41132289773156527
30
0
10
-2.4996592498182579
20
-0.84924924975564364
30
0
10
-2.3318560815214444
20
-1.0477485120885599
30
0
0
SPLINE
5
396
100
AcDbEntity
8
0
100
AcDbSpline
70
0
71
2
72
6
73
3
74
0
42
0.000000001
43
0.0000000001
44
0.0000000001
40
0
40
0
40
0
40
1
40
1
40
1
10
-2.3318560815214444
20
-1.0477485120885599
30
0
10
-2.1640523171781827
20
-1.2462477744214766
30
0
10
-1.8939294314741422
20
-1.2462477744214766
30
0
0
SPLINE
5
397
100
AcDbEntity
8
0
100
AcDbSpline
70
0
71
2
72
6
73
3
74
0
42
0.000000001
43
0.0000000001
44
0.0000000001
40
0
40
0
40
0
40
1
40
1
40
1
10
-1.8939294314741422
20
-1.2462477744214766
30
0
10
-1.6770126319288541
20
-1.2462477744214766
30
0
10
-1.5317197537779137
20
-1.1132328570478194
30
0
0
SPLINE
5
398
100
AcDbEntity
8
0
100
AcDbSpline
70
0
71
2
72
6
73
3
74
0
42
0.000000001
43
0.0000000001
44
0.0000000001
40
0
40
0
40
0
40
1
40
1
40
1
10
-1.5317197537779137
20
-1.1132328570478194
30
0
10
-1.386426279580526
20
-0.98021793967416171
30
0
10
-1.3475449777006432
20
-0.70395607358147982
30
0
0
SPLINE
5
399
100
AcDbEntity
8
0
100
AcDbSpline
70
0
71
2
72
6
73
3
74
0
42
0.000000001
43
0.0000000001
44
0.0000000001
40
0
40
0
40
0
40
1
40
1
40
1
10
-0.80729920629256158
20
-0.41336942320992887
30
0
10
-0.80729920629256102
20
0.19031416767904819
30
0
10
-0.47169227365248478
20
0.4809008180505997
30
0
0
SPLINE
5
400
100
AcDbEntity
8
0
100
AcDbSpline
70
0
71
2
72
6
73
3
74
0
42
0.000000001
43
0.0000000001
44
0.0000000001
40
0
40
0
40
0
40
1
40
1
40
1
10
-0.47169227365248478
20
0.4809008180505997
30
0
10
-0.1913376546263007
20
0.72237443322012485
30
0
10
0.21180014845139705
20
0.72237443322012485
30
0
0
SPLINE
5
401
100
AcDbEntity
8
0
100
AcDbSpline
70
0
71
2
72
6
73
3
74
0
42
0.000000001
43
0.0000000001
44
0.0000000001
40
0
40
0
40
0
40
1
40
1
40
1
10
0.21180014845139705
20
0.72237443322012485
30
0
10
0.65995853182084341
20
0.72237443322012485
30
0
10
0.94440620180375245
20
0.42871784561941628
30
0
0
SPLINE
5
402
100
AcDbEntity
8
0
100
AcDbSpline
70
0
71
2
72
6
73
3
74
0
42
0.000000001
43
0.0000000001
44
0.0000000001
40
0
40
0
40
0
40
1
40
1
40
1
10
0.94440620180375245
20
0.42871784561941628
30
0
10
1.2288538717866626
20
0.13506185406515603
30
0
10
1.2288538717866626
20
-0.382673627197051
30
0
0
SPLINE
5
403
100
AcDbEntity
8
0
100
AcDbSpline
70
0
71
2
72
6
73
3
74
0
42
0.000000001
43
0.0000000001
44
0.0000000001
40
0
40
0
40
0
40
1
40
1
40
1
10
1.2288538717866626
20
-0.382673627197051
30
0
10
1.2288538717866615
20
-0.80218244200875755
30
0
10
1.1030010485292152
20
-1.0426326454274892
30
0
0
SPLINE
5
404
100
AcDbEntity
8
0
100
AcDbSpline
70
0
71
2
72
6
73
3
74
0
42
0.000000001
43
0.0000000001
44
0.0000000001
40
0
40
0
40
0
40
1
40
1
40
1
10
1.1030010485292152
20
-1.0426326454274892
30
0
10
0.97714822527176892
20
-1.2830828488462203
30
0
10
0.73669831987626
20
-1.4160977662198775
30
0
0
SPLINE
5
405
100
AcDbEntity
8
0
100
AcDbSpline
70
0
71
2
72
6
73
3
74
0
42
0.000000001
43
0.0000000001
44
0.0000000001
40
0
40
0
40
0
40
1
40
1
40
1
10
0.73669831987626
20
-1.4160977662198775
30
0
10
0.49624781843430443
20
-1.5491126835935347
30
0
10
0.21180014845139483
20
-1.5491126835935347
30
0
0
SPLINE
5
406
100
AcDbEntity
8
0
100
AcDbSpline
70
0
71
2
72
6
73
3
74
0
42
0.000000001
43
0.0000000001
44
0.0000000001
40
0
40
0
40
0
40
1
40
1
40
1
10
0.21180014845139483
20
-1.5491126835935347
30
0
10
-0.24454314473860761
20
-1.5491126835935347
30
0
10
-0.52592117551558515
20
-1.2564801037900679
30
0
0
SPLINE
5
407
100
AcDbEntity
8
0
100
AcDbSpline
70
0
71
2
72
6
73
3
74
0
42
0.000000001
43
0.0000000001
44
0.0000000001
40
0
40
0
40
0
40
1
40
1
40
1
10
-0.52592117551558515
20
-1.2564801037900679
30
0
10
-0.80729920629256213
20
-0.96384692794015348
30
0
10
-0.80729920629256158
20
-0.41336942320992887
30
0
0
SPLINE
5
408
100
AcDbEntity
8
0
100
AcDbSpline
70
0
71
2
72
6
73
3
74
0
42
0.000000001
43
0.0000000001
44
0.0000000001
40
0
40
0
40
0
40
1
40
1
40
1
10
-0.42871792081587701
20
-0.41336942320992887
30
0
10
-0.42871792081587756
20
-0.83083201056649625
30
0
10
-0.24658996824019397
20
-1.0385398924939864
30
0
0
SPLINE
5
409
100
AcDbEntity
8
0
100
AcDbSpline
70
0
71
2
72
6
73
3
74
0
42
0.000000001
43
0.0000000001
44
0.0000000001
40
0
40
0
40
0
40
1
40
1
40
1
10
-0.24658996824019397
20
-1.0385398924939864
30
0
10
-0.064461419618063176
20
-1.2462477744214766
30
0
10
0.21180014845139483
20
-1.2462477744214766
30
0
0
SPLINE
5
410
100
AcDbEntity
8
0
100
AcDbSpline
70
0
71
2
72
6
73
3
74
0
42
0.000000001
43
0.0000000001
44
0.0000000001
40
0
40
0
40
0
40
1
40
1
40
1
10
0.21180014845139483
20
-1.2462477744214766
30
0
10
0.48601608511216199
20
-1.2462477744214766
30
0
10
0.66814403768784558
20
-1.0375167787664168
30
0
0
SPLINE
5
411
100
AcDbEntity
8
0
100
AcDbSpline
70
0
71
2
72
6
73
3
74
0
42
0.000000001
43
0.0000000001
44
0.0000000001
40
0
40
0
40
0
40
1
40
1
40
1
10
0.66814403768784558
20
-1.0375167787664168
30
0
10
0.85027258630997693
20
-0.82878548508813321
30
0
10
0.85027258630997804
20
-0.40109116440942227
30
0
0
SPLINE
5
412
100
AcDbEntity
8
0
100
AcDbSpline
70
0
71
2
72
6
73
3
74
0
42
0.000000001
43
0.0000000001
44
0.0000000001
40
0
40
0
40
0
40
1
40
1
40
1
10
0.85027258630997804
20
-0.40109116440942227
30
0
10
0.85027258630997804
20
0.002046936691499357
30
0
10
0.66712122198350099
20
0.20975481861898959
30
0
0
SPLINE
5
413
100
AcDbEntity
8
0
100
AcDbSpline
70
0
71
2
72
6
73
3
74
0
42
0.000000001
43
0.0000000001
44
0.0000000001
40
0
40
0
40
0
40
1
40
1
40
1
10
0.66712122198350099
20
0.20975481861898959
30
0
10
0.48396985765702394
20
0.41746270054647983
30
0
10
0.21180014845139705
20
0.41746270054647983
30
0
0
SPLINE
5
414
100
AcDbEntity
8
0
100
AcDbSpline
70
0
71
2
72
6
73
3
74
0
42
0.000000001
43
0.0000000001
44
0.0000000001
40
0
40
0
40
0
40
1
40
1
40
1
10
0.21180014845139705
20
0.41746270054647983
30
0
10
-0.064461419618060956
20
0.41746270054647983
30
0
10
-0.24658996824019286
20
0.21077823036978305
30
0
0
SPLINE
5
415
100
AcDbEntity
8
0
100
AcDbSpline
70
0
71
2
72
6
73
3
74
0
42
0.000000001
43
0.0000000001
44
0.0000000001
40
0
40
0
40
0
40
1
40
1
40
1
10
-0.24658996824019286
20
0.21077823036978305
30
0
10
-0.42871792081587645
20
0.0040931641466385171
30
0
10
-0.42871792081587701
20
-0.41336942320992887
30
0
0
LINE
5
416
100
AcDbEntity
8
0
100
AcDbLine
10
1.6606412434220974
20
-1.4999996483915083
30
0
11
1.6606412434220998
21
0.67326080197165072
31
0
0
LINE
5
417
100
AcDbEntity
8
0
100
AcDbLine
10
1.6606412434221007
20
0.67326080197165017
30
0
11
1.9921557211518981
21
0.67326080197165006
31
0
0
LINE
5
418
100
AcDbEntity
8
0
100
AcDbLine
10
1.9921557211518981
20
0.67326080197165017
30
0
11
1.9921557211518979
21
0.36425691241095071
31
0
0
SPLINE
5
419
100
AcDbEntity
8
0
100
AcDbSpline
70
0
71
2
72
6
73
3
74
0
42
0.000000001
43
0.0000000001
44
0.0000000001
40
0
40
0
40
0
40
1
40
1
40
1
10
1.992155721151897
20
0.36425691241095071
30
0
10
2.2315828108430602
20
0.72237413519690041
30
0
10
2.6838342451692321
20
0.72237413519690041
30
0
0
SPLINE
5
420
100
AcDbEntity
8
0
100
AcDbSpline
70
0
71
2
72
6
73
3
74
0
42
0.000000001
43
0.0000000001
44
0.0000000001
40
0
40
0
40
0
40
1
40
1
40
1
10
2.6838342451692321
20
0.72237413519690041
30
0
10
2.8802863859773375
20
0.72237413519690041
30
0
10
3.0450205111146667
20
0.6517739235765696
30
0
0
SPLINE
5
421
100
AcDbEntity
8
0
100
AcDbSpline
70
0
71
2
72
6
73
3
74
0
42
0.000000001
43
0.0000000001
44
0.0000000001
40
0
40
0
40
0
40
1
40
1
40
1
10
3.0450205111146667
20
0.6517739235765696
30
0
10
3.2097546362519958
20
0.58117371195623824
30
0
10
3.2916096949220384
20
0.46657603377172896
30
0
0
SPLINE
5
422
100
AcDbEntity
8
0
100
AcDbSpline
70
0
71
2
72
6
73
3
74
0
42
0.000000001
43
0.0000000001
44
0.0000000001
40
0
40
0
40
0
40
1
40
1
40
1
10
3.2916096949220384
20
0.46657603377172896
30
0
10
3.3734647535920823
20
0.35197865361044356
30
0
10
3.4062067770600999
20
0.19440692061254927
30
0
0
SPLINE
5
423
100
AcDbEntity
8
0
100
AcDbSpline
70
0
71
2
72
6
73
3
74
0
42
0.000000001
43
0.0000000001
44
0.0000000001
40
0
40
0
40
0
40
1
40
1
40
1
10
3.4062067770600999
20
0.19440692061254927
30
0
10
3.4266714357972825
20
0.092087501228546587
30
0
10
3.4266714357972825
20
-0.16371060019662431
30
0
0
LINE
5
424
100
AcDbEntity
8
0
100
AcDbLine
10
3.4266714357972825
20
-0.16371060019662431
30
0
11
3.4266714357972812
21
-1.4999996483915097
31
0
0
LINE
5
425
100
AcDbEntity
8
0
100
AcDbLine
10
3.4266714357972807
20
-1.4999996483915097
30
0
11
3.0583218836427397
21
-1.4999996483915097
31
0
0
LINE
5
426
100
AcDbEntity
8
0
100
AcDbLine
10
3.0583218836427397
20
-1.4999996483915097
30
0
11
3.058321883642741
21
-0.17803508645227006
31
0
0
SPLINE
5
427
100
AcDbEntity
8
0
100
AcDbSpline
70
0
71
2
72
6
73
3
74
0
42
0.000000001
43
0.0000000001
44
0.0000000001
40
0
40
0
40
0
40
1
40
1
40
1
10
3.0583218836427415
20
-0.17803508645226951
30
0
10
3.0583218836427415
20
0.047067218960022972
30
0
10
3.0153481268525804
20
0.15859525793859963
30
0
0
SPLINE
5
428
100
AcDbEntity
8
0
100
AcDbSpline
70
0
71
2
72
6
73
3
74
0
42
0.000000001
43
0.0000000001
44
0.0000000001
40
0
40
0
40
0
40
1
40
1
40
1
10
3.0153481268525804
20
0.15859525793859963
30
0
10
2.9723743700624192
20
0.27012299889395242
30
0
10
2.8628925585389817
20
0.33663045758078103
30
0
0
SPLINE
5
429
100
AcDbEntity
8
0
100
AcDbSpline
70
0
71
2
72
6
73
3
74
0
42
0.000000001
43
0.0000000001
44
0.0000000001
40
0
40
0
40
0
40
1
40
1
40
1
10
2.8628925585389817
20
0.33663045758078103
30
0
10
2.7534107470155442
20
0.40313821429083352
30
0
10
2.6060704493165696
20
0.40313821429083352
30
0
0
SPLINE
5
430
100
AcDbEntity
8
0
100
AcDbSpline
70
0
71
2
72
6
73
3
74
0
42
0.000000001
43
0.0000000001
44
0.0000000001
40
0
40
0
40
0
40
1
40
1
40
1
10
2.6060704493165696
20
0.40313821429083352
30
0
10
2.3707370066285813
20
0.40313821429083352
30
0
10
2.199863603079387
20
0.25375198715994363
30
0
0
SPLINE
5
431
100
AcDbEntity
8
0
100
AcDbSpline
70
0
71
2
72
6
73
3
74
0
42
0.000000001
43
0.0000000001
44
0.0000000001
40
0
40
0
40
0
40
1
40
1
40
1
10
2.199863603079387
20
0.25375198715994363
30
0
10
2.0289901995301927
20
0.10436605805227761
30
0
10
2.0289901995301927
20
-0.31309652930428977
30
0
0
LINE
5
432
100
AcDbEntity
8
0
100
AcDbLine
10
2.0289901995301927
20
-0.31309652930428977
30
0
11
2.0289901995301913
21
-1.499999648391509
31
0
0
LINE
5
433
100
AcDbEntity
8
0
100
AcDbLine
10
2.0289901995301909
20
-1.4999996483915083
30
0
11
1.6606412434220974
21
-1.4999996483915083
31
0
0
LINE
5
434
100
AcDbEntity
8
0
100
AcDbLine
10
5.4014311337114043
20
-1.4999996483915097
30
0
11
5.4014311337114043
21
-1.2257843077771908
31
0
0
SPLINE
5
435
100
AcDbEntity
8
0
100
AcDbSpline
70
0
71
2
72
6
73
3
74
0
42
0.000000001
43
0.0000000001
44
0.0000000001
40
0
40
0
40
0
40
1
40
1
40
1
10
5.4014311337114043
20
-1.2257843077771908
30
0
10
5.194747855627603
20
-1.549112683593536
30
0
10
4.7936562800050444
20
-1.549112683593536
30
0
0
SPLINE
5
436
100
AcDbEntity
8
0
100
AcDbSpline
70
0
71
2
72
6
73
3
74
0
42
0.000000001
43
0.0000000001
44
0.0000000001
40
0
40
0
40
0
40
1
40
1
40
1
10
4.7936562800050444
20
-1.549112683593536
30
0
10
4.5337657236695952
20
-1.549112683593536
30
0
10
4.3158249163270659
20
-1.4058660328977353
30
0
0
SPLINE
5
437
100
AcDbEntity
8
0
100
AcDbSpline
70
0
71
2
72
6
73
3
74
0
42
0.000000001
43
0.0000000001
44
0.0000000001
40
0
40
0
40
0
40
1
40
1
40
1
10
4.3158249163270659
20
-1.4058660328977353
30
0
10
4.097885301077433
20
-1.2626187861554867
30
0
10
3.9781717562318519
20
-1.0057978690259701
30
0
0
SPLINE
5
438
100
AcDbEntity
8
0
100
AcDbSpline
70
0
71
2
72
6
73
3
74
0
42
0.000000001
43
0.0000000001
44
0.0000000001
40
0
40
0
40
0
40
1
40
1
40
1
10
3.9781717562318519
20
-1.0057978690259701
30
0
10
3.8584582113862709
20
-0.74897635585000566
30
0
10
3.8584582113862718
20
-0.41541565066506914
30
0
0
SPLINE
5
439
100
AcDbEntity
8
0
100
AcDbSpline
70
0
71
2
72
6
73
3
74
0
42
0.000000001
43
0.0000000001
44
0.0000000001
40
0
40
0
40
0
40
1
40
1
40
1
10
3.8584582113862718
20
-0.41541565066506914
30
0
10
3.8584582113862718
20
-0.090040451347137007
30
0
10
3.9669160151124681
20
0.17496626967260787
30
0
0
SPLINE
5
440
100
AcDbEntity
8
0
100
AcDbSpline
70
0
71
2
72
6
73
3
74
0
42
0.000000001
43
0.0000000001
44
0.0000000001
40
0
40
0
40
0
40
1
40
1
40
1
10
3.9669160151124681
20
0.17496626967260787
30
0
10
4.0753750109315598
20
0.43997299069235274
30
0
10
4.2922918104768488
20
0.58117341393301436
30
0
0
SPLINE
5
441
100
AcDbEntity
8
0
100
AcDbSpline
70
0
71
2
72
6
73
3
74
0
42
0.000000001
43
0.0000000001
44
0.0000000001
40
0
40
0
40
0
40
1
40
1
40
1
10
4.2922918104768488
20
0.58117341393301436
30
0
10
4.5092086100221369
20
0.72237413519689986
30
0
10
4.7772852682710383
20
0.72237413519689986
30
0
0
SPLINE
5
442
100
AcDbEntity
8
0
100
AcDbSpline
70
0
71
2
72
6
73
3
74
0
42
0.000000001
43
0.0000000001
44
0.0000000001
40
0
40
0
40
0
40
1
40
1
40
1
10
4.7772852682710383
20
0.72237413519689986
30
0
10
4.9737374090791437
20
0.72237413519689986
30
0
10
5.1272169851899836
20
0.63949536675283858
30
0
0
SPLINE
5
443
100
AcDbEntity
8
0
100
AcDbSpline
70
0
71
2
72
6
73
3
74
0
42
0.000000001
43
0.0000000001
44
0.0000000001
40
0
40
0
40
0
40
1
40
1
40
1
10
5.1272169851899836
20
0.63949536675283858
30
0
10
5.2806953692079279
20
0.55661689633200118
30
0
10
5.3768764042497361
20
0.42360197895834395
30
0
0
LINE
5
444
100
AcDbEntity
8
0
100
AcDbLine
10
5.3768764042497361
20
0.42360197895834395
30
0
11
5.376876404249737
21
1.500000172794556
31
0
0
LINE
5
445
100
AcDbEntity
8
0
100
AcDbLine
10
5.3768764042497388
20
1.5000001727945558
30
0
11
5.7431779408097974
21
1.5000001727945558
31
0
0
LINE
5
446
100
AcDbEntity
8
0
100
AcDbLine
10
5.7431779408097974
20
1.5000001727945558
30
0
11
5.7431779408097938
21
-1.4999996483915099
31
0
0
LINE
5
447
100
AcDbEntity
8
0
100
AcDbLine
10
5.7431779408097929
20
-1.4999996483915097
30
0
11
5.4014311337114043
21
-1.4999996483915097
31
0
0
SPLINE
5
448
100
AcDbEntity
8
0
100
AcDbSpline
70
0
71
2
72
6
73
3
74
0
42
0.000000001
43
0.0000000001
44
0.0000000001
40
0
40
0
40
0
40
1
40
1
40
1
10
4.2370394968629563
20
-0.41541565066506914
30
0
10
4.2370394968629554
20
-0.83287823802163652
30
0
10
4.4130281710267738
20
-1.0395630062215573
30
0
0
SPLINE
5
449
100
AcDbEntity
8
0
100
AcDbSpline
70
0
71
2
72
6
73
3
74
0
42
0.000000001
43
0.0000000001
44
0.0000000001
40
0
40
0
40
0
40
1
40
1
40
1
10
4.4130281710267738
20
-1.0395630062215573
30
0
10
4.5890180372834877
20
-1.2462477744214779
30
0
10
4.8284451269746498
20
-1.2462477744214779
30
0
0
SPLINE
5
450
100
AcDbEntity
8
0
100
AcDbSpline
70
0
71
2
72
6
73
3
74
0
42
0.000000001
43
0.0000000001
44
0.0000000001
40
0
40
0
40
0
40
1
40
1
40
1
10
4.8284451269746498
20
-1.2462477744214779
30
0
10
5.0699178480745033
20
-1.2462477744214779
30
0
10
5.2387444281221107
20
-1.0487719238393551
30
0
0
SPLINE
5
451
100
AcDbEntity
8
0
100
AcDbSpline
70
0
71
2
72
6
73
3
74
0
42
0.000000001
43
0.0000000001
44
0.0000000001
40
0
40
0
40
0
40
1
40
1
40
1
10
5.2387444281221107
20
-1.0487719238393551
30
0
10
5.4075704121232713
20
-0.85129577523400835
30
0
10
5.4075704121232713
20
-0.44611144667794755
30
0
0
SPLINE
5
452
100
AcDbEntity
8
0
100
AcDbSpline
70
0
71
2
72
6
73
3
74
0
42
0.000000001
43
0.0000000001
44
0.0000000001
40
0
40
0
40
0
40
1
40
1
40
1
10
5.4075704121232713
20
-0.44611144667794755
30
0
10
5.4075704121232713
20
1.1318991133268952e-07
30
0
10
5.235674788916179
20
0.20873140686819502
30
0
0
SPLINE
5
453
100
AcDbEntity
8
0
100
AcDbSpline
70
0
71
2
72
6
73
3
74
0
42
0.000000001
43
0.0000000001
44
0.0000000001
40
0
40
0
40
0
40
1
40
1
40
1
10
5.235674788916179
20
0.20873140686819502
30
0
10
5.063778569662639
20
0.41746270054647872
30
0
10
4.8120729231477464
20
0.41746270054647872
30
0
0
SPLINE
5
454
100
AcDbEntity
8
0
100
AcDbSpline
70
0
71
2
72
6
73
3
74
0
42
0.000000001
43
0.0000000001
44
0.0000000001
40
0
40
0
40
0
40
1
40
1
40
1
10
4.8120729231477464
20
0.41746270054647872
30
0
10
4.5665077471376145
20
0.41746270054647872
30
0
10
4.4017736220002854
20
0.21691691273519942
30
0
0
SPLINE
5
455
100
AcDbEntity
8
0
100
AcDbSpline
70
0
71
2
72
6
73
3
74
0
42
0.000000001
43
0.0000000001
44
0.0000000001
40
0
40
0
40
0
40
1
40
1
40
1
10
4.4017736220002854
20
0.21691691273519942
30
0
10
4.2370394968629563
20
0.016371422947143999
30
0
10
4.2370394968629563
20
-0.41541565066506914
30
0
0
LINE
5
456
100
AcDbEntity
8
0
100
AcDbLine
10
6.1749659084916795
20
-0.8512957752340089
30
0
11
6.5392218136430467
21
-0.79399693614175437
31
0
0
SPLINE
5
457
100
AcDbEntity
8
0
100
AcDbSpline
70
0
71
2
72
6
73
3
74
0
42
0.000000001
43
0.0000000001
44
0.0000000001
40
0
40
0
40
0
40
1
40
1
40
1
10
6.5392218136430467
20
-0.79399693614175426
30
0
10
6.5699182057023711
20
-1.0129599631421815
30
0
10
6.7100964092851347
20
-1.1296038687818304
30
0
0
SPLINE
5
458
100
AcDbEntity
8
0
100
AcDbSpline
70
0
71
2
72
6
73
3
74
0
42
0.000000001
43
0.0000000001
44
0.0000000001
40
0
40
0
40
0
40
1
40
1
40
1
10
6.7100964092851347
20
-1.1296038687818304
30
0
10
6.8502746128678984
20
-1.2462477744214788
30
0
10
7.101977875197
20
-1.2462477744214788
30
0
0
SPLINE
5
459
100
AcDbEntity
8
0
100
AcDbSpline
70
0
71
2
72
6
73
3
74
0
42
0.000000001
43
0.0000000001
44
0.0000000001
40
0
40
0
40
0
40
1
40
1
40
1
10
7.101977875197
20
-1.2462477744214788
30
0
10
7.355731537306375
20
-1.2462477744214788
30
0
10
7.4785123371720976
20
-1.1429052413099066
30
0
0
SPLINE
5
460
100
AcDbEntity
8
0
100
AcDbSpline
70
0
71
2
72
6
73
3
74
0
42
0.000000001
43
0.0000000001
44
0.0000000001
40
0
40
0
40
0
40
1
40
1
40
1
10
7.4785123371720976
20
-1.1429052413099066
30
0
10
7.6012955212236113
20
-1.0395630062215577
30
0
10
7.6012955212236113
20
-0.90040881043603527
30
0
0
SPLINE
5
461
100
AcDbEntity
8
0
100
AcDbSpline
70
0
71
2
72
6
73
3
74
0
42
0.000000001
43
0.0000000001
44
0.0000000001
40
0
40
0
40
0
40
1
40
1
40
1
10
7.6012955212236113
20
-0.90040881043603527
30
0
10
7.6012955212236131
20
-0.77557939892938244
30
0
10
7.4928389095903123
20
-0.70395607358148204
30
0
0
SPLINE
5
462
100
AcDbEntity
8
0
100
AcDbSpline
70
0
71
2
72
6
73
3
74
0
42
0.000000001
43
0.0000000001
44
0.0000000001
40
0
40
0
40
0
40
1
40
1
40
1
10
7.4928389095903123
20
-0.70395607358148204
30
0
10
7.4171219372392381
20
-0.6548427403562318
30
0
10
7.1163044476152146
20
-0.57912636405160534
30
0
0
SPLINE
5
463
100
AcDbEntity
8
0
100
AcDbSpline
70
0
71
2
72
6
73
3
74
0
42
0.000000001
43
0.0000000001
44
0.0000000001
40
0
40
0
40
0
40
1
40
1
40
1
10
7.1163044476152146
20
-0.57912636405160534
30
0
10
6.7111192249894822
20
-0.47680724269082653
30
0
10
6.5545712017656053
20
-0.40211427813699352
30
0
0
SPLINE
5
464
100
AcDbEntity
8
0
100
AcDbSpline
70
0
71
2
72
6
73
3
74
0
42
0.000000001
43
0.0000000001
44
0.0000000001
40
0
40
0
40
0
40
1
40
1
40
1
10
6.5545712017656053
20
-0.40211427813699352
30
0
10
6.3980231785417283
20
-0.32742131358316051
30
0
10
6.3171897434831346
20
-0.19542921191384899
30
0
0
SPLINE
5
465
100
AcDbEntity
8
0
100
AcDbSpline
70
0
71
2
72
6
73
3
74
0
42
0.000000001
43
0.0000000001
44
0.0000000001
40
0
40
0
40
0
40
1
40
1
40
1
10
6.3171897434831346
20
-0.19542921191384899
30
0
10
6.2363586926103318
20
-0.063437706290985219
30
0
10
6.2363586926103318
20
0.096180552185272106
30
0
0
SPLINE
5
466
100
AcDbEntity
8
0
100
AcDbSpline
70
0
71
2
72
6
73
3
74
0
42
0.000000001
43
0.0000000001
44
0.0000000001
40
0
40
0
40
0
40
1
40
1
40
1
10
6.2363586926103318
20
0.096180552185272106
30
0
10
6.2363586926103318
20
0.2414740263826598
30
0
10
6.3028655552507127
20
0.36528002613851918
30
0
0
SPLINE
5
467
100
AcDbEntity
8
0
100
AcDbSpline
70
0
71
2
72
6
73
3
74
0
42
0.000000001
43
0.0000000001
44
0.0000000001
40
0
40
0
40
0
40
1
40
1
40
1
10
6.3028655552507127
20
0.36528002613851918
30
0
10
6.3693724178910935
20
0.48908632391760243
30
0
10
6.4839706921220506
20
0.57094168061087025
30
0
0
SPLINE
5
468
100
AcDbEntity
8
0
100
AcDbSpline
70
0
71
2
72
6
73
3
74
0
42
0.000000001
43
0.0000000001
44
0.0000000001
40
0
40
0
40
0
40
1
40
1
40
1
10
6.4839706921220506
20
0.57094168061087025
30
0
10
6.5699182057023728
20
0.63437950009176625
30
0
10
6.7182813191056932
20
0.67837696665594471
30
0
0
SPLINE
5
469
100
AcDbEntity
8
0
100
AcDbSpline
70
0
71
2
72
6
73
3
74
0
42
0.000000001
43
0.0000000001
44
0.0000000001
40
0
40
0
40
0
40
1
40
1
40
1
10
6.7182813191056932
20
0.67837696665594471
30
0
10
6.8666444325090135
20
0.72237443322012318
30
0
10
7.0364938282609666
20
0.72237443322012318
30
0
0
SPLINE
5
470
100
AcDbEntity
8
0
100
AcDbSpline
70
0
71
2
72
6
73
3
74
0
42
0.000000001
43
0.0000000001
44
0.0000000001
40
0
40
0
40
0
40
1
40
1
40
1
10
7.0364938282609666
20
0.72237443322012318
30
0
10
7.292293121779033
20
0.72237443322012318
30
0
10
7.4856768154741014
20
0.64870428437063588
30
0
0
SPLINE
5
471
100
AcDbEntity
8
0
100
AcDbSpline
70
0
71
2
72
6
73
3
74
0
42
0.000000001
43
0.0000000001
44
0.0000000001
40
0
40
0
40
0
40
1
40
1
40
1
10
7.4856768154741014
20
0.64870428437063588
30
0
10
7.6790581249833787
20
0.57503473156759632
30
0
10
7.7711473011613572
20
0.44918190831014948
30
0
0
SPLINE
5
472
100
AcDbEntity
8
0
100
AcDbSpline
70
0
71
2
72
6
73
3
74
0
42
0.000000001
43
0.0000000001
44
0.0000000001
40
0
40
0
40
0
40
1
40
1
40
1
10
7.7711473011613572
20
0.44918190831014948
30
0
10
7.8632340931535447
20
0.32332908505270319
30
0
10
7.8980217480302537
20
0.11255156391928034
30
0
0
LINE
5
473
100
AcDbEntity
8
0
100
AcDbLine
10
7.8980217480302537
20
0.11255156391928034
30
0
11
7.5378594898820603
21
0.063438528717254056
31
0
0
SPLINE
5
474
100
AcDbEntity
8
0
100
AcDbSpline
70
0
71
2
72
6
73
3
74
0
42
0.000000001
43
0.0000000001
44
0.0000000001
40
0
40
0
40
0
40
1
40
1
40
1
10
7.5378594898820603
20
0.063438528717254528
30
0
10
7.5133023762345994
20
0.23124169701406849
30
0
10
7.3956356548906053
20
0.32537561053106678
30
0
0
SPLINE
5
475
100
AcDbEntity
8
0
100
AcDbSpline
70
0
71
2
72
6
73
3
74
0
42
0.000000001
43
0.0000000001
44
0.0000000001
40
0
40
0
40
0
40
1
40
1
40
1
10
7.3956356548906053
20
0.32537561053106678
30
0
10
7.2779689335466111
20
0.41950952404806507
30
0
10
7.0630965733171189
20
0.41950952404806507
30
0
0
SPLINE
5
476
100
AcDbEntity
8
0
100
AcDbSpline
70
0
71
2
72
6
73
3
74
0
42
0.000000001
43
0.0000000001
44
0.0000000001
40
0
40
0
40
0
40
1
40
1
40
1
10
7.0630965733171189
20
0.41950952404806507
30
0
10
6.8093452953935349
20
0.41950952404806507
30
0
10
6.7008862995744432
20
0.33560764187643422
30
0
0
SPLINE
5
477
100
AcDbEntity
8
0
100
AcDbSpline
70
0
71
2
72
6
73
3
74
0
42
0.000000001
43
0.0000000001
44
0.0000000001
40
0
40
0
40
0
40
1
40
1
40
1
10
6.7008862995744432
20
0.33560764187643422
30
0
10
6.5924296879411424
20
0.25170575970480336
30
0
10
6.5924296879411424
20
0.13915460699865712
30
0
0
SPLINE
5
478
100
AcDbEntity
8
0
100
AcDbSpline
70
0
71
2
72
6
73
3
74
0
42
0.000000001
43
0.0000000001
44
0.0000000001
40
0
40
0
40
0
40
1
40
1
40
1
10
6.5924296879411424
20
0.13915460699865712
30
0
10
6.5924296879411424
20
0.067530983627532848
30
0
10
6.6374502682328904
20
0.010232442558502086
30
0
0
SPLINE
5
479
100
AcDbEntity
8
0
100
AcDbSpline
70
0
71
2
72
6
73
3
74
0
42
0.000000001
43
0.0000000001
44
0.0000000001
40
0
40
0
40
0
40
1
40
1
40
1
10
6.6374502682328904
20
0.010232442558502086
30
0
10
6.6824708485246385
20
-0.04911292201211559
30
0
10
6.7786489033342088
20
-0.087994223891998402
30
0
0
SPLINE
5
480
100
AcDbEntity
8
0
100
AcDbSpline
70
0
71
2
72
6
73
3
74
0
42
0.000000001
43
0.0000000001
44
0.0000000001
40
0
40
0
40
0
40
1
40
1
40
1
10
6.7786489033342088
20
-0.087994223891998402
30
0
10
6.8339024090409959
20
-0.10845798855950939
30
0
10
7.1040258907914842
20
-0.18212783938577282
30
0
0
SPLINE
5
481
100
AcDbEntity
8
0
100
AcDbSpline
70
0
71
2
72
6
73
3
74
0
42
0.000000001
43
0.0000000001
44
0.0000000001
40
0
40
0
40
0
40
1
40
1
40
1
10
7.1040258907914842
20
-0.18212783938577282
30
0
10
7.4948845409990037
20
-0.28649348622491466
30
0
10
7.6493869328141892
20
-0.35300094491174328
30
0
0
SPLINE
5
482
100
AcDbEntity
8
0
100
AcDbSpline
70
0
71
2
72
6
73
3
74
0
42
0.000000001
43
0.0000000001
44
0.0000000001
40
0
40
0
40
0
40
1
40
1
40
1
10
7.6493869328141892
20
-0.35300094491174328
30
0
10
7.8038893246293748
20
-0.41950870162179632
30
0
10
7.8918824696183885
20
-0.54638434058358831
30
0
0
SPLINE
5
483
100
AcDbEntity
8
0
100
AcDbSpline
70
0
71
2
72
6
73
3
74
0
42
0.000000001
43
0.0000000001
44
0.0000000001
40
0
40
0
40
0
40
1
40
1
40
1
10
7.8918824696183885
20
-0.54638434058358831
30
0
10
7.9798779987931932
20
-0.67326027756860418
30
0
10
7.9798779987931932
20
-0.86152780657937689
30
0
0
SPLINE
5
484
100
AcDbEntity
8
0
100
AcDbSpline
70
0
71
2
72
6
73
3
74
0
42
0.000000001
43
0.0000000001
44
0.0000000001
40
0
40
0
40
0
40
1
40
1
40
1
10
7.9798779987931932
20
-0.86152780657937689
30
0
10
7.9798779987931914
20
-1.0457022846334234
30
0
10
7.8724418186784453
20
-1.2083898842923895
30
0
0
SPLINE
5
485
100
AcDbEntity
8
0
100
AcDbSpline
70
0
71
2
72
6
73
3
74
0
42
0.000000001
43
0.0000000001
44
0.0000000001
40
0
40
0
40
0
40
1
40
1
40
1
10
7.8724418186784453
20
-1.2083898842923895
30
0
10
7.7650080227494902
20
-1.3710771859281317
30
0
10
7.5624142193437285
20
-1.4600949347608343
30
0
0
SPLINE
5
486
100
AcDbEntity
8
0
100
AcDbSpline
70
0
71
2
72
6
73
3
74
0
42
0.000000001
43
0.0000000001
44
0.0000000001
40
0
40
0
40
0
40
1
40
1
40
1
10
7.5624142193437285
20
-1.4600949347608343
30
0
10
7.3598228001237578
20
-1.5491126835935369
30
0
10
7.1040258907914824
20
-1.5491126835935369
30
0
0
SPLINE
5
487
100
AcDbEntity
8
0
100
AcDbSpline
70
0
71
2
72
6
73
3
74
0
42
0.000000001
43
0.0000000001
44
0.0000000001
40
0
40
0
40
0
40
1
40
1
40
1
10
7.1040258907914824
20
-1.5491126835935369
30
0
10
6.6804228329301543
20
-1.5491126835935369
30
0
10
6.4583907627702422
20
-1.3731240094297177
30
0
0
SPLINE
5
488
100
AcDbEntity
8
0
100
AcDbSpline
70
0
71
2
72
6
73
3
74
0
42
0.000000001
43
0.0000000001
44
0.0000000001
40
0
40
0
40
0
40
1
40
1
40
1
10
6.4583907627702422
20
-1.3731240094297177
30
0
10
6.23635869261033
20
-1.1971347392194516
30
0
10
6.1749659084916795
20
-0.8512957752340089
30
0
0
ENDSEC
0
SECTION
2
OBJECTS
0
DICTIONARY
5
C
100
AcDbDictionary
3
ACAD_GROUP
350
D
3
ACAD_MLINESTYLE
350
17
0
DICTIONARY
5
D
100
AcDbDictionary
0
DICTIONARY
5
1A
330
C
100
AcDbDictionary
0
DICTIONARY
5
17
100
AcDbDictionary
0
ENDSEC
0
EOF
